%TF.GenerationSoftware,KiCad,Pcbnew,(5.1.6)-1*%
%TF.CreationDate,2020-07-01T23:58:00+08:00*%
%TF.ProjectId,matrix_v3s,6d617472-6978-45f7-9633-732e6b696361,rev?*%
%TF.SameCoordinates,Original*%
%TF.FileFunction,Soldermask,Bot*%
%TF.FilePolarity,Negative*%
%FSLAX46Y46*%
G04 Gerber Fmt 4.6, Leading zero omitted, Abs format (unit mm)*
G04 Created by KiCad (PCBNEW (5.1.6)-1) date 2020-07-01 23:58:00*
%MOMM*%
%LPD*%
G01*
G04 APERTURE LIST*
%ADD10R,1.600000X1.600000*%
%ADD11C,1.600000*%
%ADD12C,3.350000*%
%ADD13C,2.400000*%
%ADD14R,1.300000X0.900000*%
%ADD15C,0.900000*%
%ADD16R,1.300000X1.100000*%
%ADD17C,3.100000*%
%ADD18C,2.600000*%
%ADD19R,3.600000X3.600000*%
%ADD20C,6.500000*%
%ADD21C,1.100000*%
%ADD22C,1.200000*%
%ADD23C,1.300000*%
%ADD24O,1.100000X2.200000*%
%ADD25O,1.100000X1.700000*%
%ADD26C,0.750000*%
G04 APERTURE END LIST*
D10*
%TO.C,J7*%
X120047000Y-65913000D03*
D11*
X120047000Y-67945000D03*
X120047000Y-69977000D03*
X120047000Y-72009000D03*
X118267000Y-66929000D03*
X118267000Y-68961000D03*
X118267000Y-70993000D03*
X118267000Y-73025000D03*
D12*
X122587000Y-63123000D03*
X122587000Y-75823000D03*
D13*
X119157000Y-77603000D03*
X119157000Y-61343000D03*
D11*
X113447000Y-62613000D03*
X113447000Y-64903000D03*
X113447000Y-74043000D03*
X113447000Y-76333000D03*
%TD*%
%TO.C,D12*%
G36*
G01*
X77424000Y-22578750D02*
X77424000Y-23141250D01*
G75*
G02*
X77180250Y-23385000I-243750J0D01*
G01*
X76692750Y-23385000D01*
G75*
G02*
X76449000Y-23141250I0J243750D01*
G01*
X76449000Y-22578750D01*
G75*
G02*
X76692750Y-22335000I243750J0D01*
G01*
X77180250Y-22335000D01*
G75*
G02*
X77424000Y-22578750I0J-243750D01*
G01*
G37*
G36*
G01*
X78999000Y-22578750D02*
X78999000Y-23141250D01*
G75*
G02*
X78755250Y-23385000I-243750J0D01*
G01*
X78267750Y-23385000D01*
G75*
G02*
X78024000Y-23141250I0J243750D01*
G01*
X78024000Y-22578750D01*
G75*
G02*
X78267750Y-22335000I243750J0D01*
G01*
X78755250Y-22335000D01*
G75*
G02*
X78999000Y-22578750I0J-243750D01*
G01*
G37*
%TD*%
%TO.C,R45*%
G36*
G01*
X74790000Y-22662500D02*
X74790000Y-23057500D01*
G75*
G02*
X74617500Y-23230000I-172500J0D01*
G01*
X74272500Y-23230000D01*
G75*
G02*
X74100000Y-23057500I0J172500D01*
G01*
X74100000Y-22662500D01*
G75*
G02*
X74272500Y-22490000I172500J0D01*
G01*
X74617500Y-22490000D01*
G75*
G02*
X74790000Y-22662500I0J-172500D01*
G01*
G37*
G36*
G01*
X75760000Y-22662500D02*
X75760000Y-23057500D01*
G75*
G02*
X75587500Y-23230000I-172500J0D01*
G01*
X75242500Y-23230000D01*
G75*
G02*
X75070000Y-23057500I0J172500D01*
G01*
X75070000Y-22662500D01*
G75*
G02*
X75242500Y-22490000I172500J0D01*
G01*
X75587500Y-22490000D01*
G75*
G02*
X75760000Y-22662500I0J-172500D01*
G01*
G37*
%TD*%
D14*
%TO.C,SW3*%
X87344000Y-22898000D03*
X83344000Y-22898000D03*
X87344000Y-21298000D03*
X83344000Y-21298000D03*
D15*
X85344000Y-21198000D03*
X85344000Y-22998000D03*
%TD*%
D16*
%TO.C,D7*%
X78870000Y-96150000D03*
X78870000Y-94350000D03*
X76070000Y-96150000D03*
X76070000Y-94350000D03*
%TD*%
%TO.C,C32*%
G36*
G01*
X74224500Y-95898000D02*
X74619500Y-95898000D01*
G75*
G02*
X74792000Y-96070500I0J-172500D01*
G01*
X74792000Y-96415500D01*
G75*
G02*
X74619500Y-96588000I-172500J0D01*
G01*
X74224500Y-96588000D01*
G75*
G02*
X74052000Y-96415500I0J172500D01*
G01*
X74052000Y-96070500D01*
G75*
G02*
X74224500Y-95898000I172500J0D01*
G01*
G37*
G36*
G01*
X74224500Y-94928000D02*
X74619500Y-94928000D01*
G75*
G02*
X74792000Y-95100500I0J-172500D01*
G01*
X74792000Y-95445500D01*
G75*
G02*
X74619500Y-95618000I-172500J0D01*
G01*
X74224500Y-95618000D01*
G75*
G02*
X74052000Y-95445500I0J172500D01*
G01*
X74052000Y-95100500D01*
G75*
G02*
X74224500Y-94928000I172500J0D01*
G01*
G37*
%TD*%
%TO.C,R35*%
G36*
G01*
X80320500Y-95898000D02*
X80715500Y-95898000D01*
G75*
G02*
X80888000Y-96070500I0J-172500D01*
G01*
X80888000Y-96415500D01*
G75*
G02*
X80715500Y-96588000I-172500J0D01*
G01*
X80320500Y-96588000D01*
G75*
G02*
X80148000Y-96415500I0J172500D01*
G01*
X80148000Y-96070500D01*
G75*
G02*
X80320500Y-95898000I172500J0D01*
G01*
G37*
G36*
G01*
X80320500Y-94928000D02*
X80715500Y-94928000D01*
G75*
G02*
X80888000Y-95100500I0J-172500D01*
G01*
X80888000Y-95445500D01*
G75*
G02*
X80715500Y-95618000I-172500J0D01*
G01*
X80320500Y-95618000D01*
G75*
G02*
X80148000Y-95445500I0J172500D01*
G01*
X80148000Y-95100500D01*
G75*
G02*
X80320500Y-94928000I172500J0D01*
G01*
G37*
%TD*%
D17*
%TO.C,U8*%
X93218000Y-80010000D03*
%TD*%
D18*
%TO.C,U7*%
X81310000Y-43156000D03*
%TD*%
D19*
%TO.C,J5*%
X71120000Y-34036000D03*
G36*
G01*
X70095000Y-26486000D02*
X72145000Y-26486000D01*
G75*
G02*
X72920000Y-27261000I0J-775000D01*
G01*
X72920000Y-28811000D01*
G75*
G02*
X72145000Y-29586000I-775000J0D01*
G01*
X70095000Y-29586000D01*
G75*
G02*
X69320000Y-28811000I0J775000D01*
G01*
X69320000Y-27261000D01*
G75*
G02*
X70095000Y-26486000I775000J0D01*
G01*
G37*
G36*
G01*
X65520000Y-29236000D02*
X67320000Y-29236000D01*
G75*
G02*
X68220000Y-30136000I0J-900000D01*
G01*
X68220000Y-31936000D01*
G75*
G02*
X67320000Y-32836000I-900000J0D01*
G01*
X65520000Y-32836000D01*
G75*
G02*
X64620000Y-31936000I0J900000D01*
G01*
X64620000Y-30136000D01*
G75*
G02*
X65520000Y-29236000I900000J0D01*
G01*
G37*
%TD*%
D15*
%TO.C,H3*%
X122855056Y-92282944D03*
X121158000Y-91580000D03*
X119460944Y-92282944D03*
X118758000Y-93980000D03*
X119460944Y-95677056D03*
X121158000Y-96380000D03*
X122855056Y-95677056D03*
X123558000Y-93980000D03*
D20*
X121158000Y-93980000D03*
%TD*%
D15*
%TO.C,H2*%
X30907056Y-22432944D03*
X29210000Y-21730000D03*
X27512944Y-22432944D03*
X26810000Y-24130000D03*
X27512944Y-25827056D03*
X29210000Y-26530000D03*
X30907056Y-25827056D03*
X31610000Y-24130000D03*
D20*
X29210000Y-24130000D03*
%TD*%
D21*
%TO.C,MK1*%
X107150000Y-22814000D03*
X108750000Y-22814000D03*
%TD*%
D22*
%TO.C,SW2*%
X96560000Y-22860000D03*
X101560000Y-22860000D03*
%TD*%
D15*
%TO.C,SW1*%
X124090000Y-56896000D03*
X122290000Y-56896000D03*
%TD*%
D23*
%TO.C,J3*%
X51054000Y-86408000D03*
X51054000Y-92408000D03*
%TD*%
%TO.C,J1*%
X43180000Y-31702000D03*
X43180000Y-25702000D03*
%TD*%
D24*
%TO.C,J2*%
X120398000Y-27489000D03*
X111758000Y-27489000D03*
D25*
X120398000Y-23309000D03*
X111758000Y-23309000D03*
D26*
X113188000Y-26989000D03*
X118968000Y-26989000D03*
%TD*%
M02*
