%TF.GenerationSoftware,KiCad,Pcbnew,(5.1.6)-1*%
%TF.CreationDate,2020-07-01T23:58:00+08:00*%
%TF.ProjectId,matrix_v3s,6d617472-6978-45f7-9633-732e6b696361,rev?*%
%TF.SameCoordinates,Original*%
%TF.FileFunction,Paste,Bot*%
%TF.FilePolarity,Positive*%
%FSLAX46Y46*%
G04 Gerber Fmt 4.6, Leading zero omitted, Abs format (unit mm)*
G04 Created by KiCad (PCBNEW (5.1.6)-1) date 2020-07-01 23:58:00*
%MOMM*%
%LPD*%
G01*
G04 APERTURE LIST*
%ADD10R,1.200000X0.800000*%
%ADD11R,1.200000X1.000000*%
G04 APERTURE END LIST*
%TO.C,D12*%
G36*
G01*
X77374000Y-22603750D02*
X77374000Y-23116250D01*
G75*
G02*
X77155250Y-23335000I-218750J0D01*
G01*
X76717750Y-23335000D01*
G75*
G02*
X76499000Y-23116250I0J218750D01*
G01*
X76499000Y-22603750D01*
G75*
G02*
X76717750Y-22385000I218750J0D01*
G01*
X77155250Y-22385000D01*
G75*
G02*
X77374000Y-22603750I0J-218750D01*
G01*
G37*
G36*
G01*
X78949000Y-22603750D02*
X78949000Y-23116250D01*
G75*
G02*
X78730250Y-23335000I-218750J0D01*
G01*
X78292750Y-23335000D01*
G75*
G02*
X78074000Y-23116250I0J218750D01*
G01*
X78074000Y-22603750D01*
G75*
G02*
X78292750Y-22385000I218750J0D01*
G01*
X78730250Y-22385000D01*
G75*
G02*
X78949000Y-22603750I0J-218750D01*
G01*
G37*
%TD*%
%TO.C,R45*%
G36*
G01*
X74740000Y-22687500D02*
X74740000Y-23032500D01*
G75*
G02*
X74592500Y-23180000I-147500J0D01*
G01*
X74297500Y-23180000D01*
G75*
G02*
X74150000Y-23032500I0J147500D01*
G01*
X74150000Y-22687500D01*
G75*
G02*
X74297500Y-22540000I147500J0D01*
G01*
X74592500Y-22540000D01*
G75*
G02*
X74740000Y-22687500I0J-147500D01*
G01*
G37*
G36*
G01*
X75710000Y-22687500D02*
X75710000Y-23032500D01*
G75*
G02*
X75562500Y-23180000I-147500J0D01*
G01*
X75267500Y-23180000D01*
G75*
G02*
X75120000Y-23032500I0J147500D01*
G01*
X75120000Y-22687500D01*
G75*
G02*
X75267500Y-22540000I147500J0D01*
G01*
X75562500Y-22540000D01*
G75*
G02*
X75710000Y-22687500I0J-147500D01*
G01*
G37*
%TD*%
D10*
%TO.C,SW3*%
X87344000Y-22898000D03*
X83344000Y-22898000D03*
X87344000Y-21298000D03*
X83344000Y-21298000D03*
%TD*%
D11*
%TO.C,D7*%
X78870000Y-96150000D03*
X78870000Y-94350000D03*
X76070000Y-96150000D03*
X76070000Y-94350000D03*
%TD*%
%TO.C,C32*%
G36*
G01*
X74249500Y-95948000D02*
X74594500Y-95948000D01*
G75*
G02*
X74742000Y-96095500I0J-147500D01*
G01*
X74742000Y-96390500D01*
G75*
G02*
X74594500Y-96538000I-147500J0D01*
G01*
X74249500Y-96538000D01*
G75*
G02*
X74102000Y-96390500I0J147500D01*
G01*
X74102000Y-96095500D01*
G75*
G02*
X74249500Y-95948000I147500J0D01*
G01*
G37*
G36*
G01*
X74249500Y-94978000D02*
X74594500Y-94978000D01*
G75*
G02*
X74742000Y-95125500I0J-147500D01*
G01*
X74742000Y-95420500D01*
G75*
G02*
X74594500Y-95568000I-147500J0D01*
G01*
X74249500Y-95568000D01*
G75*
G02*
X74102000Y-95420500I0J147500D01*
G01*
X74102000Y-95125500D01*
G75*
G02*
X74249500Y-94978000I147500J0D01*
G01*
G37*
%TD*%
%TO.C,R35*%
G36*
G01*
X80345500Y-95948000D02*
X80690500Y-95948000D01*
G75*
G02*
X80838000Y-96095500I0J-147500D01*
G01*
X80838000Y-96390500D01*
G75*
G02*
X80690500Y-96538000I-147500J0D01*
G01*
X80345500Y-96538000D01*
G75*
G02*
X80198000Y-96390500I0J147500D01*
G01*
X80198000Y-96095500D01*
G75*
G02*
X80345500Y-95948000I147500J0D01*
G01*
G37*
G36*
G01*
X80345500Y-94978000D02*
X80690500Y-94978000D01*
G75*
G02*
X80838000Y-95125500I0J-147500D01*
G01*
X80838000Y-95420500D01*
G75*
G02*
X80690500Y-95568000I-147500J0D01*
G01*
X80345500Y-95568000D01*
G75*
G02*
X80198000Y-95420500I0J147500D01*
G01*
X80198000Y-95125500D01*
G75*
G02*
X80345500Y-94978000I147500J0D01*
G01*
G37*
%TD*%
M02*
