%TF.GenerationSoftware,KiCad,Pcbnew,(5.1.6)-1*%
%TF.CreationDate,2020-07-01T23:58:00+08:00*%
%TF.ProjectId,matrix_v3s,6d617472-6978-45f7-9633-732e6b696361,rev?*%
%TF.SameCoordinates,Original*%
%TF.FileFunction,Soldermask,Top*%
%TF.FilePolarity,Negative*%
%FSLAX46Y46*%
G04 Gerber Fmt 4.6, Leading zero omitted, Abs format (unit mm)*
G04 Created by KiCad (PCBNEW (5.1.6)-1) date 2020-07-01 23:58:00*
%MOMM*%
%LPD*%
G01*
G04 APERTURE LIST*
%ADD10R,0.400000X1.400000*%
%ADD11R,1.900000X2.300000*%
%ADD12R,0.600000X1.400000*%
%ADD13R,1.900000X0.800000*%
%ADD14R,3.100000X5.100000*%
%ADD15R,2.100000X3.100000*%
%ADD16R,2.700000X3.700000*%
%ADD17R,1.600000X1.600000*%
%ADD18C,1.600000*%
%ADD19C,3.350000*%
%ADD20C,2.400000*%
%ADD21C,0.900000*%
%ADD22R,1.300000X1.100000*%
%ADD23R,1.300000X0.600000*%
%ADD24R,1.300000X0.700000*%
%ADD25R,1.600000X0.700000*%
%ADD26R,0.700000X1.600000*%
%ADD27R,2.100000X2.100000*%
%ADD28C,3.100000*%
%ADD29O,0.340000X1.700000*%
%ADD30O,1.700000X0.340000*%
%ADD31R,1.300000X1.500000*%
%ADD32R,0.550000X0.700000*%
%ADD33R,0.700000X0.550000*%
%ADD34C,2.600000*%
%ADD35O,0.320000X1.100000*%
%ADD36O,1.100000X0.320000*%
%ADD37R,3.600000X3.600000*%
%ADD38C,6.500000*%
%ADD39R,1.150000X1.200000*%
%ADD40R,0.400000X0.800000*%
%ADD41R,0.800000X0.400000*%
%ADD42C,1.100000*%
%ADD43C,0.330000*%
%ADD44O,0.450000X1.100000*%
%ADD45O,1.100000X0.450000*%
%ADD46R,0.400000X1.500000*%
%ADD47R,1.660000X0.750000*%
%ADD48R,0.750000X1.160000*%
%ADD49R,1.160000X0.750000*%
%ADD50R,2.000000X1.900000*%
%ADD51R,1.900000X1.700000*%
%ADD52C,1.200000*%
%ADD53R,0.900000X1.300000*%
%ADD54C,1.300000*%
%ADD55R,3.300000X2.100000*%
%ADD56O,0.750000X0.500000*%
%ADD57R,0.400000X0.500000*%
%ADD58R,1.750000X2.500000*%
%ADD59R,0.750000X1.100000*%
%ADD60R,0.900000X1.000000*%
%ADD61O,1.100000X2.200000*%
%ADD62O,1.100000X1.700000*%
%ADD63C,0.750000*%
%ADD64R,0.400000X1.250000*%
G04 APERTURE END LIST*
D10*
%TO.C,J8*%
X46130000Y-69160000D03*
X46630000Y-69160000D03*
X47130000Y-69160000D03*
X47630000Y-69160000D03*
X48130000Y-69160000D03*
X48630000Y-69160000D03*
X49130000Y-69160000D03*
X49630000Y-69160000D03*
X50130000Y-69160000D03*
X50630000Y-69160000D03*
X51130000Y-69160000D03*
X51630000Y-69160000D03*
X52130000Y-69160000D03*
X52630000Y-69160000D03*
X53130000Y-69160000D03*
X53630000Y-69160000D03*
X54130000Y-69160000D03*
X54630000Y-69160000D03*
X55130000Y-69160000D03*
X55630000Y-69160000D03*
X56130000Y-69160000D03*
X56630000Y-69160000D03*
X57130000Y-69160000D03*
X57630000Y-69160000D03*
X58130000Y-69160000D03*
X58630000Y-69160000D03*
X59130000Y-69160000D03*
X59630000Y-69160000D03*
X60130000Y-69160000D03*
X60630000Y-69160000D03*
X61130000Y-69160000D03*
X61630000Y-69160000D03*
X62130000Y-69160000D03*
X62630000Y-69160000D03*
X63130000Y-69160000D03*
X63630000Y-69160000D03*
X64130000Y-69160000D03*
X64630000Y-69160000D03*
X65130000Y-69160000D03*
X65630000Y-69160000D03*
D11*
X67530000Y-65910000D03*
X44230000Y-65910000D03*
%TD*%
%TO.C,R66*%
G36*
G01*
X107893500Y-69456000D02*
X107498500Y-69456000D01*
G75*
G02*
X107326000Y-69283500I0J172500D01*
G01*
X107326000Y-68938500D01*
G75*
G02*
X107498500Y-68766000I172500J0D01*
G01*
X107893500Y-68766000D01*
G75*
G02*
X108066000Y-68938500I0J-172500D01*
G01*
X108066000Y-69283500D01*
G75*
G02*
X107893500Y-69456000I-172500J0D01*
G01*
G37*
G36*
G01*
X107893500Y-70426000D02*
X107498500Y-70426000D01*
G75*
G02*
X107326000Y-70253500I0J172500D01*
G01*
X107326000Y-69908500D01*
G75*
G02*
X107498500Y-69736000I172500J0D01*
G01*
X107893500Y-69736000D01*
G75*
G02*
X108066000Y-69908500I0J-172500D01*
G01*
X108066000Y-70253500D01*
G75*
G02*
X107893500Y-70426000I-172500J0D01*
G01*
G37*
%TD*%
%TO.C,R51*%
G36*
G01*
X93528500Y-92596000D02*
X93923500Y-92596000D01*
G75*
G02*
X94096000Y-92768500I0J-172500D01*
G01*
X94096000Y-93113500D01*
G75*
G02*
X93923500Y-93286000I-172500J0D01*
G01*
X93528500Y-93286000D01*
G75*
G02*
X93356000Y-93113500I0J172500D01*
G01*
X93356000Y-92768500D01*
G75*
G02*
X93528500Y-92596000I172500J0D01*
G01*
G37*
G36*
G01*
X93528500Y-91626000D02*
X93923500Y-91626000D01*
G75*
G02*
X94096000Y-91798500I0J-172500D01*
G01*
X94096000Y-92143500D01*
G75*
G02*
X93923500Y-92316000I-172500J0D01*
G01*
X93528500Y-92316000D01*
G75*
G02*
X93356000Y-92143500I0J172500D01*
G01*
X93356000Y-91798500D01*
G75*
G02*
X93528500Y-91626000I172500J0D01*
G01*
G37*
%TD*%
%TO.C,R50*%
G36*
G01*
X90480500Y-92596000D02*
X90875500Y-92596000D01*
G75*
G02*
X91048000Y-92768500I0J-172500D01*
G01*
X91048000Y-93113500D01*
G75*
G02*
X90875500Y-93286000I-172500J0D01*
G01*
X90480500Y-93286000D01*
G75*
G02*
X90308000Y-93113500I0J172500D01*
G01*
X90308000Y-92768500D01*
G75*
G02*
X90480500Y-92596000I172500J0D01*
G01*
G37*
G36*
G01*
X90480500Y-91626000D02*
X90875500Y-91626000D01*
G75*
G02*
X91048000Y-91798500I0J-172500D01*
G01*
X91048000Y-92143500D01*
G75*
G02*
X90875500Y-92316000I-172500J0D01*
G01*
X90480500Y-92316000D01*
G75*
G02*
X90308000Y-92143500I0J172500D01*
G01*
X90308000Y-91798500D01*
G75*
G02*
X90480500Y-91626000I172500J0D01*
G01*
G37*
%TD*%
%TO.C,R37*%
G36*
G01*
X89859500Y-92316000D02*
X89464500Y-92316000D01*
G75*
G02*
X89292000Y-92143500I0J172500D01*
G01*
X89292000Y-91798500D01*
G75*
G02*
X89464500Y-91626000I172500J0D01*
G01*
X89859500Y-91626000D01*
G75*
G02*
X90032000Y-91798500I0J-172500D01*
G01*
X90032000Y-92143500D01*
G75*
G02*
X89859500Y-92316000I-172500J0D01*
G01*
G37*
G36*
G01*
X89859500Y-93286000D02*
X89464500Y-93286000D01*
G75*
G02*
X89292000Y-93113500I0J172500D01*
G01*
X89292000Y-92768500D01*
G75*
G02*
X89464500Y-92596000I172500J0D01*
G01*
X89859500Y-92596000D01*
G75*
G02*
X90032000Y-92768500I0J-172500D01*
G01*
X90032000Y-93113500D01*
G75*
G02*
X89859500Y-93286000I-172500J0D01*
G01*
G37*
%TD*%
%TO.C,R36*%
G36*
G01*
X88843500Y-92316000D02*
X88448500Y-92316000D01*
G75*
G02*
X88276000Y-92143500I0J172500D01*
G01*
X88276000Y-91798500D01*
G75*
G02*
X88448500Y-91626000I172500J0D01*
G01*
X88843500Y-91626000D01*
G75*
G02*
X89016000Y-91798500I0J-172500D01*
G01*
X89016000Y-92143500D01*
G75*
G02*
X88843500Y-92316000I-172500J0D01*
G01*
G37*
G36*
G01*
X88843500Y-93286000D02*
X88448500Y-93286000D01*
G75*
G02*
X88276000Y-93113500I0J172500D01*
G01*
X88276000Y-92768500D01*
G75*
G02*
X88448500Y-92596000I172500J0D01*
G01*
X88843500Y-92596000D01*
G75*
G02*
X89016000Y-92768500I0J-172500D01*
G01*
X89016000Y-93113500D01*
G75*
G02*
X88843500Y-93286000I-172500J0D01*
G01*
G37*
%TD*%
%TO.C,R17*%
G36*
G01*
X91496500Y-92596000D02*
X91891500Y-92596000D01*
G75*
G02*
X92064000Y-92768500I0J-172500D01*
G01*
X92064000Y-93113500D01*
G75*
G02*
X91891500Y-93286000I-172500J0D01*
G01*
X91496500Y-93286000D01*
G75*
G02*
X91324000Y-93113500I0J172500D01*
G01*
X91324000Y-92768500D01*
G75*
G02*
X91496500Y-92596000I172500J0D01*
G01*
G37*
G36*
G01*
X91496500Y-91626000D02*
X91891500Y-91626000D01*
G75*
G02*
X92064000Y-91798500I0J-172500D01*
G01*
X92064000Y-92143500D01*
G75*
G02*
X91891500Y-92316000I-172500J0D01*
G01*
X91496500Y-92316000D01*
G75*
G02*
X91324000Y-92143500I0J172500D01*
G01*
X91324000Y-91798500D01*
G75*
G02*
X91496500Y-91626000I172500J0D01*
G01*
G37*
%TD*%
%TO.C,R18*%
G36*
G01*
X92907500Y-92316000D02*
X92512500Y-92316000D01*
G75*
G02*
X92340000Y-92143500I0J172500D01*
G01*
X92340000Y-91798500D01*
G75*
G02*
X92512500Y-91626000I172500J0D01*
G01*
X92907500Y-91626000D01*
G75*
G02*
X93080000Y-91798500I0J-172500D01*
G01*
X93080000Y-92143500D01*
G75*
G02*
X92907500Y-92316000I-172500J0D01*
G01*
G37*
G36*
G01*
X92907500Y-93286000D02*
X92512500Y-93286000D01*
G75*
G02*
X92340000Y-93113500I0J172500D01*
G01*
X92340000Y-92768500D01*
G75*
G02*
X92512500Y-92596000I172500J0D01*
G01*
X92907500Y-92596000D01*
G75*
G02*
X93080000Y-92768500I0J-172500D01*
G01*
X93080000Y-93113500D01*
G75*
G02*
X92907500Y-93286000I-172500J0D01*
G01*
G37*
%TD*%
%TO.C,J9*%
X72820000Y-65910000D03*
X82120000Y-65910000D03*
D12*
X79970000Y-69160000D03*
X78970000Y-69160000D03*
X77970000Y-69160000D03*
X76970000Y-69160000D03*
X75970000Y-69160000D03*
X74970000Y-69160000D03*
%TD*%
D13*
%TO.C,U6*%
X105700000Y-91821000D03*
X97500000Y-91821000D03*
X105700000Y-93091000D03*
X97500000Y-93091000D03*
X105700000Y-94361000D03*
X97500000Y-94361000D03*
X105700000Y-95631000D03*
X97500000Y-95631000D03*
D14*
X101600000Y-93726000D03*
D15*
X101600000Y-91821000D03*
%TD*%
%TO.C,C34*%
G36*
G01*
X108514500Y-92469000D02*
X108909500Y-92469000D01*
G75*
G02*
X109082000Y-92641500I0J-172500D01*
G01*
X109082000Y-92986500D01*
G75*
G02*
X108909500Y-93159000I-172500J0D01*
G01*
X108514500Y-93159000D01*
G75*
G02*
X108342000Y-92986500I0J172500D01*
G01*
X108342000Y-92641500D01*
G75*
G02*
X108514500Y-92469000I172500J0D01*
G01*
G37*
G36*
G01*
X108514500Y-91499000D02*
X108909500Y-91499000D01*
G75*
G02*
X109082000Y-91671500I0J-172500D01*
G01*
X109082000Y-92016500D01*
G75*
G02*
X108909500Y-92189000I-172500J0D01*
G01*
X108514500Y-92189000D01*
G75*
G02*
X108342000Y-92016500I0J172500D01*
G01*
X108342000Y-91671500D01*
G75*
G02*
X108514500Y-91499000I172500J0D01*
G01*
G37*
%TD*%
%TO.C,C49*%
G36*
G01*
X109925500Y-92189000D02*
X109530500Y-92189000D01*
G75*
G02*
X109358000Y-92016500I0J172500D01*
G01*
X109358000Y-91671500D01*
G75*
G02*
X109530500Y-91499000I172500J0D01*
G01*
X109925500Y-91499000D01*
G75*
G02*
X110098000Y-91671500I0J-172500D01*
G01*
X110098000Y-92016500D01*
G75*
G02*
X109925500Y-92189000I-172500J0D01*
G01*
G37*
G36*
G01*
X109925500Y-93159000D02*
X109530500Y-93159000D01*
G75*
G02*
X109358000Y-92986500I0J172500D01*
G01*
X109358000Y-92641500D01*
G75*
G02*
X109530500Y-92469000I172500J0D01*
G01*
X109925500Y-92469000D01*
G75*
G02*
X110098000Y-92641500I0J-172500D01*
G01*
X110098000Y-92986500D01*
G75*
G02*
X109925500Y-93159000I-172500J0D01*
G01*
G37*
%TD*%
%TO.C,C30*%
G36*
G01*
X107328000Y-88843500D02*
X107328000Y-88448500D01*
G75*
G02*
X107500500Y-88276000I172500J0D01*
G01*
X107845500Y-88276000D01*
G75*
G02*
X108018000Y-88448500I0J-172500D01*
G01*
X108018000Y-88843500D01*
G75*
G02*
X107845500Y-89016000I-172500J0D01*
G01*
X107500500Y-89016000D01*
G75*
G02*
X107328000Y-88843500I0J172500D01*
G01*
G37*
G36*
G01*
X106358000Y-88843500D02*
X106358000Y-88448500D01*
G75*
G02*
X106530500Y-88276000I172500J0D01*
G01*
X106875500Y-88276000D01*
G75*
G02*
X107048000Y-88448500I0J-172500D01*
G01*
X107048000Y-88843500D01*
G75*
G02*
X106875500Y-89016000I-172500J0D01*
G01*
X106530500Y-89016000D01*
G75*
G02*
X106358000Y-88843500I0J172500D01*
G01*
G37*
%TD*%
%TO.C,R42*%
G36*
G01*
X88087500Y-46425500D02*
X88087500Y-46030500D01*
G75*
G02*
X88260000Y-45858000I172500J0D01*
G01*
X88605000Y-45858000D01*
G75*
G02*
X88777500Y-46030500I0J-172500D01*
G01*
X88777500Y-46425500D01*
G75*
G02*
X88605000Y-46598000I-172500J0D01*
G01*
X88260000Y-46598000D01*
G75*
G02*
X88087500Y-46425500I0J172500D01*
G01*
G37*
G36*
G01*
X87117500Y-46425500D02*
X87117500Y-46030500D01*
G75*
G02*
X87290000Y-45858000I172500J0D01*
G01*
X87635000Y-45858000D01*
G75*
G02*
X87807500Y-46030500I0J-172500D01*
G01*
X87807500Y-46425500D01*
G75*
G02*
X87635000Y-46598000I-172500J0D01*
G01*
X87290000Y-46598000D01*
G75*
G02*
X87117500Y-46425500I0J172500D01*
G01*
G37*
%TD*%
D16*
%TO.C,BT1*%
X94062000Y-51562000D03*
X123362000Y-51562000D03*
%TD*%
D17*
%TO.C,J7*%
X120047000Y-65913000D03*
D18*
X120047000Y-67945000D03*
X120047000Y-69977000D03*
X120047000Y-72009000D03*
X118267000Y-66929000D03*
X118267000Y-68961000D03*
X118267000Y-70993000D03*
X118267000Y-73025000D03*
D19*
X122587000Y-63123000D03*
X122587000Y-75823000D03*
D20*
X119157000Y-77603000D03*
X119157000Y-61343000D03*
D18*
X113447000Y-62613000D03*
X113447000Y-64903000D03*
X113447000Y-74043000D03*
X113447000Y-76333000D03*
%TD*%
D21*
%TO.C,SW3*%
X85344000Y-21198000D03*
X85344000Y-22998000D03*
%TD*%
%TO.C,R53*%
G36*
G01*
X89034000Y-21981000D02*
X88639000Y-21981000D01*
G75*
G02*
X88466500Y-21808500I0J172500D01*
G01*
X88466500Y-21463500D01*
G75*
G02*
X88639000Y-21291000I172500J0D01*
G01*
X89034000Y-21291000D01*
G75*
G02*
X89206500Y-21463500I0J-172500D01*
G01*
X89206500Y-21808500D01*
G75*
G02*
X89034000Y-21981000I-172500J0D01*
G01*
G37*
G36*
G01*
X89034000Y-22951000D02*
X88639000Y-22951000D01*
G75*
G02*
X88466500Y-22778500I0J172500D01*
G01*
X88466500Y-22433500D01*
G75*
G02*
X88639000Y-22261000I172500J0D01*
G01*
X89034000Y-22261000D01*
G75*
G02*
X89206500Y-22433500I0J-172500D01*
G01*
X89206500Y-22778500D01*
G75*
G02*
X89034000Y-22951000I-172500J0D01*
G01*
G37*
%TD*%
D22*
%TO.C,U4*%
X124010000Y-35065000D03*
X124010000Y-46215000D03*
D23*
X118110000Y-40840000D03*
D22*
X119860000Y-35065000D03*
X119860000Y-46215000D03*
D24*
X118110000Y-42290000D03*
X118110000Y-44490000D03*
X118110000Y-43390000D03*
X118110000Y-41540000D03*
X118110000Y-40090000D03*
X118110000Y-38990000D03*
X118110000Y-37890000D03*
X118110000Y-36790000D03*
%TD*%
D25*
%TO.C,U11*%
X28421000Y-61142000D03*
X28421000Y-60242000D03*
X28421000Y-59342000D03*
X28421000Y-58442000D03*
X28421000Y-57542000D03*
X28421000Y-56642000D03*
X28421000Y-55742000D03*
X28421000Y-54842000D03*
X28421000Y-53942000D03*
X28421000Y-53042000D03*
X28421000Y-52142000D03*
D26*
X30171000Y-50392000D03*
X31071000Y-50392000D03*
X31971000Y-50392000D03*
X32871000Y-50392000D03*
X33771000Y-50392000D03*
X34671000Y-50392000D03*
X35571000Y-50392000D03*
X36471000Y-50392000D03*
X37371000Y-50392000D03*
X38271000Y-50392000D03*
X39171000Y-50392000D03*
D25*
X40921000Y-52142000D03*
X40921000Y-53042000D03*
X40921000Y-53942000D03*
X40921000Y-54842000D03*
X40921000Y-55742000D03*
X40921000Y-56642000D03*
X40921000Y-57542000D03*
X40921000Y-58442000D03*
X40921000Y-59342000D03*
X40921000Y-60242000D03*
X40921000Y-61142000D03*
D26*
X39171000Y-62892000D03*
X38271000Y-62892000D03*
X37371000Y-62892000D03*
X36471000Y-62892000D03*
X35571000Y-62892000D03*
X34671000Y-62892000D03*
X33771000Y-62892000D03*
X32871000Y-62892000D03*
X31971000Y-62892000D03*
X31071000Y-62892000D03*
X30171000Y-62892000D03*
%TD*%
D27*
%TO.C,U8*%
X94218000Y-81010000D03*
X92218000Y-79010000D03*
D28*
X93218000Y-80010000D03*
D27*
X94218000Y-79010000D03*
X92218000Y-81010000D03*
D29*
X87018000Y-71760000D03*
X87418000Y-71760000D03*
X87818000Y-71760000D03*
X88218000Y-71760000D03*
X88618000Y-71760000D03*
X89018000Y-71760000D03*
X89418000Y-71760000D03*
X89818000Y-71760000D03*
X90218000Y-71760000D03*
X90618000Y-71760000D03*
X91018000Y-71760000D03*
X91418000Y-71760000D03*
X91818000Y-71760000D03*
X92218000Y-71760000D03*
X92618000Y-71760000D03*
X93018000Y-71760000D03*
X93418000Y-71760000D03*
X93818000Y-71760000D03*
X94218000Y-71760000D03*
X94618000Y-71760000D03*
X95018000Y-71760000D03*
X95418000Y-71760000D03*
X95818000Y-71760000D03*
X96218000Y-71760000D03*
X96618000Y-71760000D03*
X97018000Y-71760000D03*
X97418000Y-71760000D03*
X97818000Y-71760000D03*
X98218000Y-71760000D03*
X98618000Y-71760000D03*
X99018000Y-71760000D03*
X99418000Y-71760000D03*
D30*
X101468000Y-73810000D03*
X101468000Y-74210000D03*
X101468000Y-74610000D03*
X101468000Y-75010000D03*
X101468000Y-75410000D03*
X101468000Y-75810000D03*
X101468000Y-76210000D03*
X101468000Y-76610000D03*
X101468000Y-77010000D03*
X101468000Y-77410000D03*
X101468000Y-77810000D03*
X101468000Y-78210000D03*
X101468000Y-78610000D03*
X101468000Y-79010000D03*
X101468000Y-79410000D03*
X101468000Y-79810000D03*
X101468000Y-80210000D03*
X101468000Y-80610000D03*
X101468000Y-81010000D03*
X101468000Y-81410000D03*
X101468000Y-81810000D03*
X101468000Y-82210000D03*
X101468000Y-82610000D03*
X101468000Y-83010000D03*
X101468000Y-83410000D03*
X101468000Y-83810000D03*
X101468000Y-84210000D03*
X101468000Y-84610000D03*
X101468000Y-85010000D03*
X101468000Y-85410000D03*
X101468000Y-85810000D03*
X101468000Y-86210000D03*
D29*
X99418000Y-88260000D03*
X99018000Y-88260000D03*
X98618000Y-88260000D03*
X98218000Y-88260000D03*
X97818000Y-88260000D03*
X97418000Y-88260000D03*
X97018000Y-88260000D03*
X96618000Y-88260000D03*
X96218000Y-88260000D03*
X95818000Y-88260000D03*
X95418000Y-88260000D03*
X95018000Y-88260000D03*
X94618000Y-88260000D03*
X94218000Y-88260000D03*
X93818000Y-88260000D03*
X93418000Y-88260000D03*
X93018000Y-88260000D03*
X92618000Y-88260000D03*
X92218000Y-88260000D03*
X91818000Y-88260000D03*
X91418000Y-88260000D03*
X91018000Y-88260000D03*
X90618000Y-88260000D03*
X90218000Y-88260000D03*
X89818000Y-88260000D03*
X89418000Y-88260000D03*
X89018000Y-88260000D03*
X88618000Y-88260000D03*
X88218000Y-88260000D03*
X87818000Y-88260000D03*
X87418000Y-88260000D03*
X87018000Y-88260000D03*
D30*
X84968000Y-86210000D03*
X84968000Y-85810000D03*
X84968000Y-85410000D03*
X84968000Y-85010000D03*
X84968000Y-84610000D03*
X84968000Y-84210000D03*
X84968000Y-83810000D03*
X84968000Y-83410000D03*
X84968000Y-83010000D03*
X84968000Y-82610000D03*
X84968000Y-82210000D03*
X84968000Y-81810000D03*
X84968000Y-81410000D03*
X84968000Y-81010000D03*
X84968000Y-80610000D03*
X84968000Y-80210000D03*
X84968000Y-79810000D03*
X84968000Y-79410000D03*
X84968000Y-79010000D03*
X84968000Y-78610000D03*
X84968000Y-78210000D03*
X84968000Y-77810000D03*
X84968000Y-77410000D03*
X84968000Y-77010000D03*
X84968000Y-76610000D03*
X84968000Y-76210000D03*
X84968000Y-75810000D03*
X84968000Y-75410000D03*
X84968000Y-75010000D03*
X84968000Y-74610000D03*
X84968000Y-74210000D03*
X84968000Y-73810000D03*
%TD*%
%TO.C,R69*%
G36*
G01*
X37535500Y-65138000D02*
X37140500Y-65138000D01*
G75*
G02*
X36968000Y-64965500I0J172500D01*
G01*
X36968000Y-64620500D01*
G75*
G02*
X37140500Y-64448000I172500J0D01*
G01*
X37535500Y-64448000D01*
G75*
G02*
X37708000Y-64620500I0J-172500D01*
G01*
X37708000Y-64965500D01*
G75*
G02*
X37535500Y-65138000I-172500J0D01*
G01*
G37*
G36*
G01*
X37535500Y-66108000D02*
X37140500Y-66108000D01*
G75*
G02*
X36968000Y-65935500I0J172500D01*
G01*
X36968000Y-65590500D01*
G75*
G02*
X37140500Y-65418000I172500J0D01*
G01*
X37535500Y-65418000D01*
G75*
G02*
X37708000Y-65590500I0J-172500D01*
G01*
X37708000Y-65935500D01*
G75*
G02*
X37535500Y-66108000I-172500J0D01*
G01*
G37*
%TD*%
%TO.C,J6*%
G36*
G01*
X67230000Y-52150000D02*
X65930000Y-52150000D01*
G75*
G02*
X65755000Y-51975000I0J175000D01*
G01*
X65755000Y-51625000D01*
G75*
G02*
X65930000Y-51450000I175000J0D01*
G01*
X67230000Y-51450000D01*
G75*
G02*
X67405000Y-51625000I0J-175000D01*
G01*
X67405000Y-51975000D01*
G75*
G02*
X67230000Y-52150000I-175000J0D01*
G01*
G37*
G36*
G01*
X67230000Y-51150000D02*
X65930000Y-51150000D01*
G75*
G02*
X65755000Y-50975000I0J175000D01*
G01*
X65755000Y-50625000D01*
G75*
G02*
X65930000Y-50450000I175000J0D01*
G01*
X67230000Y-50450000D01*
G75*
G02*
X67405000Y-50625000I0J-175000D01*
G01*
X67405000Y-50975000D01*
G75*
G02*
X67230000Y-51150000I-175000J0D01*
G01*
G37*
G36*
G01*
X67230000Y-50150000D02*
X65930000Y-50150000D01*
G75*
G02*
X65755000Y-49975000I0J175000D01*
G01*
X65755000Y-49625000D01*
G75*
G02*
X65930000Y-49450000I175000J0D01*
G01*
X67230000Y-49450000D01*
G75*
G02*
X67405000Y-49625000I0J-175000D01*
G01*
X67405000Y-49975000D01*
G75*
G02*
X67230000Y-50150000I-175000J0D01*
G01*
G37*
G36*
G01*
X71134168Y-53750000D02*
X69775832Y-53750000D01*
G75*
G02*
X69505000Y-53479168I0J270832D01*
G01*
X69505000Y-52720832D01*
G75*
G02*
X69775832Y-52450000I270832J0D01*
G01*
X71134168Y-52450000D01*
G75*
G02*
X71405000Y-52720832I0J-270832D01*
G01*
X71405000Y-53479168D01*
G75*
G02*
X71134168Y-53750000I-270832J0D01*
G01*
G37*
G36*
G01*
X71134168Y-49150000D02*
X69775832Y-49150000D01*
G75*
G02*
X69505000Y-48879168I0J270832D01*
G01*
X69505000Y-48120832D01*
G75*
G02*
X69775832Y-47850000I270832J0D01*
G01*
X71134168Y-47850000D01*
G75*
G02*
X71405000Y-48120832I0J-270832D01*
G01*
X71405000Y-48879168D01*
G75*
G02*
X71134168Y-49150000I-270832J0D01*
G01*
G37*
%TD*%
%TO.C,C27*%
G36*
G01*
X83616500Y-91750500D02*
X83616500Y-92145500D01*
G75*
G02*
X83444000Y-92318000I-172500J0D01*
G01*
X83099000Y-92318000D01*
G75*
G02*
X82926500Y-92145500I0J172500D01*
G01*
X82926500Y-91750500D01*
G75*
G02*
X83099000Y-91578000I172500J0D01*
G01*
X83444000Y-91578000D01*
G75*
G02*
X83616500Y-91750500I0J-172500D01*
G01*
G37*
G36*
G01*
X84586500Y-91750500D02*
X84586500Y-92145500D01*
G75*
G02*
X84414000Y-92318000I-172500J0D01*
G01*
X84069000Y-92318000D01*
G75*
G02*
X83896500Y-92145500I0J172500D01*
G01*
X83896500Y-91750500D01*
G75*
G02*
X84069000Y-91578000I172500J0D01*
G01*
X84414000Y-91578000D01*
G75*
G02*
X84586500Y-91750500I0J-172500D01*
G01*
G37*
%TD*%
%TO.C,C33*%
G36*
G01*
X91891500Y-66408000D02*
X91496500Y-66408000D01*
G75*
G02*
X91324000Y-66235500I0J172500D01*
G01*
X91324000Y-65890500D01*
G75*
G02*
X91496500Y-65718000I172500J0D01*
G01*
X91891500Y-65718000D01*
G75*
G02*
X92064000Y-65890500I0J-172500D01*
G01*
X92064000Y-66235500D01*
G75*
G02*
X91891500Y-66408000I-172500J0D01*
G01*
G37*
G36*
G01*
X91891500Y-67378000D02*
X91496500Y-67378000D01*
G75*
G02*
X91324000Y-67205500I0J172500D01*
G01*
X91324000Y-66860500D01*
G75*
G02*
X91496500Y-66688000I172500J0D01*
G01*
X91891500Y-66688000D01*
G75*
G02*
X92064000Y-66860500I0J-172500D01*
G01*
X92064000Y-67205500D01*
G75*
G02*
X91891500Y-67378000I-172500J0D01*
G01*
G37*
%TD*%
%TO.C,C31*%
G36*
G01*
X80886000Y-85019500D02*
X80886000Y-85414500D01*
G75*
G02*
X80713500Y-85587000I-172500J0D01*
G01*
X80368500Y-85587000D01*
G75*
G02*
X80196000Y-85414500I0J172500D01*
G01*
X80196000Y-85019500D01*
G75*
G02*
X80368500Y-84847000I172500J0D01*
G01*
X80713500Y-84847000D01*
G75*
G02*
X80886000Y-85019500I0J-172500D01*
G01*
G37*
G36*
G01*
X81856000Y-85019500D02*
X81856000Y-85414500D01*
G75*
G02*
X81683500Y-85587000I-172500J0D01*
G01*
X81338500Y-85587000D01*
G75*
G02*
X81166000Y-85414500I0J172500D01*
G01*
X81166000Y-85019500D01*
G75*
G02*
X81338500Y-84847000I172500J0D01*
G01*
X81683500Y-84847000D01*
G75*
G02*
X81856000Y-85019500I0J-172500D01*
G01*
G37*
%TD*%
%TO.C,R12*%
G36*
G01*
X87770000Y-67253500D02*
X87770000Y-66858500D01*
G75*
G02*
X87942500Y-66686000I172500J0D01*
G01*
X88287500Y-66686000D01*
G75*
G02*
X88460000Y-66858500I0J-172500D01*
G01*
X88460000Y-67253500D01*
G75*
G02*
X88287500Y-67426000I-172500J0D01*
G01*
X87942500Y-67426000D01*
G75*
G02*
X87770000Y-67253500I0J172500D01*
G01*
G37*
G36*
G01*
X86800000Y-67253500D02*
X86800000Y-66858500D01*
G75*
G02*
X86972500Y-66686000I172500J0D01*
G01*
X87317500Y-66686000D01*
G75*
G02*
X87490000Y-66858500I0J-172500D01*
G01*
X87490000Y-67253500D01*
G75*
G02*
X87317500Y-67426000I-172500J0D01*
G01*
X86972500Y-67426000D01*
G75*
G02*
X86800000Y-67253500I0J172500D01*
G01*
G37*
%TD*%
%TO.C,R8*%
G36*
G01*
X86474000Y-64826500D02*
X86474000Y-65221500D01*
G75*
G02*
X86301500Y-65394000I-172500J0D01*
G01*
X85956500Y-65394000D01*
G75*
G02*
X85784000Y-65221500I0J172500D01*
G01*
X85784000Y-64826500D01*
G75*
G02*
X85956500Y-64654000I172500J0D01*
G01*
X86301500Y-64654000D01*
G75*
G02*
X86474000Y-64826500I0J-172500D01*
G01*
G37*
G36*
G01*
X87444000Y-64826500D02*
X87444000Y-65221500D01*
G75*
G02*
X87271500Y-65394000I-172500J0D01*
G01*
X86926500Y-65394000D01*
G75*
G02*
X86754000Y-65221500I0J172500D01*
G01*
X86754000Y-64826500D01*
G75*
G02*
X86926500Y-64654000I172500J0D01*
G01*
X87271500Y-64654000D01*
G75*
G02*
X87444000Y-64826500I0J-172500D01*
G01*
G37*
%TD*%
%TO.C,C7*%
G36*
G01*
X87770000Y-66237500D02*
X87770000Y-65842500D01*
G75*
G02*
X87942500Y-65670000I172500J0D01*
G01*
X88287500Y-65670000D01*
G75*
G02*
X88460000Y-65842500I0J-172500D01*
G01*
X88460000Y-66237500D01*
G75*
G02*
X88287500Y-66410000I-172500J0D01*
G01*
X87942500Y-66410000D01*
G75*
G02*
X87770000Y-66237500I0J172500D01*
G01*
G37*
G36*
G01*
X86800000Y-66237500D02*
X86800000Y-65842500D01*
G75*
G02*
X86972500Y-65670000I172500J0D01*
G01*
X87317500Y-65670000D01*
G75*
G02*
X87490000Y-65842500I0J-172500D01*
G01*
X87490000Y-66237500D01*
G75*
G02*
X87317500Y-66410000I-172500J0D01*
G01*
X86972500Y-66410000D01*
G75*
G02*
X86800000Y-66237500I0J172500D01*
G01*
G37*
%TD*%
%TO.C,R32*%
G36*
G01*
X37140500Y-74562000D02*
X37535500Y-74562000D01*
G75*
G02*
X37708000Y-74734500I0J-172500D01*
G01*
X37708000Y-75079500D01*
G75*
G02*
X37535500Y-75252000I-172500J0D01*
G01*
X37140500Y-75252000D01*
G75*
G02*
X36968000Y-75079500I0J172500D01*
G01*
X36968000Y-74734500D01*
G75*
G02*
X37140500Y-74562000I172500J0D01*
G01*
G37*
G36*
G01*
X37140500Y-73592000D02*
X37535500Y-73592000D01*
G75*
G02*
X37708000Y-73764500I0J-172500D01*
G01*
X37708000Y-74109500D01*
G75*
G02*
X37535500Y-74282000I-172500J0D01*
G01*
X37140500Y-74282000D01*
G75*
G02*
X36968000Y-74109500I0J172500D01*
G01*
X36968000Y-73764500D01*
G75*
G02*
X37140500Y-73592000I172500J0D01*
G01*
G37*
%TD*%
D31*
%TO.C,Y2*%
X111086000Y-80942000D03*
X111086000Y-83142000D03*
X109386000Y-83142000D03*
X109386000Y-80942000D03*
%TD*%
%TO.C,R91*%
G36*
G01*
X63697500Y-46968000D02*
X63302500Y-46968000D01*
G75*
G02*
X63130000Y-46795500I0J172500D01*
G01*
X63130000Y-46450500D01*
G75*
G02*
X63302500Y-46278000I172500J0D01*
G01*
X63697500Y-46278000D01*
G75*
G02*
X63870000Y-46450500I0J-172500D01*
G01*
X63870000Y-46795500D01*
G75*
G02*
X63697500Y-46968000I-172500J0D01*
G01*
G37*
G36*
G01*
X63697500Y-47938000D02*
X63302500Y-47938000D01*
G75*
G02*
X63130000Y-47765500I0J172500D01*
G01*
X63130000Y-47420500D01*
G75*
G02*
X63302500Y-47248000I172500J0D01*
G01*
X63697500Y-47248000D01*
G75*
G02*
X63870000Y-47420500I0J-172500D01*
G01*
X63870000Y-47765500D01*
G75*
G02*
X63697500Y-47938000I-172500J0D01*
G01*
G37*
%TD*%
%TO.C,R90*%
G36*
G01*
X54242000Y-48965500D02*
X54242000Y-48570500D01*
G75*
G02*
X54414500Y-48398000I172500J0D01*
G01*
X54759500Y-48398000D01*
G75*
G02*
X54932000Y-48570500I0J-172500D01*
G01*
X54932000Y-48965500D01*
G75*
G02*
X54759500Y-49138000I-172500J0D01*
G01*
X54414500Y-49138000D01*
G75*
G02*
X54242000Y-48965500I0J172500D01*
G01*
G37*
G36*
G01*
X53272000Y-48965500D02*
X53272000Y-48570500D01*
G75*
G02*
X53444500Y-48398000I172500J0D01*
G01*
X53789500Y-48398000D01*
G75*
G02*
X53962000Y-48570500I0J-172500D01*
G01*
X53962000Y-48965500D01*
G75*
G02*
X53789500Y-49138000I-172500J0D01*
G01*
X53444500Y-49138000D01*
G75*
G02*
X53272000Y-48965500I0J172500D01*
G01*
G37*
%TD*%
%TO.C,R89*%
G36*
G01*
X54242000Y-49918000D02*
X54242000Y-49523000D01*
G75*
G02*
X54414500Y-49350500I172500J0D01*
G01*
X54759500Y-49350500D01*
G75*
G02*
X54932000Y-49523000I0J-172500D01*
G01*
X54932000Y-49918000D01*
G75*
G02*
X54759500Y-50090500I-172500J0D01*
G01*
X54414500Y-50090500D01*
G75*
G02*
X54242000Y-49918000I0J172500D01*
G01*
G37*
G36*
G01*
X53272000Y-49918000D02*
X53272000Y-49523000D01*
G75*
G02*
X53444500Y-49350500I172500J0D01*
G01*
X53789500Y-49350500D01*
G75*
G02*
X53962000Y-49523000I0J-172500D01*
G01*
X53962000Y-49918000D01*
G75*
G02*
X53789500Y-50090500I-172500J0D01*
G01*
X53444500Y-50090500D01*
G75*
G02*
X53272000Y-49918000I0J172500D01*
G01*
G37*
%TD*%
%TO.C,R88*%
G36*
G01*
X57206500Y-47257000D02*
X57601500Y-47257000D01*
G75*
G02*
X57774000Y-47429500I0J-172500D01*
G01*
X57774000Y-47774500D01*
G75*
G02*
X57601500Y-47947000I-172500J0D01*
G01*
X57206500Y-47947000D01*
G75*
G02*
X57034000Y-47774500I0J172500D01*
G01*
X57034000Y-47429500D01*
G75*
G02*
X57206500Y-47257000I172500J0D01*
G01*
G37*
G36*
G01*
X57206500Y-46287000D02*
X57601500Y-46287000D01*
G75*
G02*
X57774000Y-46459500I0J-172500D01*
G01*
X57774000Y-46804500D01*
G75*
G02*
X57601500Y-46977000I-172500J0D01*
G01*
X57206500Y-46977000D01*
G75*
G02*
X57034000Y-46804500I0J172500D01*
G01*
X57034000Y-46459500D01*
G75*
G02*
X57206500Y-46287000I172500J0D01*
G01*
G37*
%TD*%
%TO.C,R87*%
G36*
G01*
X75127500Y-71234000D02*
X74732500Y-71234000D01*
G75*
G02*
X74560000Y-71061500I0J172500D01*
G01*
X74560000Y-70716500D01*
G75*
G02*
X74732500Y-70544000I172500J0D01*
G01*
X75127500Y-70544000D01*
G75*
G02*
X75300000Y-70716500I0J-172500D01*
G01*
X75300000Y-71061500D01*
G75*
G02*
X75127500Y-71234000I-172500J0D01*
G01*
G37*
G36*
G01*
X75127500Y-72204000D02*
X74732500Y-72204000D01*
G75*
G02*
X74560000Y-72031500I0J172500D01*
G01*
X74560000Y-71686500D01*
G75*
G02*
X74732500Y-71514000I172500J0D01*
G01*
X75127500Y-71514000D01*
G75*
G02*
X75300000Y-71686500I0J-172500D01*
G01*
X75300000Y-72031500D01*
G75*
G02*
X75127500Y-72204000I-172500J0D01*
G01*
G37*
%TD*%
%TO.C,R86*%
G36*
G01*
X76143500Y-71234000D02*
X75748500Y-71234000D01*
G75*
G02*
X75576000Y-71061500I0J172500D01*
G01*
X75576000Y-70716500D01*
G75*
G02*
X75748500Y-70544000I172500J0D01*
G01*
X76143500Y-70544000D01*
G75*
G02*
X76316000Y-70716500I0J-172500D01*
G01*
X76316000Y-71061500D01*
G75*
G02*
X76143500Y-71234000I-172500J0D01*
G01*
G37*
G36*
G01*
X76143500Y-72204000D02*
X75748500Y-72204000D01*
G75*
G02*
X75576000Y-72031500I0J172500D01*
G01*
X75576000Y-71686500D01*
G75*
G02*
X75748500Y-71514000I172500J0D01*
G01*
X76143500Y-71514000D01*
G75*
G02*
X76316000Y-71686500I0J-172500D01*
G01*
X76316000Y-72031500D01*
G75*
G02*
X76143500Y-72204000I-172500J0D01*
G01*
G37*
%TD*%
%TO.C,R85*%
G36*
G01*
X40373000Y-48189500D02*
X40373000Y-48584500D01*
G75*
G02*
X40200500Y-48757000I-172500J0D01*
G01*
X39855500Y-48757000D01*
G75*
G02*
X39683000Y-48584500I0J172500D01*
G01*
X39683000Y-48189500D01*
G75*
G02*
X39855500Y-48017000I172500J0D01*
G01*
X40200500Y-48017000D01*
G75*
G02*
X40373000Y-48189500I0J-172500D01*
G01*
G37*
G36*
G01*
X41343000Y-48189500D02*
X41343000Y-48584500D01*
G75*
G02*
X41170500Y-48757000I-172500J0D01*
G01*
X40825500Y-48757000D01*
G75*
G02*
X40653000Y-48584500I0J172500D01*
G01*
X40653000Y-48189500D01*
G75*
G02*
X40825500Y-48017000I172500J0D01*
G01*
X41170500Y-48017000D01*
G75*
G02*
X41343000Y-48189500I0J-172500D01*
G01*
G37*
%TD*%
%TO.C,R84*%
G36*
G01*
X29096000Y-48584500D02*
X29096000Y-48189500D01*
G75*
G02*
X29268500Y-48017000I172500J0D01*
G01*
X29613500Y-48017000D01*
G75*
G02*
X29786000Y-48189500I0J-172500D01*
G01*
X29786000Y-48584500D01*
G75*
G02*
X29613500Y-48757000I-172500J0D01*
G01*
X29268500Y-48757000D01*
G75*
G02*
X29096000Y-48584500I0J172500D01*
G01*
G37*
G36*
G01*
X28126000Y-48584500D02*
X28126000Y-48189500D01*
G75*
G02*
X28298500Y-48017000I172500J0D01*
G01*
X28643500Y-48017000D01*
G75*
G02*
X28816000Y-48189500I0J-172500D01*
G01*
X28816000Y-48584500D01*
G75*
G02*
X28643500Y-48757000I-172500J0D01*
G01*
X28298500Y-48757000D01*
G75*
G02*
X28126000Y-48584500I0J172500D01*
G01*
G37*
%TD*%
%TO.C,R83*%
G36*
G01*
X43447000Y-55061500D02*
X43447000Y-54666500D01*
G75*
G02*
X43619500Y-54494000I172500J0D01*
G01*
X43964500Y-54494000D01*
G75*
G02*
X44137000Y-54666500I0J-172500D01*
G01*
X44137000Y-55061500D01*
G75*
G02*
X43964500Y-55234000I-172500J0D01*
G01*
X43619500Y-55234000D01*
G75*
G02*
X43447000Y-55061500I0J172500D01*
G01*
G37*
G36*
G01*
X42477000Y-55061500D02*
X42477000Y-54666500D01*
G75*
G02*
X42649500Y-54494000I172500J0D01*
G01*
X42994500Y-54494000D01*
G75*
G02*
X43167000Y-54666500I0J-172500D01*
G01*
X43167000Y-55061500D01*
G75*
G02*
X42994500Y-55234000I-172500J0D01*
G01*
X42649500Y-55234000D01*
G75*
G02*
X42477000Y-55061500I0J172500D01*
G01*
G37*
%TD*%
%TO.C,R81*%
G36*
G01*
X80207500Y-71234000D02*
X79812500Y-71234000D01*
G75*
G02*
X79640000Y-71061500I0J172500D01*
G01*
X79640000Y-70716500D01*
G75*
G02*
X79812500Y-70544000I172500J0D01*
G01*
X80207500Y-70544000D01*
G75*
G02*
X80380000Y-70716500I0J-172500D01*
G01*
X80380000Y-71061500D01*
G75*
G02*
X80207500Y-71234000I-172500J0D01*
G01*
G37*
G36*
G01*
X80207500Y-72204000D02*
X79812500Y-72204000D01*
G75*
G02*
X79640000Y-72031500I0J172500D01*
G01*
X79640000Y-71686500D01*
G75*
G02*
X79812500Y-71514000I172500J0D01*
G01*
X80207500Y-71514000D01*
G75*
G02*
X80380000Y-71686500I0J-172500D01*
G01*
X80380000Y-72031500D01*
G75*
G02*
X80207500Y-72204000I-172500J0D01*
G01*
G37*
%TD*%
%TO.C,R82*%
G36*
G01*
X43447000Y-56077500D02*
X43447000Y-55682500D01*
G75*
G02*
X43619500Y-55510000I172500J0D01*
G01*
X43964500Y-55510000D01*
G75*
G02*
X44137000Y-55682500I0J-172500D01*
G01*
X44137000Y-56077500D01*
G75*
G02*
X43964500Y-56250000I-172500J0D01*
G01*
X43619500Y-56250000D01*
G75*
G02*
X43447000Y-56077500I0J172500D01*
G01*
G37*
G36*
G01*
X42477000Y-56077500D02*
X42477000Y-55682500D01*
G75*
G02*
X42649500Y-55510000I172500J0D01*
G01*
X42994500Y-55510000D01*
G75*
G02*
X43167000Y-55682500I0J-172500D01*
G01*
X43167000Y-56077500D01*
G75*
G02*
X42994500Y-56250000I-172500J0D01*
G01*
X42649500Y-56250000D01*
G75*
G02*
X42477000Y-56077500I0J172500D01*
G01*
G37*
%TD*%
%TO.C,R76*%
G36*
G01*
X110503000Y-66110500D02*
X110503000Y-65715500D01*
G75*
G02*
X110675500Y-65543000I172500J0D01*
G01*
X111020500Y-65543000D01*
G75*
G02*
X111193000Y-65715500I0J-172500D01*
G01*
X111193000Y-66110500D01*
G75*
G02*
X111020500Y-66283000I-172500J0D01*
G01*
X110675500Y-66283000D01*
G75*
G02*
X110503000Y-66110500I0J172500D01*
G01*
G37*
G36*
G01*
X109533000Y-66110500D02*
X109533000Y-65715500D01*
G75*
G02*
X109705500Y-65543000I172500J0D01*
G01*
X110050500Y-65543000D01*
G75*
G02*
X110223000Y-65715500I0J-172500D01*
G01*
X110223000Y-66110500D01*
G75*
G02*
X110050500Y-66283000I-172500J0D01*
G01*
X109705500Y-66283000D01*
G75*
G02*
X109533000Y-66110500I0J172500D01*
G01*
G37*
%TD*%
%TO.C,R75*%
G36*
G01*
X110503000Y-67126500D02*
X110503000Y-66731500D01*
G75*
G02*
X110675500Y-66559000I172500J0D01*
G01*
X111020500Y-66559000D01*
G75*
G02*
X111193000Y-66731500I0J-172500D01*
G01*
X111193000Y-67126500D01*
G75*
G02*
X111020500Y-67299000I-172500J0D01*
G01*
X110675500Y-67299000D01*
G75*
G02*
X110503000Y-67126500I0J172500D01*
G01*
G37*
G36*
G01*
X109533000Y-67126500D02*
X109533000Y-66731500D01*
G75*
G02*
X109705500Y-66559000I172500J0D01*
G01*
X110050500Y-66559000D01*
G75*
G02*
X110223000Y-66731500I0J-172500D01*
G01*
X110223000Y-67126500D01*
G75*
G02*
X110050500Y-67299000I-172500J0D01*
G01*
X109705500Y-67299000D01*
G75*
G02*
X109533000Y-67126500I0J172500D01*
G01*
G37*
%TD*%
%TO.C,R74*%
G36*
G01*
X111068500Y-68821000D02*
X110673500Y-68821000D01*
G75*
G02*
X110501000Y-68648500I0J172500D01*
G01*
X110501000Y-68303500D01*
G75*
G02*
X110673500Y-68131000I172500J0D01*
G01*
X111068500Y-68131000D01*
G75*
G02*
X111241000Y-68303500I0J-172500D01*
G01*
X111241000Y-68648500D01*
G75*
G02*
X111068500Y-68821000I-172500J0D01*
G01*
G37*
G36*
G01*
X111068500Y-69791000D02*
X110673500Y-69791000D01*
G75*
G02*
X110501000Y-69618500I0J172500D01*
G01*
X110501000Y-69273500D01*
G75*
G02*
X110673500Y-69101000I172500J0D01*
G01*
X111068500Y-69101000D01*
G75*
G02*
X111241000Y-69273500I0J-172500D01*
G01*
X111241000Y-69618500D01*
G75*
G02*
X111068500Y-69791000I-172500J0D01*
G01*
G37*
%TD*%
%TO.C,R73*%
G36*
G01*
X110503000Y-71190500D02*
X110503000Y-70795500D01*
G75*
G02*
X110675500Y-70623000I172500J0D01*
G01*
X111020500Y-70623000D01*
G75*
G02*
X111193000Y-70795500I0J-172500D01*
G01*
X111193000Y-71190500D01*
G75*
G02*
X111020500Y-71363000I-172500J0D01*
G01*
X110675500Y-71363000D01*
G75*
G02*
X110503000Y-71190500I0J172500D01*
G01*
G37*
G36*
G01*
X109533000Y-71190500D02*
X109533000Y-70795500D01*
G75*
G02*
X109705500Y-70623000I172500J0D01*
G01*
X110050500Y-70623000D01*
G75*
G02*
X110223000Y-70795500I0J-172500D01*
G01*
X110223000Y-71190500D01*
G75*
G02*
X110050500Y-71363000I-172500J0D01*
G01*
X109705500Y-71363000D01*
G75*
G02*
X109533000Y-71190500I0J172500D01*
G01*
G37*
%TD*%
%TO.C,R80*%
G36*
G01*
X43447000Y-57601500D02*
X43447000Y-57206500D01*
G75*
G02*
X43619500Y-57034000I172500J0D01*
G01*
X43964500Y-57034000D01*
G75*
G02*
X44137000Y-57206500I0J-172500D01*
G01*
X44137000Y-57601500D01*
G75*
G02*
X43964500Y-57774000I-172500J0D01*
G01*
X43619500Y-57774000D01*
G75*
G02*
X43447000Y-57601500I0J172500D01*
G01*
G37*
G36*
G01*
X42477000Y-57601500D02*
X42477000Y-57206500D01*
G75*
G02*
X42649500Y-57034000I172500J0D01*
G01*
X42994500Y-57034000D01*
G75*
G02*
X43167000Y-57206500I0J-172500D01*
G01*
X43167000Y-57601500D01*
G75*
G02*
X42994500Y-57774000I-172500J0D01*
G01*
X42649500Y-57774000D01*
G75*
G02*
X42477000Y-57601500I0J172500D01*
G01*
G37*
%TD*%
%TO.C,R79*%
G36*
G01*
X43447000Y-58617500D02*
X43447000Y-58222500D01*
G75*
G02*
X43619500Y-58050000I172500J0D01*
G01*
X43964500Y-58050000D01*
G75*
G02*
X44137000Y-58222500I0J-172500D01*
G01*
X44137000Y-58617500D01*
G75*
G02*
X43964500Y-58790000I-172500J0D01*
G01*
X43619500Y-58790000D01*
G75*
G02*
X43447000Y-58617500I0J172500D01*
G01*
G37*
G36*
G01*
X42477000Y-58617500D02*
X42477000Y-58222500D01*
G75*
G02*
X42649500Y-58050000I172500J0D01*
G01*
X42994500Y-58050000D01*
G75*
G02*
X43167000Y-58222500I0J-172500D01*
G01*
X43167000Y-58617500D01*
G75*
G02*
X42994500Y-58790000I-172500J0D01*
G01*
X42649500Y-58790000D01*
G75*
G02*
X42477000Y-58617500I0J172500D01*
G01*
G37*
%TD*%
%TO.C,R78*%
G36*
G01*
X28435000Y-64953500D02*
X28435000Y-65348500D01*
G75*
G02*
X28262500Y-65521000I-172500J0D01*
G01*
X27917500Y-65521000D01*
G75*
G02*
X27745000Y-65348500I0J172500D01*
G01*
X27745000Y-64953500D01*
G75*
G02*
X27917500Y-64781000I172500J0D01*
G01*
X28262500Y-64781000D01*
G75*
G02*
X28435000Y-64953500I0J-172500D01*
G01*
G37*
G36*
G01*
X29405000Y-64953500D02*
X29405000Y-65348500D01*
G75*
G02*
X29232500Y-65521000I-172500J0D01*
G01*
X28887500Y-65521000D01*
G75*
G02*
X28715000Y-65348500I0J172500D01*
G01*
X28715000Y-64953500D01*
G75*
G02*
X28887500Y-64781000I172500J0D01*
G01*
X29232500Y-64781000D01*
G75*
G02*
X29405000Y-64953500I0J-172500D01*
G01*
G37*
%TD*%
%TO.C,R77*%
G36*
G01*
X43447000Y-59633500D02*
X43447000Y-59238500D01*
G75*
G02*
X43619500Y-59066000I172500J0D01*
G01*
X43964500Y-59066000D01*
G75*
G02*
X44137000Y-59238500I0J-172500D01*
G01*
X44137000Y-59633500D01*
G75*
G02*
X43964500Y-59806000I-172500J0D01*
G01*
X43619500Y-59806000D01*
G75*
G02*
X43447000Y-59633500I0J172500D01*
G01*
G37*
G36*
G01*
X42477000Y-59633500D02*
X42477000Y-59238500D01*
G75*
G02*
X42649500Y-59066000I172500J0D01*
G01*
X42994500Y-59066000D01*
G75*
G02*
X43167000Y-59238500I0J-172500D01*
G01*
X43167000Y-59633500D01*
G75*
G02*
X42994500Y-59806000I-172500J0D01*
G01*
X42649500Y-59806000D01*
G75*
G02*
X42477000Y-59633500I0J172500D01*
G01*
G37*
%TD*%
%TO.C,R71*%
G36*
G01*
X63894000Y-77667500D02*
X63894000Y-77272500D01*
G75*
G02*
X64066500Y-77100000I172500J0D01*
G01*
X64411500Y-77100000D01*
G75*
G02*
X64584000Y-77272500I0J-172500D01*
G01*
X64584000Y-77667500D01*
G75*
G02*
X64411500Y-77840000I-172500J0D01*
G01*
X64066500Y-77840000D01*
G75*
G02*
X63894000Y-77667500I0J172500D01*
G01*
G37*
G36*
G01*
X62924000Y-77667500D02*
X62924000Y-77272500D01*
G75*
G02*
X63096500Y-77100000I172500J0D01*
G01*
X63441500Y-77100000D01*
G75*
G02*
X63614000Y-77272500I0J-172500D01*
G01*
X63614000Y-77667500D01*
G75*
G02*
X63441500Y-77840000I-172500J0D01*
G01*
X63096500Y-77840000D01*
G75*
G02*
X62924000Y-77667500I0J172500D01*
G01*
G37*
%TD*%
%TO.C,R72*%
G36*
G01*
X43447000Y-61411500D02*
X43447000Y-61016500D01*
G75*
G02*
X43619500Y-60844000I172500J0D01*
G01*
X43964500Y-60844000D01*
G75*
G02*
X44137000Y-61016500I0J-172500D01*
G01*
X44137000Y-61411500D01*
G75*
G02*
X43964500Y-61584000I-172500J0D01*
G01*
X43619500Y-61584000D01*
G75*
G02*
X43447000Y-61411500I0J172500D01*
G01*
G37*
G36*
G01*
X42477000Y-61411500D02*
X42477000Y-61016500D01*
G75*
G02*
X42649500Y-60844000I172500J0D01*
G01*
X42994500Y-60844000D01*
G75*
G02*
X43167000Y-61016500I0J-172500D01*
G01*
X43167000Y-61411500D01*
G75*
G02*
X42994500Y-61584000I-172500J0D01*
G01*
X42649500Y-61584000D01*
G75*
G02*
X42477000Y-61411500I0J172500D01*
G01*
G37*
%TD*%
%TO.C,R64*%
G36*
G01*
X38156500Y-74562000D02*
X38551500Y-74562000D01*
G75*
G02*
X38724000Y-74734500I0J-172500D01*
G01*
X38724000Y-75079500D01*
G75*
G02*
X38551500Y-75252000I-172500J0D01*
G01*
X38156500Y-75252000D01*
G75*
G02*
X37984000Y-75079500I0J172500D01*
G01*
X37984000Y-74734500D01*
G75*
G02*
X38156500Y-74562000I172500J0D01*
G01*
G37*
G36*
G01*
X38156500Y-73592000D02*
X38551500Y-73592000D01*
G75*
G02*
X38724000Y-73764500I0J-172500D01*
G01*
X38724000Y-74109500D01*
G75*
G02*
X38551500Y-74282000I-172500J0D01*
G01*
X38156500Y-74282000D01*
G75*
G02*
X37984000Y-74109500I0J172500D01*
G01*
X37984000Y-73764500D01*
G75*
G02*
X38156500Y-73592000I172500J0D01*
G01*
G37*
%TD*%
%TO.C,R70*%
G36*
G01*
X67424000Y-71176500D02*
X67424000Y-71571500D01*
G75*
G02*
X67251500Y-71744000I-172500J0D01*
G01*
X66906500Y-71744000D01*
G75*
G02*
X66734000Y-71571500I0J172500D01*
G01*
X66734000Y-71176500D01*
G75*
G02*
X66906500Y-71004000I172500J0D01*
G01*
X67251500Y-71004000D01*
G75*
G02*
X67424000Y-71176500I0J-172500D01*
G01*
G37*
G36*
G01*
X68394000Y-71176500D02*
X68394000Y-71571500D01*
G75*
G02*
X68221500Y-71744000I-172500J0D01*
G01*
X67876500Y-71744000D01*
G75*
G02*
X67704000Y-71571500I0J172500D01*
G01*
X67704000Y-71176500D01*
G75*
G02*
X67876500Y-71004000I172500J0D01*
G01*
X68221500Y-71004000D01*
G75*
G02*
X68394000Y-71176500I0J-172500D01*
G01*
G37*
%TD*%
%TO.C,R63*%
G36*
G01*
X39567500Y-74282000D02*
X39172500Y-74282000D01*
G75*
G02*
X39000000Y-74109500I0J172500D01*
G01*
X39000000Y-73764500D01*
G75*
G02*
X39172500Y-73592000I172500J0D01*
G01*
X39567500Y-73592000D01*
G75*
G02*
X39740000Y-73764500I0J-172500D01*
G01*
X39740000Y-74109500D01*
G75*
G02*
X39567500Y-74282000I-172500J0D01*
G01*
G37*
G36*
G01*
X39567500Y-75252000D02*
X39172500Y-75252000D01*
G75*
G02*
X39000000Y-75079500I0J172500D01*
G01*
X39000000Y-74734500D01*
G75*
G02*
X39172500Y-74562000I172500J0D01*
G01*
X39567500Y-74562000D01*
G75*
G02*
X39740000Y-74734500I0J-172500D01*
G01*
X39740000Y-75079500D01*
G75*
G02*
X39567500Y-75252000I-172500J0D01*
G01*
G37*
%TD*%
%TO.C,R62*%
G36*
G01*
X43802000Y-71938500D02*
X43802000Y-72333500D01*
G75*
G02*
X43629500Y-72506000I-172500J0D01*
G01*
X43284500Y-72506000D01*
G75*
G02*
X43112000Y-72333500I0J172500D01*
G01*
X43112000Y-71938500D01*
G75*
G02*
X43284500Y-71766000I172500J0D01*
G01*
X43629500Y-71766000D01*
G75*
G02*
X43802000Y-71938500I0J-172500D01*
G01*
G37*
G36*
G01*
X44772000Y-71938500D02*
X44772000Y-72333500D01*
G75*
G02*
X44599500Y-72506000I-172500J0D01*
G01*
X44254500Y-72506000D01*
G75*
G02*
X44082000Y-72333500I0J172500D01*
G01*
X44082000Y-71938500D01*
G75*
G02*
X44254500Y-71766000I172500J0D01*
G01*
X44599500Y-71766000D01*
G75*
G02*
X44772000Y-71938500I0J-172500D01*
G01*
G37*
%TD*%
%TO.C,R68*%
G36*
G01*
X110526000Y-74238500D02*
X110526000Y-73843500D01*
G75*
G02*
X110698500Y-73671000I172500J0D01*
G01*
X111043500Y-73671000D01*
G75*
G02*
X111216000Y-73843500I0J-172500D01*
G01*
X111216000Y-74238500D01*
G75*
G02*
X111043500Y-74411000I-172500J0D01*
G01*
X110698500Y-74411000D01*
G75*
G02*
X110526000Y-74238500I0J172500D01*
G01*
G37*
G36*
G01*
X109556000Y-74238500D02*
X109556000Y-73843500D01*
G75*
G02*
X109728500Y-73671000I172500J0D01*
G01*
X110073500Y-73671000D01*
G75*
G02*
X110246000Y-73843500I0J-172500D01*
G01*
X110246000Y-74238500D01*
G75*
G02*
X110073500Y-74411000I-172500J0D01*
G01*
X109728500Y-74411000D01*
G75*
G02*
X109556000Y-74238500I0J172500D01*
G01*
G37*
%TD*%
%TO.C,R67*%
G36*
G01*
X110503000Y-62808500D02*
X110503000Y-62413500D01*
G75*
G02*
X110675500Y-62241000I172500J0D01*
G01*
X111020500Y-62241000D01*
G75*
G02*
X111193000Y-62413500I0J-172500D01*
G01*
X111193000Y-62808500D01*
G75*
G02*
X111020500Y-62981000I-172500J0D01*
G01*
X110675500Y-62981000D01*
G75*
G02*
X110503000Y-62808500I0J172500D01*
G01*
G37*
G36*
G01*
X109533000Y-62808500D02*
X109533000Y-62413500D01*
G75*
G02*
X109705500Y-62241000I172500J0D01*
G01*
X110050500Y-62241000D01*
G75*
G02*
X110223000Y-62413500I0J-172500D01*
G01*
X110223000Y-62808500D01*
G75*
G02*
X110050500Y-62981000I-172500J0D01*
G01*
X109705500Y-62981000D01*
G75*
G02*
X109533000Y-62808500I0J172500D01*
G01*
G37*
%TD*%
%TO.C,R65*%
G36*
G01*
X114243500Y-83934000D02*
X113848500Y-83934000D01*
G75*
G02*
X113676000Y-83761500I0J172500D01*
G01*
X113676000Y-83416500D01*
G75*
G02*
X113848500Y-83244000I172500J0D01*
G01*
X114243500Y-83244000D01*
G75*
G02*
X114416000Y-83416500I0J-172500D01*
G01*
X114416000Y-83761500D01*
G75*
G02*
X114243500Y-83934000I-172500J0D01*
G01*
G37*
G36*
G01*
X114243500Y-84904000D02*
X113848500Y-84904000D01*
G75*
G02*
X113676000Y-84731500I0J172500D01*
G01*
X113676000Y-84386500D01*
G75*
G02*
X113848500Y-84214000I172500J0D01*
G01*
X114243500Y-84214000D01*
G75*
G02*
X114416000Y-84386500I0J-172500D01*
G01*
X114416000Y-84731500D01*
G75*
G02*
X114243500Y-84904000I-172500J0D01*
G01*
G37*
%TD*%
%TO.C,R60*%
G36*
G01*
X45663500Y-75044000D02*
X45268500Y-75044000D01*
G75*
G02*
X45096000Y-74871500I0J172500D01*
G01*
X45096000Y-74526500D01*
G75*
G02*
X45268500Y-74354000I172500J0D01*
G01*
X45663500Y-74354000D01*
G75*
G02*
X45836000Y-74526500I0J-172500D01*
G01*
X45836000Y-74871500D01*
G75*
G02*
X45663500Y-75044000I-172500J0D01*
G01*
G37*
G36*
G01*
X45663500Y-76014000D02*
X45268500Y-76014000D01*
G75*
G02*
X45096000Y-75841500I0J172500D01*
G01*
X45096000Y-75496500D01*
G75*
G02*
X45268500Y-75324000I172500J0D01*
G01*
X45663500Y-75324000D01*
G75*
G02*
X45836000Y-75496500I0J-172500D01*
G01*
X45836000Y-75841500D01*
G75*
G02*
X45663500Y-76014000I-172500J0D01*
G01*
G37*
%TD*%
%TO.C,R59*%
G36*
G01*
X45663500Y-73012000D02*
X45268500Y-73012000D01*
G75*
G02*
X45096000Y-72839500I0J172500D01*
G01*
X45096000Y-72494500D01*
G75*
G02*
X45268500Y-72322000I172500J0D01*
G01*
X45663500Y-72322000D01*
G75*
G02*
X45836000Y-72494500I0J-172500D01*
G01*
X45836000Y-72839500D01*
G75*
G02*
X45663500Y-73012000I-172500J0D01*
G01*
G37*
G36*
G01*
X45663500Y-73982000D02*
X45268500Y-73982000D01*
G75*
G02*
X45096000Y-73809500I0J172500D01*
G01*
X45096000Y-73464500D01*
G75*
G02*
X45268500Y-73292000I172500J0D01*
G01*
X45663500Y-73292000D01*
G75*
G02*
X45836000Y-73464500I0J-172500D01*
G01*
X45836000Y-73809500D01*
G75*
G02*
X45663500Y-73982000I-172500J0D01*
G01*
G37*
%TD*%
%TO.C,R57*%
G36*
G01*
X73546000Y-41980500D02*
X73546000Y-41585500D01*
G75*
G02*
X73718500Y-41413000I172500J0D01*
G01*
X74063500Y-41413000D01*
G75*
G02*
X74236000Y-41585500I0J-172500D01*
G01*
X74236000Y-41980500D01*
G75*
G02*
X74063500Y-42153000I-172500J0D01*
G01*
X73718500Y-42153000D01*
G75*
G02*
X73546000Y-41980500I0J172500D01*
G01*
G37*
G36*
G01*
X72576000Y-41980500D02*
X72576000Y-41585500D01*
G75*
G02*
X72748500Y-41413000I172500J0D01*
G01*
X73093500Y-41413000D01*
G75*
G02*
X73266000Y-41585500I0J-172500D01*
G01*
X73266000Y-41980500D01*
G75*
G02*
X73093500Y-42153000I-172500J0D01*
G01*
X72748500Y-42153000D01*
G75*
G02*
X72576000Y-41980500I0J172500D01*
G01*
G37*
%TD*%
%TO.C,R56*%
G36*
G01*
X73546000Y-40583500D02*
X73546000Y-40188500D01*
G75*
G02*
X73718500Y-40016000I172500J0D01*
G01*
X74063500Y-40016000D01*
G75*
G02*
X74236000Y-40188500I0J-172500D01*
G01*
X74236000Y-40583500D01*
G75*
G02*
X74063500Y-40756000I-172500J0D01*
G01*
X73718500Y-40756000D01*
G75*
G02*
X73546000Y-40583500I0J172500D01*
G01*
G37*
G36*
G01*
X72576000Y-40583500D02*
X72576000Y-40188500D01*
G75*
G02*
X72748500Y-40016000I172500J0D01*
G01*
X73093500Y-40016000D01*
G75*
G02*
X73266000Y-40188500I0J-172500D01*
G01*
X73266000Y-40583500D01*
G75*
G02*
X73093500Y-40756000I-172500J0D01*
G01*
X72748500Y-40756000D01*
G75*
G02*
X72576000Y-40583500I0J172500D01*
G01*
G37*
%TD*%
%TO.C,R55*%
G36*
G01*
X73546000Y-39567500D02*
X73546000Y-39172500D01*
G75*
G02*
X73718500Y-39000000I172500J0D01*
G01*
X74063500Y-39000000D01*
G75*
G02*
X74236000Y-39172500I0J-172500D01*
G01*
X74236000Y-39567500D01*
G75*
G02*
X74063500Y-39740000I-172500J0D01*
G01*
X73718500Y-39740000D01*
G75*
G02*
X73546000Y-39567500I0J172500D01*
G01*
G37*
G36*
G01*
X72576000Y-39567500D02*
X72576000Y-39172500D01*
G75*
G02*
X72748500Y-39000000I172500J0D01*
G01*
X73093500Y-39000000D01*
G75*
G02*
X73266000Y-39172500I0J-172500D01*
G01*
X73266000Y-39567500D01*
G75*
G02*
X73093500Y-39740000I-172500J0D01*
G01*
X72748500Y-39740000D01*
G75*
G02*
X72576000Y-39567500I0J172500D01*
G01*
G37*
%TD*%
%TO.C,R54*%
G36*
G01*
X84779500Y-33896000D02*
X84384500Y-33896000D01*
G75*
G02*
X84212000Y-33723500I0J172500D01*
G01*
X84212000Y-33378500D01*
G75*
G02*
X84384500Y-33206000I172500J0D01*
G01*
X84779500Y-33206000D01*
G75*
G02*
X84952000Y-33378500I0J-172500D01*
G01*
X84952000Y-33723500D01*
G75*
G02*
X84779500Y-33896000I-172500J0D01*
G01*
G37*
G36*
G01*
X84779500Y-34866000D02*
X84384500Y-34866000D01*
G75*
G02*
X84212000Y-34693500I0J172500D01*
G01*
X84212000Y-34348500D01*
G75*
G02*
X84384500Y-34176000I172500J0D01*
G01*
X84779500Y-34176000D01*
G75*
G02*
X84952000Y-34348500I0J-172500D01*
G01*
X84952000Y-34693500D01*
G75*
G02*
X84779500Y-34866000I-172500J0D01*
G01*
G37*
%TD*%
%TO.C,R52*%
G36*
G01*
X73546000Y-42996500D02*
X73546000Y-42601500D01*
G75*
G02*
X73718500Y-42429000I172500J0D01*
G01*
X74063500Y-42429000D01*
G75*
G02*
X74236000Y-42601500I0J-172500D01*
G01*
X74236000Y-42996500D01*
G75*
G02*
X74063500Y-43169000I-172500J0D01*
G01*
X73718500Y-43169000D01*
G75*
G02*
X73546000Y-42996500I0J172500D01*
G01*
G37*
G36*
G01*
X72576000Y-42996500D02*
X72576000Y-42601500D01*
G75*
G02*
X72748500Y-42429000I172500J0D01*
G01*
X73093500Y-42429000D01*
G75*
G02*
X73266000Y-42601500I0J-172500D01*
G01*
X73266000Y-42996500D01*
G75*
G02*
X73093500Y-43169000I-172500J0D01*
G01*
X72748500Y-43169000D01*
G75*
G02*
X72576000Y-42996500I0J172500D01*
G01*
G37*
%TD*%
%TO.C,R49*%
G36*
G01*
X84087000Y-49727500D02*
X84087000Y-49332500D01*
G75*
G02*
X84259500Y-49160000I172500J0D01*
G01*
X84604500Y-49160000D01*
G75*
G02*
X84777000Y-49332500I0J-172500D01*
G01*
X84777000Y-49727500D01*
G75*
G02*
X84604500Y-49900000I-172500J0D01*
G01*
X84259500Y-49900000D01*
G75*
G02*
X84087000Y-49727500I0J172500D01*
G01*
G37*
G36*
G01*
X83117000Y-49727500D02*
X83117000Y-49332500D01*
G75*
G02*
X83289500Y-49160000I172500J0D01*
G01*
X83634500Y-49160000D01*
G75*
G02*
X83807000Y-49332500I0J-172500D01*
G01*
X83807000Y-49727500D01*
G75*
G02*
X83634500Y-49900000I-172500J0D01*
G01*
X83289500Y-49900000D01*
G75*
G02*
X83117000Y-49727500I0J172500D01*
G01*
G37*
%TD*%
%TO.C,R48*%
G36*
G01*
X88252000Y-49523000D02*
X88252000Y-49918000D01*
G75*
G02*
X88079500Y-50090500I-172500J0D01*
G01*
X87734500Y-50090500D01*
G75*
G02*
X87562000Y-49918000I0J172500D01*
G01*
X87562000Y-49523000D01*
G75*
G02*
X87734500Y-49350500I172500J0D01*
G01*
X88079500Y-49350500D01*
G75*
G02*
X88252000Y-49523000I0J-172500D01*
G01*
G37*
G36*
G01*
X89222000Y-49523000D02*
X89222000Y-49918000D01*
G75*
G02*
X89049500Y-50090500I-172500J0D01*
G01*
X88704500Y-50090500D01*
G75*
G02*
X88532000Y-49918000I0J172500D01*
G01*
X88532000Y-49523000D01*
G75*
G02*
X88704500Y-49350500I172500J0D01*
G01*
X89049500Y-49350500D01*
G75*
G02*
X89222000Y-49523000I0J-172500D01*
G01*
G37*
%TD*%
%TO.C,R47*%
G36*
G01*
X34473500Y-65418000D02*
X34868500Y-65418000D01*
G75*
G02*
X35041000Y-65590500I0J-172500D01*
G01*
X35041000Y-65935500D01*
G75*
G02*
X34868500Y-66108000I-172500J0D01*
G01*
X34473500Y-66108000D01*
G75*
G02*
X34301000Y-65935500I0J172500D01*
G01*
X34301000Y-65590500D01*
G75*
G02*
X34473500Y-65418000I172500J0D01*
G01*
G37*
G36*
G01*
X34473500Y-64448000D02*
X34868500Y-64448000D01*
G75*
G02*
X35041000Y-64620500I0J-172500D01*
G01*
X35041000Y-64965500D01*
G75*
G02*
X34868500Y-65138000I-172500J0D01*
G01*
X34473500Y-65138000D01*
G75*
G02*
X34301000Y-64965500I0J172500D01*
G01*
X34301000Y-64620500D01*
G75*
G02*
X34473500Y-64448000I172500J0D01*
G01*
G37*
%TD*%
%TO.C,R46*%
G36*
G01*
X78683500Y-35928000D02*
X78288500Y-35928000D01*
G75*
G02*
X78116000Y-35755500I0J172500D01*
G01*
X78116000Y-35410500D01*
G75*
G02*
X78288500Y-35238000I172500J0D01*
G01*
X78683500Y-35238000D01*
G75*
G02*
X78856000Y-35410500I0J-172500D01*
G01*
X78856000Y-35755500D01*
G75*
G02*
X78683500Y-35928000I-172500J0D01*
G01*
G37*
G36*
G01*
X78683500Y-36898000D02*
X78288500Y-36898000D01*
G75*
G02*
X78116000Y-36725500I0J172500D01*
G01*
X78116000Y-36380500D01*
G75*
G02*
X78288500Y-36208000I172500J0D01*
G01*
X78683500Y-36208000D01*
G75*
G02*
X78856000Y-36380500I0J-172500D01*
G01*
X78856000Y-36725500D01*
G75*
G02*
X78683500Y-36898000I-172500J0D01*
G01*
G37*
%TD*%
%TO.C,R44*%
G36*
G01*
X78854000Y-32314500D02*
X78854000Y-32709500D01*
G75*
G02*
X78681500Y-32882000I-172500J0D01*
G01*
X78336500Y-32882000D01*
G75*
G02*
X78164000Y-32709500I0J172500D01*
G01*
X78164000Y-32314500D01*
G75*
G02*
X78336500Y-32142000I172500J0D01*
G01*
X78681500Y-32142000D01*
G75*
G02*
X78854000Y-32314500I0J-172500D01*
G01*
G37*
G36*
G01*
X79824000Y-32314500D02*
X79824000Y-32709500D01*
G75*
G02*
X79651500Y-32882000I-172500J0D01*
G01*
X79306500Y-32882000D01*
G75*
G02*
X79134000Y-32709500I0J172500D01*
G01*
X79134000Y-32314500D01*
G75*
G02*
X79306500Y-32142000I172500J0D01*
G01*
X79651500Y-32142000D01*
G75*
G02*
X79824000Y-32314500I0J-172500D01*
G01*
G37*
%TD*%
%TO.C,R43*%
G36*
G01*
X90220500Y-48507000D02*
X90220500Y-48902000D01*
G75*
G02*
X90048000Y-49074500I-172500J0D01*
G01*
X89703000Y-49074500D01*
G75*
G02*
X89530500Y-48902000I0J172500D01*
G01*
X89530500Y-48507000D01*
G75*
G02*
X89703000Y-48334500I172500J0D01*
G01*
X90048000Y-48334500D01*
G75*
G02*
X90220500Y-48507000I0J-172500D01*
G01*
G37*
G36*
G01*
X91190500Y-48507000D02*
X91190500Y-48902000D01*
G75*
G02*
X91018000Y-49074500I-172500J0D01*
G01*
X90673000Y-49074500D01*
G75*
G02*
X90500500Y-48902000I0J172500D01*
G01*
X90500500Y-48507000D01*
G75*
G02*
X90673000Y-48334500I172500J0D01*
G01*
X91018000Y-48334500D01*
G75*
G02*
X91190500Y-48507000I0J-172500D01*
G01*
G37*
%TD*%
%TO.C,R41*%
G36*
G01*
X79699500Y-33896000D02*
X79304500Y-33896000D01*
G75*
G02*
X79132000Y-33723500I0J172500D01*
G01*
X79132000Y-33378500D01*
G75*
G02*
X79304500Y-33206000I172500J0D01*
G01*
X79699500Y-33206000D01*
G75*
G02*
X79872000Y-33378500I0J-172500D01*
G01*
X79872000Y-33723500D01*
G75*
G02*
X79699500Y-33896000I-172500J0D01*
G01*
G37*
G36*
G01*
X79699500Y-34866000D02*
X79304500Y-34866000D01*
G75*
G02*
X79132000Y-34693500I0J172500D01*
G01*
X79132000Y-34348500D01*
G75*
G02*
X79304500Y-34176000I172500J0D01*
G01*
X79699500Y-34176000D01*
G75*
G02*
X79872000Y-34348500I0J-172500D01*
G01*
X79872000Y-34693500D01*
G75*
G02*
X79699500Y-34866000I-172500J0D01*
G01*
G37*
%TD*%
%TO.C,R40*%
G36*
G01*
X78683500Y-33896000D02*
X78288500Y-33896000D01*
G75*
G02*
X78116000Y-33723500I0J172500D01*
G01*
X78116000Y-33378500D01*
G75*
G02*
X78288500Y-33206000I172500J0D01*
G01*
X78683500Y-33206000D01*
G75*
G02*
X78856000Y-33378500I0J-172500D01*
G01*
X78856000Y-33723500D01*
G75*
G02*
X78683500Y-33896000I-172500J0D01*
G01*
G37*
G36*
G01*
X78683500Y-34866000D02*
X78288500Y-34866000D01*
G75*
G02*
X78116000Y-34693500I0J172500D01*
G01*
X78116000Y-34348500D01*
G75*
G02*
X78288500Y-34176000I172500J0D01*
G01*
X78683500Y-34176000D01*
G75*
G02*
X78856000Y-34348500I0J-172500D01*
G01*
X78856000Y-34693500D01*
G75*
G02*
X78683500Y-34866000I-172500J0D01*
G01*
G37*
%TD*%
%TO.C,R39*%
G36*
G01*
X82493500Y-90284000D02*
X82098500Y-90284000D01*
G75*
G02*
X81926000Y-90111500I0J172500D01*
G01*
X81926000Y-89766500D01*
G75*
G02*
X82098500Y-89594000I172500J0D01*
G01*
X82493500Y-89594000D01*
G75*
G02*
X82666000Y-89766500I0J-172500D01*
G01*
X82666000Y-90111500D01*
G75*
G02*
X82493500Y-90284000I-172500J0D01*
G01*
G37*
G36*
G01*
X82493500Y-91254000D02*
X82098500Y-91254000D01*
G75*
G02*
X81926000Y-91081500I0J172500D01*
G01*
X81926000Y-90736500D01*
G75*
G02*
X82098500Y-90564000I172500J0D01*
G01*
X82493500Y-90564000D01*
G75*
G02*
X82666000Y-90736500I0J-172500D01*
G01*
X82666000Y-91081500D01*
G75*
G02*
X82493500Y-91254000I-172500J0D01*
G01*
G37*
%TD*%
%TO.C,R38*%
G36*
G01*
X98285000Y-28377500D02*
X98285000Y-28772500D01*
G75*
G02*
X98112500Y-28945000I-172500J0D01*
G01*
X97767500Y-28945000D01*
G75*
G02*
X97595000Y-28772500I0J172500D01*
G01*
X97595000Y-28377500D01*
G75*
G02*
X97767500Y-28205000I172500J0D01*
G01*
X98112500Y-28205000D01*
G75*
G02*
X98285000Y-28377500I0J-172500D01*
G01*
G37*
G36*
G01*
X99255000Y-28377500D02*
X99255000Y-28772500D01*
G75*
G02*
X99082500Y-28945000I-172500J0D01*
G01*
X98737500Y-28945000D01*
G75*
G02*
X98565000Y-28772500I0J172500D01*
G01*
X98565000Y-28377500D01*
G75*
G02*
X98737500Y-28205000I172500J0D01*
G01*
X99082500Y-28205000D01*
G75*
G02*
X99255000Y-28377500I0J-172500D01*
G01*
G37*
%TD*%
%TO.C,R34*%
G36*
G01*
X100190000Y-28377500D02*
X100190000Y-28772500D01*
G75*
G02*
X100017500Y-28945000I-172500J0D01*
G01*
X99672500Y-28945000D01*
G75*
G02*
X99500000Y-28772500I0J172500D01*
G01*
X99500000Y-28377500D01*
G75*
G02*
X99672500Y-28205000I172500J0D01*
G01*
X100017500Y-28205000D01*
G75*
G02*
X100190000Y-28377500I0J-172500D01*
G01*
G37*
G36*
G01*
X101160000Y-28377500D02*
X101160000Y-28772500D01*
G75*
G02*
X100987500Y-28945000I-172500J0D01*
G01*
X100642500Y-28945000D01*
G75*
G02*
X100470000Y-28772500I0J172500D01*
G01*
X100470000Y-28377500D01*
G75*
G02*
X100642500Y-28205000I172500J0D01*
G01*
X100987500Y-28205000D01*
G75*
G02*
X101160000Y-28377500I0J-172500D01*
G01*
G37*
%TD*%
%TO.C,R33*%
G36*
G01*
X88555000Y-48902000D02*
X88555000Y-48507000D01*
G75*
G02*
X88727500Y-48334500I172500J0D01*
G01*
X89072500Y-48334500D01*
G75*
G02*
X89245000Y-48507000I0J-172500D01*
G01*
X89245000Y-48902000D01*
G75*
G02*
X89072500Y-49074500I-172500J0D01*
G01*
X88727500Y-49074500D01*
G75*
G02*
X88555000Y-48902000I0J172500D01*
G01*
G37*
G36*
G01*
X87585000Y-48902000D02*
X87585000Y-48507000D01*
G75*
G02*
X87757500Y-48334500I172500J0D01*
G01*
X88102500Y-48334500D01*
G75*
G02*
X88275000Y-48507000I0J-172500D01*
G01*
X88275000Y-48902000D01*
G75*
G02*
X88102500Y-49074500I-172500J0D01*
G01*
X87757500Y-49074500D01*
G75*
G02*
X87585000Y-48902000I0J172500D01*
G01*
G37*
%TD*%
%TO.C,R31*%
G36*
G01*
X83114500Y-90564000D02*
X83509500Y-90564000D01*
G75*
G02*
X83682000Y-90736500I0J-172500D01*
G01*
X83682000Y-91081500D01*
G75*
G02*
X83509500Y-91254000I-172500J0D01*
G01*
X83114500Y-91254000D01*
G75*
G02*
X82942000Y-91081500I0J172500D01*
G01*
X82942000Y-90736500D01*
G75*
G02*
X83114500Y-90564000I172500J0D01*
G01*
G37*
G36*
G01*
X83114500Y-89594000D02*
X83509500Y-89594000D01*
G75*
G02*
X83682000Y-89766500I0J-172500D01*
G01*
X83682000Y-90111500D01*
G75*
G02*
X83509500Y-90284000I-172500J0D01*
G01*
X83114500Y-90284000D01*
G75*
G02*
X82942000Y-90111500I0J172500D01*
G01*
X82942000Y-89766500D01*
G75*
G02*
X83114500Y-89594000I172500J0D01*
G01*
G37*
%TD*%
%TO.C,R30*%
G36*
G01*
X100470000Y-30042500D02*
X100470000Y-29647500D01*
G75*
G02*
X100642500Y-29475000I172500J0D01*
G01*
X100987500Y-29475000D01*
G75*
G02*
X101160000Y-29647500I0J-172500D01*
G01*
X101160000Y-30042500D01*
G75*
G02*
X100987500Y-30215000I-172500J0D01*
G01*
X100642500Y-30215000D01*
G75*
G02*
X100470000Y-30042500I0J172500D01*
G01*
G37*
G36*
G01*
X99500000Y-30042500D02*
X99500000Y-29647500D01*
G75*
G02*
X99672500Y-29475000I172500J0D01*
G01*
X100017500Y-29475000D01*
G75*
G02*
X100190000Y-29647500I0J-172500D01*
G01*
X100190000Y-30042500D01*
G75*
G02*
X100017500Y-30215000I-172500J0D01*
G01*
X99672500Y-30215000D01*
G75*
G02*
X99500000Y-30042500I0J172500D01*
G01*
G37*
%TD*%
%TO.C,R29*%
G36*
G01*
X98285000Y-29647500D02*
X98285000Y-30042500D01*
G75*
G02*
X98112500Y-30215000I-172500J0D01*
G01*
X97767500Y-30215000D01*
G75*
G02*
X97595000Y-30042500I0J172500D01*
G01*
X97595000Y-29647500D01*
G75*
G02*
X97767500Y-29475000I172500J0D01*
G01*
X98112500Y-29475000D01*
G75*
G02*
X98285000Y-29647500I0J-172500D01*
G01*
G37*
G36*
G01*
X99255000Y-29647500D02*
X99255000Y-30042500D01*
G75*
G02*
X99082500Y-30215000I-172500J0D01*
G01*
X98737500Y-30215000D01*
G75*
G02*
X98565000Y-30042500I0J172500D01*
G01*
X98565000Y-29647500D01*
G75*
G02*
X98737500Y-29475000I172500J0D01*
G01*
X99082500Y-29475000D01*
G75*
G02*
X99255000Y-29647500I0J-172500D01*
G01*
G37*
%TD*%
%TO.C,R28*%
G36*
G01*
X90220500Y-49523000D02*
X90220500Y-49918000D01*
G75*
G02*
X90048000Y-50090500I-172500J0D01*
G01*
X89703000Y-50090500D01*
G75*
G02*
X89530500Y-49918000I0J172500D01*
G01*
X89530500Y-49523000D01*
G75*
G02*
X89703000Y-49350500I172500J0D01*
G01*
X90048000Y-49350500D01*
G75*
G02*
X90220500Y-49523000I0J-172500D01*
G01*
G37*
G36*
G01*
X91190500Y-49523000D02*
X91190500Y-49918000D01*
G75*
G02*
X91018000Y-50090500I-172500J0D01*
G01*
X90673000Y-50090500D01*
G75*
G02*
X90500500Y-49918000I0J172500D01*
G01*
X90500500Y-49523000D01*
G75*
G02*
X90673000Y-49350500I172500J0D01*
G01*
X91018000Y-49350500D01*
G75*
G02*
X91190500Y-49523000I0J-172500D01*
G01*
G37*
%TD*%
%TO.C,R27*%
G36*
G01*
X80886000Y-77018500D02*
X80886000Y-77413500D01*
G75*
G02*
X80713500Y-77586000I-172500J0D01*
G01*
X80368500Y-77586000D01*
G75*
G02*
X80196000Y-77413500I0J172500D01*
G01*
X80196000Y-77018500D01*
G75*
G02*
X80368500Y-76846000I172500J0D01*
G01*
X80713500Y-76846000D01*
G75*
G02*
X80886000Y-77018500I0J-172500D01*
G01*
G37*
G36*
G01*
X81856000Y-77018500D02*
X81856000Y-77413500D01*
G75*
G02*
X81683500Y-77586000I-172500J0D01*
G01*
X81338500Y-77586000D01*
G75*
G02*
X81166000Y-77413500I0J172500D01*
G01*
X81166000Y-77018500D01*
G75*
G02*
X81338500Y-76846000I172500J0D01*
G01*
X81683500Y-76846000D01*
G75*
G02*
X81856000Y-77018500I0J-172500D01*
G01*
G37*
%TD*%
%TO.C,R26*%
G36*
G01*
X79134000Y-77413500D02*
X79134000Y-77018500D01*
G75*
G02*
X79306500Y-76846000I172500J0D01*
G01*
X79651500Y-76846000D01*
G75*
G02*
X79824000Y-77018500I0J-172500D01*
G01*
X79824000Y-77413500D01*
G75*
G02*
X79651500Y-77586000I-172500J0D01*
G01*
X79306500Y-77586000D01*
G75*
G02*
X79134000Y-77413500I0J172500D01*
G01*
G37*
G36*
G01*
X78164000Y-77413500D02*
X78164000Y-77018500D01*
G75*
G02*
X78336500Y-76846000I172500J0D01*
G01*
X78681500Y-76846000D01*
G75*
G02*
X78854000Y-77018500I0J-172500D01*
G01*
X78854000Y-77413500D01*
G75*
G02*
X78681500Y-77586000I-172500J0D01*
G01*
X78336500Y-77586000D01*
G75*
G02*
X78164000Y-77413500I0J172500D01*
G01*
G37*
%TD*%
%TO.C,R25*%
G36*
G01*
X90861500Y-23381000D02*
X91256500Y-23381000D01*
G75*
G02*
X91429000Y-23553500I0J-172500D01*
G01*
X91429000Y-23898500D01*
G75*
G02*
X91256500Y-24071000I-172500J0D01*
G01*
X90861500Y-24071000D01*
G75*
G02*
X90689000Y-23898500I0J172500D01*
G01*
X90689000Y-23553500D01*
G75*
G02*
X90861500Y-23381000I172500J0D01*
G01*
G37*
G36*
G01*
X90861500Y-22411000D02*
X91256500Y-22411000D01*
G75*
G02*
X91429000Y-22583500I0J-172500D01*
G01*
X91429000Y-22928500D01*
G75*
G02*
X91256500Y-23101000I-172500J0D01*
G01*
X90861500Y-23101000D01*
G75*
G02*
X90689000Y-22928500I0J172500D01*
G01*
X90689000Y-22583500D01*
G75*
G02*
X90861500Y-22411000I172500J0D01*
G01*
G37*
%TD*%
%TO.C,R24*%
G36*
G01*
X121018000Y-81082500D02*
X121018000Y-81477500D01*
G75*
G02*
X120845500Y-81650000I-172500J0D01*
G01*
X120500500Y-81650000D01*
G75*
G02*
X120328000Y-81477500I0J172500D01*
G01*
X120328000Y-81082500D01*
G75*
G02*
X120500500Y-80910000I172500J0D01*
G01*
X120845500Y-80910000D01*
G75*
G02*
X121018000Y-81082500I0J-172500D01*
G01*
G37*
G36*
G01*
X121988000Y-81082500D02*
X121988000Y-81477500D01*
G75*
G02*
X121815500Y-81650000I-172500J0D01*
G01*
X121470500Y-81650000D01*
G75*
G02*
X121298000Y-81477500I0J172500D01*
G01*
X121298000Y-81082500D01*
G75*
G02*
X121470500Y-80910000I172500J0D01*
G01*
X121815500Y-80910000D01*
G75*
G02*
X121988000Y-81082500I0J-172500D01*
G01*
G37*
%TD*%
%TO.C,R23*%
G36*
G01*
X120452500Y-82944000D02*
X120847500Y-82944000D01*
G75*
G02*
X121020000Y-83116500I0J-172500D01*
G01*
X121020000Y-83461500D01*
G75*
G02*
X120847500Y-83634000I-172500J0D01*
G01*
X120452500Y-83634000D01*
G75*
G02*
X120280000Y-83461500I0J172500D01*
G01*
X120280000Y-83116500D01*
G75*
G02*
X120452500Y-82944000I172500J0D01*
G01*
G37*
G36*
G01*
X120452500Y-81974000D02*
X120847500Y-81974000D01*
G75*
G02*
X121020000Y-82146500I0J-172500D01*
G01*
X121020000Y-82491500D01*
G75*
G02*
X120847500Y-82664000I-172500J0D01*
G01*
X120452500Y-82664000D01*
G75*
G02*
X120280000Y-82491500I0J172500D01*
G01*
X120280000Y-82146500D01*
G75*
G02*
X120452500Y-81974000I172500J0D01*
G01*
G37*
%TD*%
%TO.C,R22*%
G36*
G01*
X92018500Y-58788000D02*
X91623500Y-58788000D01*
G75*
G02*
X91451000Y-58615500I0J172500D01*
G01*
X91451000Y-58270500D01*
G75*
G02*
X91623500Y-58098000I172500J0D01*
G01*
X92018500Y-58098000D01*
G75*
G02*
X92191000Y-58270500I0J-172500D01*
G01*
X92191000Y-58615500D01*
G75*
G02*
X92018500Y-58788000I-172500J0D01*
G01*
G37*
G36*
G01*
X92018500Y-59758000D02*
X91623500Y-59758000D01*
G75*
G02*
X91451000Y-59585500I0J172500D01*
G01*
X91451000Y-59240500D01*
G75*
G02*
X91623500Y-59068000I172500J0D01*
G01*
X92018500Y-59068000D01*
G75*
G02*
X92191000Y-59240500I0J-172500D01*
G01*
X92191000Y-59585500D01*
G75*
G02*
X92018500Y-59758000I-172500J0D01*
G01*
G37*
%TD*%
%TO.C,R21*%
G36*
G01*
X117107000Y-33979500D02*
X117107000Y-33584500D01*
G75*
G02*
X117279500Y-33412000I172500J0D01*
G01*
X117624500Y-33412000D01*
G75*
G02*
X117797000Y-33584500I0J-172500D01*
G01*
X117797000Y-33979500D01*
G75*
G02*
X117624500Y-34152000I-172500J0D01*
G01*
X117279500Y-34152000D01*
G75*
G02*
X117107000Y-33979500I0J172500D01*
G01*
G37*
G36*
G01*
X116137000Y-33979500D02*
X116137000Y-33584500D01*
G75*
G02*
X116309500Y-33412000I172500J0D01*
G01*
X116654500Y-33412000D01*
G75*
G02*
X116827000Y-33584500I0J-172500D01*
G01*
X116827000Y-33979500D01*
G75*
G02*
X116654500Y-34152000I-172500J0D01*
G01*
X116309500Y-34152000D01*
G75*
G02*
X116137000Y-33979500I0J172500D01*
G01*
G37*
%TD*%
%TO.C,R20*%
G36*
G01*
X52507500Y-27572000D02*
X52902500Y-27572000D01*
G75*
G02*
X53075000Y-27744500I0J-172500D01*
G01*
X53075000Y-28089500D01*
G75*
G02*
X52902500Y-28262000I-172500J0D01*
G01*
X52507500Y-28262000D01*
G75*
G02*
X52335000Y-28089500I0J172500D01*
G01*
X52335000Y-27744500D01*
G75*
G02*
X52507500Y-27572000I172500J0D01*
G01*
G37*
G36*
G01*
X52507500Y-26602000D02*
X52902500Y-26602000D01*
G75*
G02*
X53075000Y-26774500I0J-172500D01*
G01*
X53075000Y-27119500D01*
G75*
G02*
X52902500Y-27292000I-172500J0D01*
G01*
X52507500Y-27292000D01*
G75*
G02*
X52335000Y-27119500I0J172500D01*
G01*
X52335000Y-26774500D01*
G75*
G02*
X52507500Y-26602000I172500J0D01*
G01*
G37*
%TD*%
%TO.C,R19*%
G36*
G01*
X92824000Y-38918500D02*
X92824000Y-39313500D01*
G75*
G02*
X92651500Y-39486000I-172500J0D01*
G01*
X92306500Y-39486000D01*
G75*
G02*
X92134000Y-39313500I0J172500D01*
G01*
X92134000Y-38918500D01*
G75*
G02*
X92306500Y-38746000I172500J0D01*
G01*
X92651500Y-38746000D01*
G75*
G02*
X92824000Y-38918500I0J-172500D01*
G01*
G37*
G36*
G01*
X93794000Y-38918500D02*
X93794000Y-39313500D01*
G75*
G02*
X93621500Y-39486000I-172500J0D01*
G01*
X93276500Y-39486000D01*
G75*
G02*
X93104000Y-39313500I0J172500D01*
G01*
X93104000Y-38918500D01*
G75*
G02*
X93276500Y-38746000I172500J0D01*
G01*
X93621500Y-38746000D01*
G75*
G02*
X93794000Y-38918500I0J-172500D01*
G01*
G37*
%TD*%
%TO.C,R16*%
G36*
G01*
X113862500Y-30594000D02*
X113467500Y-30594000D01*
G75*
G02*
X113295000Y-30421500I0J172500D01*
G01*
X113295000Y-30076500D01*
G75*
G02*
X113467500Y-29904000I172500J0D01*
G01*
X113862500Y-29904000D01*
G75*
G02*
X114035000Y-30076500I0J-172500D01*
G01*
X114035000Y-30421500D01*
G75*
G02*
X113862500Y-30594000I-172500J0D01*
G01*
G37*
G36*
G01*
X113862500Y-31564000D02*
X113467500Y-31564000D01*
G75*
G02*
X113295000Y-31391500I0J172500D01*
G01*
X113295000Y-31046500D01*
G75*
G02*
X113467500Y-30874000I172500J0D01*
G01*
X113862500Y-30874000D01*
G75*
G02*
X114035000Y-31046500I0J-172500D01*
G01*
X114035000Y-31391500D01*
G75*
G02*
X113862500Y-31564000I-172500J0D01*
G01*
G37*
%TD*%
%TO.C,R15*%
G36*
G01*
X112451500Y-30874000D02*
X112846500Y-30874000D01*
G75*
G02*
X113019000Y-31046500I0J-172500D01*
G01*
X113019000Y-31391500D01*
G75*
G02*
X112846500Y-31564000I-172500J0D01*
G01*
X112451500Y-31564000D01*
G75*
G02*
X112279000Y-31391500I0J172500D01*
G01*
X112279000Y-31046500D01*
G75*
G02*
X112451500Y-30874000I172500J0D01*
G01*
G37*
G36*
G01*
X112451500Y-29904000D02*
X112846500Y-29904000D01*
G75*
G02*
X113019000Y-30076500I0J-172500D01*
G01*
X113019000Y-30421500D01*
G75*
G02*
X112846500Y-30594000I-172500J0D01*
G01*
X112451500Y-30594000D01*
G75*
G02*
X112279000Y-30421500I0J172500D01*
G01*
X112279000Y-30076500D01*
G75*
G02*
X112451500Y-29904000I172500J0D01*
G01*
G37*
%TD*%
%TO.C,R14*%
G36*
G01*
X116218000Y-41091500D02*
X116218000Y-40696500D01*
G75*
G02*
X116390500Y-40524000I172500J0D01*
G01*
X116735500Y-40524000D01*
G75*
G02*
X116908000Y-40696500I0J-172500D01*
G01*
X116908000Y-41091500D01*
G75*
G02*
X116735500Y-41264000I-172500J0D01*
G01*
X116390500Y-41264000D01*
G75*
G02*
X116218000Y-41091500I0J172500D01*
G01*
G37*
G36*
G01*
X115248000Y-41091500D02*
X115248000Y-40696500D01*
G75*
G02*
X115420500Y-40524000I172500J0D01*
G01*
X115765500Y-40524000D01*
G75*
G02*
X115938000Y-40696500I0J-172500D01*
G01*
X115938000Y-41091500D01*
G75*
G02*
X115765500Y-41264000I-172500J0D01*
G01*
X115420500Y-41264000D01*
G75*
G02*
X115248000Y-41091500I0J172500D01*
G01*
G37*
%TD*%
%TO.C,R13*%
G36*
G01*
X115938000Y-44125500D02*
X115938000Y-44520500D01*
G75*
G02*
X115765500Y-44693000I-172500J0D01*
G01*
X115420500Y-44693000D01*
G75*
G02*
X115248000Y-44520500I0J172500D01*
G01*
X115248000Y-44125500D01*
G75*
G02*
X115420500Y-43953000I172500J0D01*
G01*
X115765500Y-43953000D01*
G75*
G02*
X115938000Y-44125500I0J-172500D01*
G01*
G37*
G36*
G01*
X116908000Y-44125500D02*
X116908000Y-44520500D01*
G75*
G02*
X116735500Y-44693000I-172500J0D01*
G01*
X116390500Y-44693000D01*
G75*
G02*
X116218000Y-44520500I0J172500D01*
G01*
X116218000Y-44125500D01*
G75*
G02*
X116390500Y-43953000I172500J0D01*
G01*
X116735500Y-43953000D01*
G75*
G02*
X116908000Y-44125500I0J-172500D01*
G01*
G37*
%TD*%
%TO.C,R11*%
G36*
G01*
X115938000Y-43109500D02*
X115938000Y-43504500D01*
G75*
G02*
X115765500Y-43677000I-172500J0D01*
G01*
X115420500Y-43677000D01*
G75*
G02*
X115248000Y-43504500I0J172500D01*
G01*
X115248000Y-43109500D01*
G75*
G02*
X115420500Y-42937000I172500J0D01*
G01*
X115765500Y-42937000D01*
G75*
G02*
X115938000Y-43109500I0J-172500D01*
G01*
G37*
G36*
G01*
X116908000Y-43109500D02*
X116908000Y-43504500D01*
G75*
G02*
X116735500Y-43677000I-172500J0D01*
G01*
X116390500Y-43677000D01*
G75*
G02*
X116218000Y-43504500I0J172500D01*
G01*
X116218000Y-43109500D01*
G75*
G02*
X116390500Y-42937000I172500J0D01*
G01*
X116735500Y-42937000D01*
G75*
G02*
X116908000Y-43109500I0J-172500D01*
G01*
G37*
%TD*%
%TO.C,R10*%
G36*
G01*
X116218000Y-40075500D02*
X116218000Y-39680500D01*
G75*
G02*
X116390500Y-39508000I172500J0D01*
G01*
X116735500Y-39508000D01*
G75*
G02*
X116908000Y-39680500I0J-172500D01*
G01*
X116908000Y-40075500D01*
G75*
G02*
X116735500Y-40248000I-172500J0D01*
G01*
X116390500Y-40248000D01*
G75*
G02*
X116218000Y-40075500I0J172500D01*
G01*
G37*
G36*
G01*
X115248000Y-40075500D02*
X115248000Y-39680500D01*
G75*
G02*
X115420500Y-39508000I172500J0D01*
G01*
X115765500Y-39508000D01*
G75*
G02*
X115938000Y-39680500I0J-172500D01*
G01*
X115938000Y-40075500D01*
G75*
G02*
X115765500Y-40248000I-172500J0D01*
G01*
X115420500Y-40248000D01*
G75*
G02*
X115248000Y-40075500I0J172500D01*
G01*
G37*
%TD*%
%TO.C,R9*%
G36*
G01*
X115938000Y-42093500D02*
X115938000Y-42488500D01*
G75*
G02*
X115765500Y-42661000I-172500J0D01*
G01*
X115420500Y-42661000D01*
G75*
G02*
X115248000Y-42488500I0J172500D01*
G01*
X115248000Y-42093500D01*
G75*
G02*
X115420500Y-41921000I172500J0D01*
G01*
X115765500Y-41921000D01*
G75*
G02*
X115938000Y-42093500I0J-172500D01*
G01*
G37*
G36*
G01*
X116908000Y-42093500D02*
X116908000Y-42488500D01*
G75*
G02*
X116735500Y-42661000I-172500J0D01*
G01*
X116390500Y-42661000D01*
G75*
G02*
X116218000Y-42488500I0J172500D01*
G01*
X116218000Y-42093500D01*
G75*
G02*
X116390500Y-41921000I172500J0D01*
G01*
X116735500Y-41921000D01*
G75*
G02*
X116908000Y-42093500I0J-172500D01*
G01*
G37*
%TD*%
%TO.C,R7*%
G36*
G01*
X56698500Y-22619000D02*
X57093500Y-22619000D01*
G75*
G02*
X57266000Y-22791500I0J-172500D01*
G01*
X57266000Y-23136500D01*
G75*
G02*
X57093500Y-23309000I-172500J0D01*
G01*
X56698500Y-23309000D01*
G75*
G02*
X56526000Y-23136500I0J172500D01*
G01*
X56526000Y-22791500D01*
G75*
G02*
X56698500Y-22619000I172500J0D01*
G01*
G37*
G36*
G01*
X56698500Y-21649000D02*
X57093500Y-21649000D01*
G75*
G02*
X57266000Y-21821500I0J-172500D01*
G01*
X57266000Y-22166500D01*
G75*
G02*
X57093500Y-22339000I-172500J0D01*
G01*
X56698500Y-22339000D01*
G75*
G02*
X56526000Y-22166500I0J172500D01*
G01*
X56526000Y-21821500D01*
G75*
G02*
X56698500Y-21649000I172500J0D01*
G01*
G37*
%TD*%
%TO.C,R6*%
G36*
G01*
X115366500Y-93782500D02*
X115366500Y-94177500D01*
G75*
G02*
X115194000Y-94350000I-172500J0D01*
G01*
X114849000Y-94350000D01*
G75*
G02*
X114676500Y-94177500I0J172500D01*
G01*
X114676500Y-93782500D01*
G75*
G02*
X114849000Y-93610000I172500J0D01*
G01*
X115194000Y-93610000D01*
G75*
G02*
X115366500Y-93782500I0J-172500D01*
G01*
G37*
G36*
G01*
X116336500Y-93782500D02*
X116336500Y-94177500D01*
G75*
G02*
X116164000Y-94350000I-172500J0D01*
G01*
X115819000Y-94350000D01*
G75*
G02*
X115646500Y-94177500I0J172500D01*
G01*
X115646500Y-93782500D01*
G75*
G02*
X115819000Y-93610000I172500J0D01*
G01*
X116164000Y-93610000D01*
G75*
G02*
X116336500Y-93782500I0J-172500D01*
G01*
G37*
%TD*%
%TO.C,R5*%
G36*
G01*
X52902500Y-29324000D02*
X52507500Y-29324000D01*
G75*
G02*
X52335000Y-29151500I0J172500D01*
G01*
X52335000Y-28806500D01*
G75*
G02*
X52507500Y-28634000I172500J0D01*
G01*
X52902500Y-28634000D01*
G75*
G02*
X53075000Y-28806500I0J-172500D01*
G01*
X53075000Y-29151500D01*
G75*
G02*
X52902500Y-29324000I-172500J0D01*
G01*
G37*
G36*
G01*
X52902500Y-30294000D02*
X52507500Y-30294000D01*
G75*
G02*
X52335000Y-30121500I0J172500D01*
G01*
X52335000Y-29776500D01*
G75*
G02*
X52507500Y-29604000I172500J0D01*
G01*
X52902500Y-29604000D01*
G75*
G02*
X53075000Y-29776500I0J-172500D01*
G01*
X53075000Y-30121500D01*
G75*
G02*
X52902500Y-30294000I-172500J0D01*
G01*
G37*
%TD*%
%TO.C,R4*%
G36*
G01*
X51886500Y-29324000D02*
X51491500Y-29324000D01*
G75*
G02*
X51319000Y-29151500I0J172500D01*
G01*
X51319000Y-28806500D01*
G75*
G02*
X51491500Y-28634000I172500J0D01*
G01*
X51886500Y-28634000D01*
G75*
G02*
X52059000Y-28806500I0J-172500D01*
G01*
X52059000Y-29151500D01*
G75*
G02*
X51886500Y-29324000I-172500J0D01*
G01*
G37*
G36*
G01*
X51886500Y-30294000D02*
X51491500Y-30294000D01*
G75*
G02*
X51319000Y-30121500I0J172500D01*
G01*
X51319000Y-29776500D01*
G75*
G02*
X51491500Y-29604000I172500J0D01*
G01*
X51886500Y-29604000D01*
G75*
G02*
X52059000Y-29776500I0J-172500D01*
G01*
X52059000Y-30121500D01*
G75*
G02*
X51886500Y-30294000I-172500J0D01*
G01*
G37*
%TD*%
%TO.C,R3*%
G36*
G01*
X115938000Y-37648500D02*
X115938000Y-38043500D01*
G75*
G02*
X115765500Y-38216000I-172500J0D01*
G01*
X115420500Y-38216000D01*
G75*
G02*
X115248000Y-38043500I0J172500D01*
G01*
X115248000Y-37648500D01*
G75*
G02*
X115420500Y-37476000I172500J0D01*
G01*
X115765500Y-37476000D01*
G75*
G02*
X115938000Y-37648500I0J-172500D01*
G01*
G37*
G36*
G01*
X116908000Y-37648500D02*
X116908000Y-38043500D01*
G75*
G02*
X116735500Y-38216000I-172500J0D01*
G01*
X116390500Y-38216000D01*
G75*
G02*
X116218000Y-38043500I0J172500D01*
G01*
X116218000Y-37648500D01*
G75*
G02*
X116390500Y-37476000I172500J0D01*
G01*
X116735500Y-37476000D01*
G75*
G02*
X116908000Y-37648500I0J-172500D01*
G01*
G37*
%TD*%
%TO.C,R2*%
G36*
G01*
X109671500Y-28308000D02*
X109276500Y-28308000D01*
G75*
G02*
X109104000Y-28135500I0J172500D01*
G01*
X109104000Y-27790500D01*
G75*
G02*
X109276500Y-27618000I172500J0D01*
G01*
X109671500Y-27618000D01*
G75*
G02*
X109844000Y-27790500I0J-172500D01*
G01*
X109844000Y-28135500D01*
G75*
G02*
X109671500Y-28308000I-172500J0D01*
G01*
G37*
G36*
G01*
X109671500Y-29278000D02*
X109276500Y-29278000D01*
G75*
G02*
X109104000Y-29105500I0J172500D01*
G01*
X109104000Y-28760500D01*
G75*
G02*
X109276500Y-28588000I172500J0D01*
G01*
X109671500Y-28588000D01*
G75*
G02*
X109844000Y-28760500I0J-172500D01*
G01*
X109844000Y-29105500D01*
G75*
G02*
X109671500Y-29278000I-172500J0D01*
G01*
G37*
%TD*%
%TO.C,R1*%
G36*
G01*
X115938000Y-36632500D02*
X115938000Y-37027500D01*
G75*
G02*
X115765500Y-37200000I-172500J0D01*
G01*
X115420500Y-37200000D01*
G75*
G02*
X115248000Y-37027500I0J172500D01*
G01*
X115248000Y-36632500D01*
G75*
G02*
X115420500Y-36460000I172500J0D01*
G01*
X115765500Y-36460000D01*
G75*
G02*
X115938000Y-36632500I0J-172500D01*
G01*
G37*
G36*
G01*
X116908000Y-36632500D02*
X116908000Y-37027500D01*
G75*
G02*
X116735500Y-37200000I-172500J0D01*
G01*
X116390500Y-37200000D01*
G75*
G02*
X116218000Y-37027500I0J172500D01*
G01*
X116218000Y-36632500D01*
G75*
G02*
X116390500Y-36460000I172500J0D01*
G01*
X116735500Y-36460000D01*
G75*
G02*
X116908000Y-36632500I0J-172500D01*
G01*
G37*
%TD*%
%TO.C,C89*%
G36*
G01*
X62215500Y-47248000D02*
X62610500Y-47248000D01*
G75*
G02*
X62783000Y-47420500I0J-172500D01*
G01*
X62783000Y-47765500D01*
G75*
G02*
X62610500Y-47938000I-172500J0D01*
G01*
X62215500Y-47938000D01*
G75*
G02*
X62043000Y-47765500I0J172500D01*
G01*
X62043000Y-47420500D01*
G75*
G02*
X62215500Y-47248000I172500J0D01*
G01*
G37*
G36*
G01*
X62215500Y-46278000D02*
X62610500Y-46278000D01*
G75*
G02*
X62783000Y-46450500I0J-172500D01*
G01*
X62783000Y-46795500D01*
G75*
G02*
X62610500Y-46968000I-172500J0D01*
G01*
X62215500Y-46968000D01*
G75*
G02*
X62043000Y-46795500I0J172500D01*
G01*
X62043000Y-46450500D01*
G75*
G02*
X62215500Y-46278000I172500J0D01*
G01*
G37*
%TD*%
%TO.C,C88*%
G36*
G01*
X60566000Y-55047500D02*
X60566000Y-55442500D01*
G75*
G02*
X60393500Y-55615000I-172500J0D01*
G01*
X60048500Y-55615000D01*
G75*
G02*
X59876000Y-55442500I0J172500D01*
G01*
X59876000Y-55047500D01*
G75*
G02*
X60048500Y-54875000I172500J0D01*
G01*
X60393500Y-54875000D01*
G75*
G02*
X60566000Y-55047500I0J-172500D01*
G01*
G37*
G36*
G01*
X61536000Y-55047500D02*
X61536000Y-55442500D01*
G75*
G02*
X61363500Y-55615000I-172500J0D01*
G01*
X61018500Y-55615000D01*
G75*
G02*
X60846000Y-55442500I0J172500D01*
G01*
X60846000Y-55047500D01*
G75*
G02*
X61018500Y-54875000I172500J0D01*
G01*
X61363500Y-54875000D01*
G75*
G02*
X61536000Y-55047500I0J-172500D01*
G01*
G37*
%TD*%
%TO.C,C87*%
G36*
G01*
X53962000Y-51555000D02*
X53962000Y-51950000D01*
G75*
G02*
X53789500Y-52122500I-172500J0D01*
G01*
X53444500Y-52122500D01*
G75*
G02*
X53272000Y-51950000I0J172500D01*
G01*
X53272000Y-51555000D01*
G75*
G02*
X53444500Y-51382500I172500J0D01*
G01*
X53789500Y-51382500D01*
G75*
G02*
X53962000Y-51555000I0J-172500D01*
G01*
G37*
G36*
G01*
X54932000Y-51555000D02*
X54932000Y-51950000D01*
G75*
G02*
X54759500Y-52122500I-172500J0D01*
G01*
X54414500Y-52122500D01*
G75*
G02*
X54242000Y-51950000I0J172500D01*
G01*
X54242000Y-51555000D01*
G75*
G02*
X54414500Y-51382500I172500J0D01*
G01*
X54759500Y-51382500D01*
G75*
G02*
X54932000Y-51555000I0J-172500D01*
G01*
G37*
%TD*%
%TO.C,C86*%
G36*
G01*
X62852000Y-48443500D02*
X62852000Y-48838500D01*
G75*
G02*
X62679500Y-49011000I-172500J0D01*
G01*
X62334500Y-49011000D01*
G75*
G02*
X62162000Y-48838500I0J172500D01*
G01*
X62162000Y-48443500D01*
G75*
G02*
X62334500Y-48271000I172500J0D01*
G01*
X62679500Y-48271000D01*
G75*
G02*
X62852000Y-48443500I0J-172500D01*
G01*
G37*
G36*
G01*
X63822000Y-48443500D02*
X63822000Y-48838500D01*
G75*
G02*
X63649500Y-49011000I-172500J0D01*
G01*
X63304500Y-49011000D01*
G75*
G02*
X63132000Y-48838500I0J172500D01*
G01*
X63132000Y-48443500D01*
G75*
G02*
X63304500Y-48271000I172500J0D01*
G01*
X63649500Y-48271000D01*
G75*
G02*
X63822000Y-48443500I0J-172500D01*
G01*
G37*
%TD*%
%TO.C,C85*%
G36*
G01*
X54242000Y-50934000D02*
X54242000Y-50539000D01*
G75*
G02*
X54414500Y-50366500I172500J0D01*
G01*
X54759500Y-50366500D01*
G75*
G02*
X54932000Y-50539000I0J-172500D01*
G01*
X54932000Y-50934000D01*
G75*
G02*
X54759500Y-51106500I-172500J0D01*
G01*
X54414500Y-51106500D01*
G75*
G02*
X54242000Y-50934000I0J172500D01*
G01*
G37*
G36*
G01*
X53272000Y-50934000D02*
X53272000Y-50539000D01*
G75*
G02*
X53444500Y-50366500I172500J0D01*
G01*
X53789500Y-50366500D01*
G75*
G02*
X53962000Y-50539000I0J-172500D01*
G01*
X53962000Y-50934000D01*
G75*
G02*
X53789500Y-51106500I-172500J0D01*
G01*
X53444500Y-51106500D01*
G75*
G02*
X53272000Y-50934000I0J172500D01*
G01*
G37*
%TD*%
%TO.C,C84*%
G36*
G01*
X58280000Y-55047500D02*
X58280000Y-55442500D01*
G75*
G02*
X58107500Y-55615000I-172500J0D01*
G01*
X57762500Y-55615000D01*
G75*
G02*
X57590000Y-55442500I0J172500D01*
G01*
X57590000Y-55047500D01*
G75*
G02*
X57762500Y-54875000I172500J0D01*
G01*
X58107500Y-54875000D01*
G75*
G02*
X58280000Y-55047500I0J-172500D01*
G01*
G37*
G36*
G01*
X59250000Y-55047500D02*
X59250000Y-55442500D01*
G75*
G02*
X59077500Y-55615000I-172500J0D01*
G01*
X58732500Y-55615000D01*
G75*
G02*
X58560000Y-55442500I0J172500D01*
G01*
X58560000Y-55047500D01*
G75*
G02*
X58732500Y-54875000I172500J0D01*
G01*
X59077500Y-54875000D01*
G75*
G02*
X59250000Y-55047500I0J-172500D01*
G01*
G37*
%TD*%
%TO.C,C82*%
G36*
G01*
X49586500Y-46495000D02*
X49981500Y-46495000D01*
G75*
G02*
X50154000Y-46667500I0J-172500D01*
G01*
X50154000Y-47012500D01*
G75*
G02*
X49981500Y-47185000I-172500J0D01*
G01*
X49586500Y-47185000D01*
G75*
G02*
X49414000Y-47012500I0J172500D01*
G01*
X49414000Y-46667500D01*
G75*
G02*
X49586500Y-46495000I172500J0D01*
G01*
G37*
G36*
G01*
X49586500Y-45525000D02*
X49981500Y-45525000D01*
G75*
G02*
X50154000Y-45697500I0J-172500D01*
G01*
X50154000Y-46042500D01*
G75*
G02*
X49981500Y-46215000I-172500J0D01*
G01*
X49586500Y-46215000D01*
G75*
G02*
X49414000Y-46042500I0J172500D01*
G01*
X49414000Y-45697500D01*
G75*
G02*
X49586500Y-45525000I172500J0D01*
G01*
G37*
%TD*%
%TO.C,C81*%
G36*
G01*
X54978000Y-43109500D02*
X54978000Y-43504500D01*
G75*
G02*
X54805500Y-43677000I-172500J0D01*
G01*
X54460500Y-43677000D01*
G75*
G02*
X54288000Y-43504500I0J172500D01*
G01*
X54288000Y-43109500D01*
G75*
G02*
X54460500Y-42937000I172500J0D01*
G01*
X54805500Y-42937000D01*
G75*
G02*
X54978000Y-43109500I0J-172500D01*
G01*
G37*
G36*
G01*
X55948000Y-43109500D02*
X55948000Y-43504500D01*
G75*
G02*
X55775500Y-43677000I-172500J0D01*
G01*
X55430500Y-43677000D01*
G75*
G02*
X55258000Y-43504500I0J172500D01*
G01*
X55258000Y-43109500D01*
G75*
G02*
X55430500Y-42937000I172500J0D01*
G01*
X55775500Y-42937000D01*
G75*
G02*
X55948000Y-43109500I0J-172500D01*
G01*
G37*
%TD*%
%TO.C,C80*%
G36*
G01*
X110223000Y-71811500D02*
X110223000Y-72206500D01*
G75*
G02*
X110050500Y-72379000I-172500J0D01*
G01*
X109705500Y-72379000D01*
G75*
G02*
X109533000Y-72206500I0J172500D01*
G01*
X109533000Y-71811500D01*
G75*
G02*
X109705500Y-71639000I172500J0D01*
G01*
X110050500Y-71639000D01*
G75*
G02*
X110223000Y-71811500I0J-172500D01*
G01*
G37*
G36*
G01*
X111193000Y-71811500D02*
X111193000Y-72206500D01*
G75*
G02*
X111020500Y-72379000I-172500J0D01*
G01*
X110675500Y-72379000D01*
G75*
G02*
X110503000Y-72206500I0J172500D01*
G01*
X110503000Y-71811500D01*
G75*
G02*
X110675500Y-71639000I172500J0D01*
G01*
X111020500Y-71639000D01*
G75*
G02*
X111193000Y-71811500I0J-172500D01*
G01*
G37*
%TD*%
%TO.C,C79*%
G36*
G01*
X110223000Y-64699500D02*
X110223000Y-65094500D01*
G75*
G02*
X110050500Y-65267000I-172500J0D01*
G01*
X109705500Y-65267000D01*
G75*
G02*
X109533000Y-65094500I0J172500D01*
G01*
X109533000Y-64699500D01*
G75*
G02*
X109705500Y-64527000I172500J0D01*
G01*
X110050500Y-64527000D01*
G75*
G02*
X110223000Y-64699500I0J-172500D01*
G01*
G37*
G36*
G01*
X111193000Y-64699500D02*
X111193000Y-65094500D01*
G75*
G02*
X111020500Y-65267000I-172500J0D01*
G01*
X110675500Y-65267000D01*
G75*
G02*
X110503000Y-65094500I0J172500D01*
G01*
X110503000Y-64699500D01*
G75*
G02*
X110675500Y-64527000I172500J0D01*
G01*
X111020500Y-64527000D01*
G75*
G02*
X111193000Y-64699500I0J-172500D01*
G01*
G37*
%TD*%
%TO.C,C78*%
G36*
G01*
X63894000Y-78683500D02*
X63894000Y-78288500D01*
G75*
G02*
X64066500Y-78116000I172500J0D01*
G01*
X64411500Y-78116000D01*
G75*
G02*
X64584000Y-78288500I0J-172500D01*
G01*
X64584000Y-78683500D01*
G75*
G02*
X64411500Y-78856000I-172500J0D01*
G01*
X64066500Y-78856000D01*
G75*
G02*
X63894000Y-78683500I0J172500D01*
G01*
G37*
G36*
G01*
X62924000Y-78683500D02*
X62924000Y-78288500D01*
G75*
G02*
X63096500Y-78116000I172500J0D01*
G01*
X63441500Y-78116000D01*
G75*
G02*
X63614000Y-78288500I0J-172500D01*
G01*
X63614000Y-78683500D01*
G75*
G02*
X63441500Y-78856000I-172500J0D01*
G01*
X63096500Y-78856000D01*
G75*
G02*
X62924000Y-78683500I0J172500D01*
G01*
G37*
%TD*%
%TO.C,C69*%
G36*
G01*
X82182000Y-30169500D02*
X82182000Y-29774500D01*
G75*
G02*
X82354500Y-29602000I172500J0D01*
G01*
X82699500Y-29602000D01*
G75*
G02*
X82872000Y-29774500I0J-172500D01*
G01*
X82872000Y-30169500D01*
G75*
G02*
X82699500Y-30342000I-172500J0D01*
G01*
X82354500Y-30342000D01*
G75*
G02*
X82182000Y-30169500I0J172500D01*
G01*
G37*
G36*
G01*
X81212000Y-30169500D02*
X81212000Y-29774500D01*
G75*
G02*
X81384500Y-29602000I172500J0D01*
G01*
X81729500Y-29602000D01*
G75*
G02*
X81902000Y-29774500I0J-172500D01*
G01*
X81902000Y-30169500D01*
G75*
G02*
X81729500Y-30342000I-172500J0D01*
G01*
X81384500Y-30342000D01*
G75*
G02*
X81212000Y-30169500I0J172500D01*
G01*
G37*
%TD*%
%TO.C,C68*%
G36*
G01*
X92653500Y-40500000D02*
X92258500Y-40500000D01*
G75*
G02*
X92086000Y-40327500I0J172500D01*
G01*
X92086000Y-39982500D01*
G75*
G02*
X92258500Y-39810000I172500J0D01*
G01*
X92653500Y-39810000D01*
G75*
G02*
X92826000Y-39982500I0J-172500D01*
G01*
X92826000Y-40327500D01*
G75*
G02*
X92653500Y-40500000I-172500J0D01*
G01*
G37*
G36*
G01*
X92653500Y-41470000D02*
X92258500Y-41470000D01*
G75*
G02*
X92086000Y-41297500I0J172500D01*
G01*
X92086000Y-40952500D01*
G75*
G02*
X92258500Y-40780000I172500J0D01*
G01*
X92653500Y-40780000D01*
G75*
G02*
X92826000Y-40952500I0J-172500D01*
G01*
X92826000Y-41297500D01*
G75*
G02*
X92653500Y-41470000I-172500J0D01*
G01*
G37*
%TD*%
%TO.C,C53*%
G36*
G01*
X107048000Y-86416500D02*
X107048000Y-86811500D01*
G75*
G02*
X106875500Y-86984000I-172500J0D01*
G01*
X106530500Y-86984000D01*
G75*
G02*
X106358000Y-86811500I0J172500D01*
G01*
X106358000Y-86416500D01*
G75*
G02*
X106530500Y-86244000I172500J0D01*
G01*
X106875500Y-86244000D01*
G75*
G02*
X107048000Y-86416500I0J-172500D01*
G01*
G37*
G36*
G01*
X108018000Y-86416500D02*
X108018000Y-86811500D01*
G75*
G02*
X107845500Y-86984000I-172500J0D01*
G01*
X107500500Y-86984000D01*
G75*
G02*
X107328000Y-86811500I0J172500D01*
G01*
X107328000Y-86416500D01*
G75*
G02*
X107500500Y-86244000I172500J0D01*
G01*
X107845500Y-86244000D01*
G75*
G02*
X108018000Y-86416500I0J-172500D01*
G01*
G37*
%TD*%
%TO.C,C52*%
G36*
G01*
X114243500Y-79870000D02*
X113848500Y-79870000D01*
G75*
G02*
X113676000Y-79697500I0J172500D01*
G01*
X113676000Y-79352500D01*
G75*
G02*
X113848500Y-79180000I172500J0D01*
G01*
X114243500Y-79180000D01*
G75*
G02*
X114416000Y-79352500I0J-172500D01*
G01*
X114416000Y-79697500D01*
G75*
G02*
X114243500Y-79870000I-172500J0D01*
G01*
G37*
G36*
G01*
X114243500Y-80840000D02*
X113848500Y-80840000D01*
G75*
G02*
X113676000Y-80667500I0J172500D01*
G01*
X113676000Y-80322500D01*
G75*
G02*
X113848500Y-80150000I172500J0D01*
G01*
X114243500Y-80150000D01*
G75*
G02*
X114416000Y-80322500I0J-172500D01*
G01*
X114416000Y-80667500D01*
G75*
G02*
X114243500Y-80840000I-172500J0D01*
G01*
G37*
%TD*%
%TO.C,C51*%
G36*
G01*
X107048000Y-78034500D02*
X107048000Y-78429500D01*
G75*
G02*
X106875500Y-78602000I-172500J0D01*
G01*
X106530500Y-78602000D01*
G75*
G02*
X106358000Y-78429500I0J172500D01*
G01*
X106358000Y-78034500D01*
G75*
G02*
X106530500Y-77862000I172500J0D01*
G01*
X106875500Y-77862000D01*
G75*
G02*
X107048000Y-78034500I0J-172500D01*
G01*
G37*
G36*
G01*
X108018000Y-78034500D02*
X108018000Y-78429500D01*
G75*
G02*
X107845500Y-78602000I-172500J0D01*
G01*
X107500500Y-78602000D01*
G75*
G02*
X107328000Y-78429500I0J172500D01*
G01*
X107328000Y-78034500D01*
G75*
G02*
X107500500Y-77862000I172500J0D01*
G01*
X107845500Y-77862000D01*
G75*
G02*
X108018000Y-78034500I0J-172500D01*
G01*
G37*
%TD*%
%TO.C,C50*%
G36*
G01*
X107048000Y-87432500D02*
X107048000Y-87827500D01*
G75*
G02*
X106875500Y-88000000I-172500J0D01*
G01*
X106530500Y-88000000D01*
G75*
G02*
X106358000Y-87827500I0J172500D01*
G01*
X106358000Y-87432500D01*
G75*
G02*
X106530500Y-87260000I172500J0D01*
G01*
X106875500Y-87260000D01*
G75*
G02*
X107048000Y-87432500I0J-172500D01*
G01*
G37*
G36*
G01*
X108018000Y-87432500D02*
X108018000Y-87827500D01*
G75*
G02*
X107845500Y-88000000I-172500J0D01*
G01*
X107500500Y-88000000D01*
G75*
G02*
X107328000Y-87827500I0J172500D01*
G01*
X107328000Y-87432500D01*
G75*
G02*
X107500500Y-87260000I172500J0D01*
G01*
X107845500Y-87260000D01*
G75*
G02*
X108018000Y-87432500I0J-172500D01*
G01*
G37*
%TD*%
%TO.C,C48*%
G36*
G01*
X62427500Y-77838000D02*
X62032500Y-77838000D01*
G75*
G02*
X61860000Y-77665500I0J172500D01*
G01*
X61860000Y-77320500D01*
G75*
G02*
X62032500Y-77148000I172500J0D01*
G01*
X62427500Y-77148000D01*
G75*
G02*
X62600000Y-77320500I0J-172500D01*
G01*
X62600000Y-77665500D01*
G75*
G02*
X62427500Y-77838000I-172500J0D01*
G01*
G37*
G36*
G01*
X62427500Y-78808000D02*
X62032500Y-78808000D01*
G75*
G02*
X61860000Y-78635500I0J172500D01*
G01*
X61860000Y-78290500D01*
G75*
G02*
X62032500Y-78118000I172500J0D01*
G01*
X62427500Y-78118000D01*
G75*
G02*
X62600000Y-78290500I0J-172500D01*
G01*
X62600000Y-78635500D01*
G75*
G02*
X62427500Y-78808000I-172500J0D01*
G01*
G37*
%TD*%
%TO.C,C47*%
G36*
G01*
X40653000Y-47568500D02*
X40653000Y-47173500D01*
G75*
G02*
X40825500Y-47001000I172500J0D01*
G01*
X41170500Y-47001000D01*
G75*
G02*
X41343000Y-47173500I0J-172500D01*
G01*
X41343000Y-47568500D01*
G75*
G02*
X41170500Y-47741000I-172500J0D01*
G01*
X40825500Y-47741000D01*
G75*
G02*
X40653000Y-47568500I0J172500D01*
G01*
G37*
G36*
G01*
X39683000Y-47568500D02*
X39683000Y-47173500D01*
G75*
G02*
X39855500Y-47001000I172500J0D01*
G01*
X40200500Y-47001000D01*
G75*
G02*
X40373000Y-47173500I0J-172500D01*
G01*
X40373000Y-47568500D01*
G75*
G02*
X40200500Y-47741000I-172500J0D01*
G01*
X39855500Y-47741000D01*
G75*
G02*
X39683000Y-47568500I0J172500D01*
G01*
G37*
%TD*%
%TO.C,C46*%
G36*
G01*
X103053500Y-71641000D02*
X103448500Y-71641000D01*
G75*
G02*
X103621000Y-71813500I0J-172500D01*
G01*
X103621000Y-72158500D01*
G75*
G02*
X103448500Y-72331000I-172500J0D01*
G01*
X103053500Y-72331000D01*
G75*
G02*
X102881000Y-72158500I0J172500D01*
G01*
X102881000Y-71813500D01*
G75*
G02*
X103053500Y-71641000I172500J0D01*
G01*
G37*
G36*
G01*
X103053500Y-70671000D02*
X103448500Y-70671000D01*
G75*
G02*
X103621000Y-70843500I0J-172500D01*
G01*
X103621000Y-71188500D01*
G75*
G02*
X103448500Y-71361000I-172500J0D01*
G01*
X103053500Y-71361000D01*
G75*
G02*
X102881000Y-71188500I0J172500D01*
G01*
X102881000Y-70843500D01*
G75*
G02*
X103053500Y-70671000I172500J0D01*
G01*
G37*
%TD*%
%TO.C,C45*%
G36*
G01*
X85908500Y-66688000D02*
X86303500Y-66688000D01*
G75*
G02*
X86476000Y-66860500I0J-172500D01*
G01*
X86476000Y-67205500D01*
G75*
G02*
X86303500Y-67378000I-172500J0D01*
G01*
X85908500Y-67378000D01*
G75*
G02*
X85736000Y-67205500I0J172500D01*
G01*
X85736000Y-66860500D01*
G75*
G02*
X85908500Y-66688000I172500J0D01*
G01*
G37*
G36*
G01*
X85908500Y-65718000D02*
X86303500Y-65718000D01*
G75*
G02*
X86476000Y-65890500I0J-172500D01*
G01*
X86476000Y-66235500D01*
G75*
G02*
X86303500Y-66408000I-172500J0D01*
G01*
X85908500Y-66408000D01*
G75*
G02*
X85736000Y-66235500I0J172500D01*
G01*
X85736000Y-65890500D01*
G75*
G02*
X85908500Y-65718000I172500J0D01*
G01*
G37*
%TD*%
%TO.C,C44*%
G36*
G01*
X70301500Y-65265000D02*
X69906500Y-65265000D01*
G75*
G02*
X69734000Y-65092500I0J172500D01*
G01*
X69734000Y-64747500D01*
G75*
G02*
X69906500Y-64575000I172500J0D01*
G01*
X70301500Y-64575000D01*
G75*
G02*
X70474000Y-64747500I0J-172500D01*
G01*
X70474000Y-65092500D01*
G75*
G02*
X70301500Y-65265000I-172500J0D01*
G01*
G37*
G36*
G01*
X70301500Y-66235000D02*
X69906500Y-66235000D01*
G75*
G02*
X69734000Y-66062500I0J172500D01*
G01*
X69734000Y-65717500D01*
G75*
G02*
X69906500Y-65545000I172500J0D01*
G01*
X70301500Y-65545000D01*
G75*
G02*
X70474000Y-65717500I0J-172500D01*
G01*
X70474000Y-66062500D01*
G75*
G02*
X70301500Y-66235000I-172500J0D01*
G01*
G37*
%TD*%
%TO.C,C43*%
G36*
G01*
X104508000Y-74478500D02*
X104508000Y-74873500D01*
G75*
G02*
X104335500Y-75046000I-172500J0D01*
G01*
X103990500Y-75046000D01*
G75*
G02*
X103818000Y-74873500I0J172500D01*
G01*
X103818000Y-74478500D01*
G75*
G02*
X103990500Y-74306000I172500J0D01*
G01*
X104335500Y-74306000D01*
G75*
G02*
X104508000Y-74478500I0J-172500D01*
G01*
G37*
G36*
G01*
X105478000Y-74478500D02*
X105478000Y-74873500D01*
G75*
G02*
X105305500Y-75046000I-172500J0D01*
G01*
X104960500Y-75046000D01*
G75*
G02*
X104788000Y-74873500I0J172500D01*
G01*
X104788000Y-74478500D01*
G75*
G02*
X104960500Y-74306000I172500J0D01*
G01*
X105305500Y-74306000D01*
G75*
G02*
X105478000Y-74478500I0J-172500D01*
G01*
G37*
%TD*%
%TO.C,C42*%
G36*
G01*
X107048000Y-77018500D02*
X107048000Y-77413500D01*
G75*
G02*
X106875500Y-77586000I-172500J0D01*
G01*
X106530500Y-77586000D01*
G75*
G02*
X106358000Y-77413500I0J172500D01*
G01*
X106358000Y-77018500D01*
G75*
G02*
X106530500Y-76846000I172500J0D01*
G01*
X106875500Y-76846000D01*
G75*
G02*
X107048000Y-77018500I0J-172500D01*
G01*
G37*
G36*
G01*
X108018000Y-77018500D02*
X108018000Y-77413500D01*
G75*
G02*
X107845500Y-77586000I-172500J0D01*
G01*
X107500500Y-77586000D01*
G75*
G02*
X107328000Y-77413500I0J172500D01*
G01*
X107328000Y-77018500D01*
G75*
G02*
X107500500Y-76846000I172500J0D01*
G01*
X107845500Y-76846000D01*
G75*
G02*
X108018000Y-77018500I0J-172500D01*
G01*
G37*
%TD*%
%TO.C,C40*%
G36*
G01*
X79699500Y-35928000D02*
X79304500Y-35928000D01*
G75*
G02*
X79132000Y-35755500I0J172500D01*
G01*
X79132000Y-35410500D01*
G75*
G02*
X79304500Y-35238000I172500J0D01*
G01*
X79699500Y-35238000D01*
G75*
G02*
X79872000Y-35410500I0J-172500D01*
G01*
X79872000Y-35755500D01*
G75*
G02*
X79699500Y-35928000I-172500J0D01*
G01*
G37*
G36*
G01*
X79699500Y-36898000D02*
X79304500Y-36898000D01*
G75*
G02*
X79132000Y-36725500I0J172500D01*
G01*
X79132000Y-36380500D01*
G75*
G02*
X79304500Y-36208000I172500J0D01*
G01*
X79699500Y-36208000D01*
G75*
G02*
X79872000Y-36380500I0J-172500D01*
G01*
X79872000Y-36725500D01*
G75*
G02*
X79699500Y-36898000I-172500J0D01*
G01*
G37*
%TD*%
%TO.C,C39*%
G36*
G01*
X77667500Y-35928000D02*
X77272500Y-35928000D01*
G75*
G02*
X77100000Y-35755500I0J172500D01*
G01*
X77100000Y-35410500D01*
G75*
G02*
X77272500Y-35238000I172500J0D01*
G01*
X77667500Y-35238000D01*
G75*
G02*
X77840000Y-35410500I0J-172500D01*
G01*
X77840000Y-35755500D01*
G75*
G02*
X77667500Y-35928000I-172500J0D01*
G01*
G37*
G36*
G01*
X77667500Y-36898000D02*
X77272500Y-36898000D01*
G75*
G02*
X77100000Y-36725500I0J172500D01*
G01*
X77100000Y-36380500D01*
G75*
G02*
X77272500Y-36208000I172500J0D01*
G01*
X77667500Y-36208000D01*
G75*
G02*
X77840000Y-36380500I0J-172500D01*
G01*
X77840000Y-36725500D01*
G75*
G02*
X77667500Y-36898000I-172500J0D01*
G01*
G37*
%TD*%
%TO.C,C38*%
G36*
G01*
X76651500Y-35928000D02*
X76256500Y-35928000D01*
G75*
G02*
X76084000Y-35755500I0J172500D01*
G01*
X76084000Y-35410500D01*
G75*
G02*
X76256500Y-35238000I172500J0D01*
G01*
X76651500Y-35238000D01*
G75*
G02*
X76824000Y-35410500I0J-172500D01*
G01*
X76824000Y-35755500D01*
G75*
G02*
X76651500Y-35928000I-172500J0D01*
G01*
G37*
G36*
G01*
X76651500Y-36898000D02*
X76256500Y-36898000D01*
G75*
G02*
X76084000Y-36725500I0J172500D01*
G01*
X76084000Y-36380500D01*
G75*
G02*
X76256500Y-36208000I172500J0D01*
G01*
X76651500Y-36208000D01*
G75*
G02*
X76824000Y-36380500I0J-172500D01*
G01*
X76824000Y-36725500D01*
G75*
G02*
X76651500Y-36898000I-172500J0D01*
G01*
G37*
%TD*%
%TO.C,C28*%
G36*
G01*
X72446500Y-92088000D02*
X72841500Y-92088000D01*
G75*
G02*
X73014000Y-92260500I0J-172500D01*
G01*
X73014000Y-92605500D01*
G75*
G02*
X72841500Y-92778000I-172500J0D01*
G01*
X72446500Y-92778000D01*
G75*
G02*
X72274000Y-92605500I0J172500D01*
G01*
X72274000Y-92260500D01*
G75*
G02*
X72446500Y-92088000I172500J0D01*
G01*
G37*
G36*
G01*
X72446500Y-91118000D02*
X72841500Y-91118000D01*
G75*
G02*
X73014000Y-91290500I0J-172500D01*
G01*
X73014000Y-91635500D01*
G75*
G02*
X72841500Y-91808000I-172500J0D01*
G01*
X72446500Y-91808000D01*
G75*
G02*
X72274000Y-91635500I0J172500D01*
G01*
X72274000Y-91290500D01*
G75*
G02*
X72446500Y-91118000I172500J0D01*
G01*
G37*
%TD*%
%TO.C,C25*%
G36*
G01*
X80886000Y-81336500D02*
X80886000Y-81731500D01*
G75*
G02*
X80713500Y-81904000I-172500J0D01*
G01*
X80368500Y-81904000D01*
G75*
G02*
X80196000Y-81731500I0J172500D01*
G01*
X80196000Y-81336500D01*
G75*
G02*
X80368500Y-81164000I172500J0D01*
G01*
X80713500Y-81164000D01*
G75*
G02*
X80886000Y-81336500I0J-172500D01*
G01*
G37*
G36*
G01*
X81856000Y-81336500D02*
X81856000Y-81731500D01*
G75*
G02*
X81683500Y-81904000I-172500J0D01*
G01*
X81338500Y-81904000D01*
G75*
G02*
X81166000Y-81731500I0J172500D01*
G01*
X81166000Y-81336500D01*
G75*
G02*
X81338500Y-81164000I172500J0D01*
G01*
X81683500Y-81164000D01*
G75*
G02*
X81856000Y-81336500I0J-172500D01*
G01*
G37*
%TD*%
%TO.C,C23*%
G36*
G01*
X80886000Y-83419300D02*
X80886000Y-83814300D01*
G75*
G02*
X80713500Y-83986800I-172500J0D01*
G01*
X80368500Y-83986800D01*
G75*
G02*
X80196000Y-83814300I0J172500D01*
G01*
X80196000Y-83419300D01*
G75*
G02*
X80368500Y-83246800I172500J0D01*
G01*
X80713500Y-83246800D01*
G75*
G02*
X80886000Y-83419300I0J-172500D01*
G01*
G37*
G36*
G01*
X81856000Y-83419300D02*
X81856000Y-83814300D01*
G75*
G02*
X81683500Y-83986800I-172500J0D01*
G01*
X81338500Y-83986800D01*
G75*
G02*
X81166000Y-83814300I0J172500D01*
G01*
X81166000Y-83419300D01*
G75*
G02*
X81338500Y-83246800I172500J0D01*
G01*
X81683500Y-83246800D01*
G75*
G02*
X81856000Y-83419300I0J-172500D01*
G01*
G37*
%TD*%
%TO.C,C26*%
G36*
G01*
X81477500Y-90284000D02*
X81082500Y-90284000D01*
G75*
G02*
X80910000Y-90111500I0J172500D01*
G01*
X80910000Y-89766500D01*
G75*
G02*
X81082500Y-89594000I172500J0D01*
G01*
X81477500Y-89594000D01*
G75*
G02*
X81650000Y-89766500I0J-172500D01*
G01*
X81650000Y-90111500D01*
G75*
G02*
X81477500Y-90284000I-172500J0D01*
G01*
G37*
G36*
G01*
X81477500Y-91254000D02*
X81082500Y-91254000D01*
G75*
G02*
X80910000Y-91081500I0J172500D01*
G01*
X80910000Y-90736500D01*
G75*
G02*
X81082500Y-90564000I172500J0D01*
G01*
X81477500Y-90564000D01*
G75*
G02*
X81650000Y-90736500I0J-172500D01*
G01*
X81650000Y-91081500D01*
G75*
G02*
X81477500Y-91254000I-172500J0D01*
G01*
G37*
%TD*%
%TO.C,C24*%
G36*
G01*
X81928000Y-92145500D02*
X81928000Y-91750500D01*
G75*
G02*
X82100500Y-91578000I172500J0D01*
G01*
X82445500Y-91578000D01*
G75*
G02*
X82618000Y-91750500I0J-172500D01*
G01*
X82618000Y-92145500D01*
G75*
G02*
X82445500Y-92318000I-172500J0D01*
G01*
X82100500Y-92318000D01*
G75*
G02*
X81928000Y-92145500I0J172500D01*
G01*
G37*
G36*
G01*
X80958000Y-92145500D02*
X80958000Y-91750500D01*
G75*
G02*
X81130500Y-91578000I172500J0D01*
G01*
X81475500Y-91578000D01*
G75*
G02*
X81648000Y-91750500I0J-172500D01*
G01*
X81648000Y-92145500D01*
G75*
G02*
X81475500Y-92318000I-172500J0D01*
G01*
X81130500Y-92318000D01*
G75*
G02*
X80958000Y-92145500I0J172500D01*
G01*
G37*
%TD*%
%TO.C,C22*%
G36*
G01*
X96971500Y-29070000D02*
X96576500Y-29070000D01*
G75*
G02*
X96404000Y-28897500I0J172500D01*
G01*
X96404000Y-28552500D01*
G75*
G02*
X96576500Y-28380000I172500J0D01*
G01*
X96971500Y-28380000D01*
G75*
G02*
X97144000Y-28552500I0J-172500D01*
G01*
X97144000Y-28897500D01*
G75*
G02*
X96971500Y-29070000I-172500J0D01*
G01*
G37*
G36*
G01*
X96971500Y-30040000D02*
X96576500Y-30040000D01*
G75*
G02*
X96404000Y-29867500I0J172500D01*
G01*
X96404000Y-29522500D01*
G75*
G02*
X96576500Y-29350000I172500J0D01*
G01*
X96971500Y-29350000D01*
G75*
G02*
X97144000Y-29522500I0J-172500D01*
G01*
X97144000Y-29867500D01*
G75*
G02*
X96971500Y-30040000I-172500J0D01*
G01*
G37*
%TD*%
%TO.C,C20*%
G36*
G01*
X121849500Y-32271000D02*
X122244500Y-32271000D01*
G75*
G02*
X122417000Y-32443500I0J-172500D01*
G01*
X122417000Y-32788500D01*
G75*
G02*
X122244500Y-32961000I-172500J0D01*
G01*
X121849500Y-32961000D01*
G75*
G02*
X121677000Y-32788500I0J172500D01*
G01*
X121677000Y-32443500D01*
G75*
G02*
X121849500Y-32271000I172500J0D01*
G01*
G37*
G36*
G01*
X121849500Y-31301000D02*
X122244500Y-31301000D01*
G75*
G02*
X122417000Y-31473500I0J-172500D01*
G01*
X122417000Y-31818500D01*
G75*
G02*
X122244500Y-31991000I-172500J0D01*
G01*
X121849500Y-31991000D01*
G75*
G02*
X121677000Y-31818500I0J172500D01*
G01*
X121677000Y-31473500D01*
G75*
G02*
X121849500Y-31301000I172500J0D01*
G01*
G37*
%TD*%
%TO.C,C19*%
G36*
G01*
X55740000Y-32949500D02*
X55740000Y-33344500D01*
G75*
G02*
X55567500Y-33517000I-172500J0D01*
G01*
X55222500Y-33517000D01*
G75*
G02*
X55050000Y-33344500I0J172500D01*
G01*
X55050000Y-32949500D01*
G75*
G02*
X55222500Y-32777000I172500J0D01*
G01*
X55567500Y-32777000D01*
G75*
G02*
X55740000Y-32949500I0J-172500D01*
G01*
G37*
G36*
G01*
X56710000Y-32949500D02*
X56710000Y-33344500D01*
G75*
G02*
X56537500Y-33517000I-172500J0D01*
G01*
X56192500Y-33517000D01*
G75*
G02*
X56020000Y-33344500I0J172500D01*
G01*
X56020000Y-32949500D01*
G75*
G02*
X56192500Y-32777000I172500J0D01*
G01*
X56537500Y-32777000D01*
G75*
G02*
X56710000Y-32949500I0J-172500D01*
G01*
G37*
%TD*%
%TO.C,C18*%
G36*
G01*
X113848500Y-82182000D02*
X114243500Y-82182000D01*
G75*
G02*
X114416000Y-82354500I0J-172500D01*
G01*
X114416000Y-82699500D01*
G75*
G02*
X114243500Y-82872000I-172500J0D01*
G01*
X113848500Y-82872000D01*
G75*
G02*
X113676000Y-82699500I0J172500D01*
G01*
X113676000Y-82354500D01*
G75*
G02*
X113848500Y-82182000I172500J0D01*
G01*
G37*
G36*
G01*
X113848500Y-81212000D02*
X114243500Y-81212000D01*
G75*
G02*
X114416000Y-81384500I0J-172500D01*
G01*
X114416000Y-81729500D01*
G75*
G02*
X114243500Y-81902000I-172500J0D01*
G01*
X113848500Y-81902000D01*
G75*
G02*
X113676000Y-81729500I0J172500D01*
G01*
X113676000Y-81384500D01*
G75*
G02*
X113848500Y-81212000I172500J0D01*
G01*
G37*
%TD*%
%TO.C,C16*%
G36*
G01*
X93669500Y-40500000D02*
X93274500Y-40500000D01*
G75*
G02*
X93102000Y-40327500I0J172500D01*
G01*
X93102000Y-39982500D01*
G75*
G02*
X93274500Y-39810000I172500J0D01*
G01*
X93669500Y-39810000D01*
G75*
G02*
X93842000Y-39982500I0J-172500D01*
G01*
X93842000Y-40327500D01*
G75*
G02*
X93669500Y-40500000I-172500J0D01*
G01*
G37*
G36*
G01*
X93669500Y-41470000D02*
X93274500Y-41470000D01*
G75*
G02*
X93102000Y-41297500I0J172500D01*
G01*
X93102000Y-40952500D01*
G75*
G02*
X93274500Y-40780000I172500J0D01*
G01*
X93669500Y-40780000D01*
G75*
G02*
X93842000Y-40952500I0J-172500D01*
G01*
X93842000Y-41297500D01*
G75*
G02*
X93669500Y-41470000I-172500J0D01*
G01*
G37*
%TD*%
%TO.C,C15*%
G36*
G01*
X93034500Y-58788000D02*
X92639500Y-58788000D01*
G75*
G02*
X92467000Y-58615500I0J172500D01*
G01*
X92467000Y-58270500D01*
G75*
G02*
X92639500Y-58098000I172500J0D01*
G01*
X93034500Y-58098000D01*
G75*
G02*
X93207000Y-58270500I0J-172500D01*
G01*
X93207000Y-58615500D01*
G75*
G02*
X93034500Y-58788000I-172500J0D01*
G01*
G37*
G36*
G01*
X93034500Y-59758000D02*
X92639500Y-59758000D01*
G75*
G02*
X92467000Y-59585500I0J172500D01*
G01*
X92467000Y-59240500D01*
G75*
G02*
X92639500Y-59068000I172500J0D01*
G01*
X93034500Y-59068000D01*
G75*
G02*
X93207000Y-59240500I0J-172500D01*
G01*
X93207000Y-59585500D01*
G75*
G02*
X93034500Y-59758000I-172500J0D01*
G01*
G37*
%TD*%
%TO.C,C13*%
G36*
G01*
X121863500Y-82664000D02*
X121468500Y-82664000D01*
G75*
G02*
X121296000Y-82491500I0J172500D01*
G01*
X121296000Y-82146500D01*
G75*
G02*
X121468500Y-81974000I172500J0D01*
G01*
X121863500Y-81974000D01*
G75*
G02*
X122036000Y-82146500I0J-172500D01*
G01*
X122036000Y-82491500D01*
G75*
G02*
X121863500Y-82664000I-172500J0D01*
G01*
G37*
G36*
G01*
X121863500Y-83634000D02*
X121468500Y-83634000D01*
G75*
G02*
X121296000Y-83461500I0J172500D01*
G01*
X121296000Y-83116500D01*
G75*
G02*
X121468500Y-82944000I172500J0D01*
G01*
X121863500Y-82944000D01*
G75*
G02*
X122036000Y-83116500I0J-172500D01*
G01*
X122036000Y-83461500D01*
G75*
G02*
X121863500Y-83634000I-172500J0D01*
G01*
G37*
%TD*%
%TO.C,C11*%
G36*
G01*
X93655500Y-59068000D02*
X94050500Y-59068000D01*
G75*
G02*
X94223000Y-59240500I0J-172500D01*
G01*
X94223000Y-59585500D01*
G75*
G02*
X94050500Y-59758000I-172500J0D01*
G01*
X93655500Y-59758000D01*
G75*
G02*
X93483000Y-59585500I0J172500D01*
G01*
X93483000Y-59240500D01*
G75*
G02*
X93655500Y-59068000I172500J0D01*
G01*
G37*
G36*
G01*
X93655500Y-58098000D02*
X94050500Y-58098000D01*
G75*
G02*
X94223000Y-58270500I0J-172500D01*
G01*
X94223000Y-58615500D01*
G75*
G02*
X94050500Y-58788000I-172500J0D01*
G01*
X93655500Y-58788000D01*
G75*
G02*
X93483000Y-58615500I0J172500D01*
G01*
X93483000Y-58270500D01*
G75*
G02*
X93655500Y-58098000I172500J0D01*
G01*
G37*
%TD*%
%TO.C,C9*%
G36*
G01*
X88956500Y-66688000D02*
X89351500Y-66688000D01*
G75*
G02*
X89524000Y-66860500I0J-172500D01*
G01*
X89524000Y-67205500D01*
G75*
G02*
X89351500Y-67378000I-172500J0D01*
G01*
X88956500Y-67378000D01*
G75*
G02*
X88784000Y-67205500I0J172500D01*
G01*
X88784000Y-66860500D01*
G75*
G02*
X88956500Y-66688000I172500J0D01*
G01*
G37*
G36*
G01*
X88956500Y-65718000D02*
X89351500Y-65718000D01*
G75*
G02*
X89524000Y-65890500I0J-172500D01*
G01*
X89524000Y-66235500D01*
G75*
G02*
X89351500Y-66408000I-172500J0D01*
G01*
X88956500Y-66408000D01*
G75*
G02*
X88784000Y-66235500I0J172500D01*
G01*
X88784000Y-65890500D01*
G75*
G02*
X88956500Y-65718000I172500J0D01*
G01*
G37*
%TD*%
%TO.C,C8*%
G36*
G01*
X55682500Y-22619000D02*
X56077500Y-22619000D01*
G75*
G02*
X56250000Y-22791500I0J-172500D01*
G01*
X56250000Y-23136500D01*
G75*
G02*
X56077500Y-23309000I-172500J0D01*
G01*
X55682500Y-23309000D01*
G75*
G02*
X55510000Y-23136500I0J172500D01*
G01*
X55510000Y-22791500D01*
G75*
G02*
X55682500Y-22619000I172500J0D01*
G01*
G37*
G36*
G01*
X55682500Y-21649000D02*
X56077500Y-21649000D01*
G75*
G02*
X56250000Y-21821500I0J-172500D01*
G01*
X56250000Y-22166500D01*
G75*
G02*
X56077500Y-22339000I-172500J0D01*
G01*
X55682500Y-22339000D01*
G75*
G02*
X55510000Y-22166500I0J172500D01*
G01*
X55510000Y-21821500D01*
G75*
G02*
X55682500Y-21649000I172500J0D01*
G01*
G37*
%TD*%
%TO.C,C6*%
G36*
G01*
X51886500Y-27292000D02*
X51491500Y-27292000D01*
G75*
G02*
X51319000Y-27119500I0J172500D01*
G01*
X51319000Y-26774500D01*
G75*
G02*
X51491500Y-26602000I172500J0D01*
G01*
X51886500Y-26602000D01*
G75*
G02*
X52059000Y-26774500I0J-172500D01*
G01*
X52059000Y-27119500D01*
G75*
G02*
X51886500Y-27292000I-172500J0D01*
G01*
G37*
G36*
G01*
X51886500Y-28262000D02*
X51491500Y-28262000D01*
G75*
G02*
X51319000Y-28089500I0J172500D01*
G01*
X51319000Y-27744500D01*
G75*
G02*
X51491500Y-27572000I172500J0D01*
G01*
X51886500Y-27572000D01*
G75*
G02*
X52059000Y-27744500I0J-172500D01*
G01*
X52059000Y-28089500D01*
G75*
G02*
X51886500Y-28262000I-172500J0D01*
G01*
G37*
%TD*%
%TO.C,C5*%
G36*
G01*
X116218000Y-39059500D02*
X116218000Y-38664500D01*
G75*
G02*
X116390500Y-38492000I172500J0D01*
G01*
X116735500Y-38492000D01*
G75*
G02*
X116908000Y-38664500I0J-172500D01*
G01*
X116908000Y-39059500D01*
G75*
G02*
X116735500Y-39232000I-172500J0D01*
G01*
X116390500Y-39232000D01*
G75*
G02*
X116218000Y-39059500I0J172500D01*
G01*
G37*
G36*
G01*
X115248000Y-39059500D02*
X115248000Y-38664500D01*
G75*
G02*
X115420500Y-38492000I172500J0D01*
G01*
X115765500Y-38492000D01*
G75*
G02*
X115938000Y-38664500I0J-172500D01*
G01*
X115938000Y-39059500D01*
G75*
G02*
X115765500Y-39232000I-172500J0D01*
G01*
X115420500Y-39232000D01*
G75*
G02*
X115248000Y-39059500I0J172500D01*
G01*
G37*
%TD*%
%TO.C,C4*%
G36*
G01*
X107244500Y-28588000D02*
X107639500Y-28588000D01*
G75*
G02*
X107812000Y-28760500I0J-172500D01*
G01*
X107812000Y-29105500D01*
G75*
G02*
X107639500Y-29278000I-172500J0D01*
G01*
X107244500Y-29278000D01*
G75*
G02*
X107072000Y-29105500I0J172500D01*
G01*
X107072000Y-28760500D01*
G75*
G02*
X107244500Y-28588000I172500J0D01*
G01*
G37*
G36*
G01*
X107244500Y-27618000D02*
X107639500Y-27618000D01*
G75*
G02*
X107812000Y-27790500I0J-172500D01*
G01*
X107812000Y-28135500D01*
G75*
G02*
X107639500Y-28308000I-172500J0D01*
G01*
X107244500Y-28308000D01*
G75*
G02*
X107072000Y-28135500I0J172500D01*
G01*
X107072000Y-27790500D01*
G75*
G02*
X107244500Y-27618000I172500J0D01*
G01*
G37*
%TD*%
%TO.C,C3*%
G36*
G01*
X108260500Y-28588000D02*
X108655500Y-28588000D01*
G75*
G02*
X108828000Y-28760500I0J-172500D01*
G01*
X108828000Y-29105500D01*
G75*
G02*
X108655500Y-29278000I-172500J0D01*
G01*
X108260500Y-29278000D01*
G75*
G02*
X108088000Y-29105500I0J172500D01*
G01*
X108088000Y-28760500D01*
G75*
G02*
X108260500Y-28588000I172500J0D01*
G01*
G37*
G36*
G01*
X108260500Y-27618000D02*
X108655500Y-27618000D01*
G75*
G02*
X108828000Y-27790500I0J-172500D01*
G01*
X108828000Y-28135500D01*
G75*
G02*
X108655500Y-28308000I-172500J0D01*
G01*
X108260500Y-28308000D01*
G75*
G02*
X108088000Y-28135500I0J172500D01*
G01*
X108088000Y-27790500D01*
G75*
G02*
X108260500Y-27618000I172500J0D01*
G01*
G37*
%TD*%
%TO.C,C2*%
G36*
G01*
X121298000Y-84525500D02*
X121298000Y-84130500D01*
G75*
G02*
X121470500Y-83958000I172500J0D01*
G01*
X121815500Y-83958000D01*
G75*
G02*
X121988000Y-84130500I0J-172500D01*
G01*
X121988000Y-84525500D01*
G75*
G02*
X121815500Y-84698000I-172500J0D01*
G01*
X121470500Y-84698000D01*
G75*
G02*
X121298000Y-84525500I0J172500D01*
G01*
G37*
G36*
G01*
X120328000Y-84525500D02*
X120328000Y-84130500D01*
G75*
G02*
X120500500Y-83958000I172500J0D01*
G01*
X120845500Y-83958000D01*
G75*
G02*
X121018000Y-84130500I0J-172500D01*
G01*
X121018000Y-84525500D01*
G75*
G02*
X120845500Y-84698000I-172500J0D01*
G01*
X120500500Y-84698000D01*
G75*
G02*
X120328000Y-84525500I0J172500D01*
G01*
G37*
%TD*%
%TO.C,J4*%
G36*
G01*
X59493000Y-26582000D02*
X60793000Y-26582000D01*
G75*
G02*
X60968000Y-26757000I0J-175000D01*
G01*
X60968000Y-27107000D01*
G75*
G02*
X60793000Y-27282000I-175000J0D01*
G01*
X59493000Y-27282000D01*
G75*
G02*
X59318000Y-27107000I0J175000D01*
G01*
X59318000Y-26757000D01*
G75*
G02*
X59493000Y-26582000I175000J0D01*
G01*
G37*
G36*
G01*
X59493000Y-27582000D02*
X60793000Y-27582000D01*
G75*
G02*
X60968000Y-27757000I0J-175000D01*
G01*
X60968000Y-28107000D01*
G75*
G02*
X60793000Y-28282000I-175000J0D01*
G01*
X59493000Y-28282000D01*
G75*
G02*
X59318000Y-28107000I0J175000D01*
G01*
X59318000Y-27757000D01*
G75*
G02*
X59493000Y-27582000I175000J0D01*
G01*
G37*
G36*
G01*
X61988832Y-24982000D02*
X63347168Y-24982000D01*
G75*
G02*
X63618000Y-25252832I0J-270832D01*
G01*
X63618000Y-26011168D01*
G75*
G02*
X63347168Y-26282000I-270832J0D01*
G01*
X61988832Y-26282000D01*
G75*
G02*
X61718000Y-26011168I0J270832D01*
G01*
X61718000Y-25252832D01*
G75*
G02*
X61988832Y-24982000I270832J0D01*
G01*
G37*
G36*
G01*
X61988832Y-28582000D02*
X63347168Y-28582000D01*
G75*
G02*
X63618000Y-28852832I0J-270832D01*
G01*
X63618000Y-29611168D01*
G75*
G02*
X63347168Y-29882000I-270832J0D01*
G01*
X61988832Y-29882000D01*
G75*
G02*
X61718000Y-29611168I0J270832D01*
G01*
X61718000Y-28852832D01*
G75*
G02*
X61988832Y-28582000I270832J0D01*
G01*
G37*
%TD*%
%TO.C,C17*%
G36*
G01*
X90269750Y-58720000D02*
X90832250Y-58720000D01*
G75*
G02*
X91076000Y-58963750I0J-243750D01*
G01*
X91076000Y-59451250D01*
G75*
G02*
X90832250Y-59695000I-243750J0D01*
G01*
X90269750Y-59695000D01*
G75*
G02*
X90026000Y-59451250I0J243750D01*
G01*
X90026000Y-58963750D01*
G75*
G02*
X90269750Y-58720000I243750J0D01*
G01*
G37*
G36*
G01*
X90269750Y-57145000D02*
X90832250Y-57145000D01*
G75*
G02*
X91076000Y-57388750I0J-243750D01*
G01*
X91076000Y-57876250D01*
G75*
G02*
X90832250Y-58120000I-243750J0D01*
G01*
X90269750Y-58120000D01*
G75*
G02*
X90026000Y-57876250I0J243750D01*
G01*
X90026000Y-57388750D01*
G75*
G02*
X90269750Y-57145000I243750J0D01*
G01*
G37*
%TD*%
%TO.C,C12*%
G36*
G01*
X94841750Y-58720000D02*
X95404250Y-58720000D01*
G75*
G02*
X95648000Y-58963750I0J-243750D01*
G01*
X95648000Y-59451250D01*
G75*
G02*
X95404250Y-59695000I-243750J0D01*
G01*
X94841750Y-59695000D01*
G75*
G02*
X94598000Y-59451250I0J243750D01*
G01*
X94598000Y-58963750D01*
G75*
G02*
X94841750Y-58720000I243750J0D01*
G01*
G37*
G36*
G01*
X94841750Y-57145000D02*
X95404250Y-57145000D01*
G75*
G02*
X95648000Y-57388750I0J-243750D01*
G01*
X95648000Y-57876250D01*
G75*
G02*
X95404250Y-58120000I-243750J0D01*
G01*
X94841750Y-58120000D01*
G75*
G02*
X94598000Y-57876250I0J243750D01*
G01*
X94598000Y-57388750D01*
G75*
G02*
X94841750Y-57145000I243750J0D01*
G01*
G37*
%TD*%
%TO.C,C10*%
G36*
G01*
X90142750Y-66340000D02*
X90705250Y-66340000D01*
G75*
G02*
X90949000Y-66583750I0J-243750D01*
G01*
X90949000Y-67071250D01*
G75*
G02*
X90705250Y-67315000I-243750J0D01*
G01*
X90142750Y-67315000D01*
G75*
G02*
X89899000Y-67071250I0J243750D01*
G01*
X89899000Y-66583750D01*
G75*
G02*
X90142750Y-66340000I243750J0D01*
G01*
G37*
G36*
G01*
X90142750Y-64765000D02*
X90705250Y-64765000D01*
G75*
G02*
X90949000Y-65008750I0J-243750D01*
G01*
X90949000Y-65496250D01*
G75*
G02*
X90705250Y-65740000I-243750J0D01*
G01*
X90142750Y-65740000D01*
G75*
G02*
X89899000Y-65496250I0J243750D01*
G01*
X89899000Y-65008750D01*
G75*
G02*
X90142750Y-64765000I243750J0D01*
G01*
G37*
%TD*%
D32*
%TO.C,D8*%
X69850000Y-39590000D03*
X69850000Y-41690000D03*
%TD*%
%TO.C,D4*%
X36449000Y-69249000D03*
X36449000Y-67149000D03*
%TD*%
%TO.C,D3*%
X38481000Y-69249000D03*
X38481000Y-67149000D03*
%TD*%
%TO.C,C77*%
G36*
G01*
X32431000Y-65559250D02*
X32431000Y-64996750D01*
G75*
G02*
X32674750Y-64753000I243750J0D01*
G01*
X33162250Y-64753000D01*
G75*
G02*
X33406000Y-64996750I0J-243750D01*
G01*
X33406000Y-65559250D01*
G75*
G02*
X33162250Y-65803000I-243750J0D01*
G01*
X32674750Y-65803000D01*
G75*
G02*
X32431000Y-65559250I0J243750D01*
G01*
G37*
G36*
G01*
X30856000Y-65559250D02*
X30856000Y-64996750D01*
G75*
G02*
X31099750Y-64753000I243750J0D01*
G01*
X31587250Y-64753000D01*
G75*
G02*
X31831000Y-64996750I0J-243750D01*
G01*
X31831000Y-65559250D01*
G75*
G02*
X31587250Y-65803000I-243750J0D01*
G01*
X31099750Y-65803000D01*
G75*
G02*
X30856000Y-65559250I0J243750D01*
G01*
G37*
%TD*%
%TO.C,C37*%
G36*
G01*
X121058250Y-31450000D02*
X120495750Y-31450000D01*
G75*
G02*
X120252000Y-31206250I0J243750D01*
G01*
X120252000Y-30718750D01*
G75*
G02*
X120495750Y-30475000I243750J0D01*
G01*
X121058250Y-30475000D01*
G75*
G02*
X121302000Y-30718750I0J-243750D01*
G01*
X121302000Y-31206250D01*
G75*
G02*
X121058250Y-31450000I-243750J0D01*
G01*
G37*
G36*
G01*
X121058250Y-33025000D02*
X120495750Y-33025000D01*
G75*
G02*
X120252000Y-32781250I0J243750D01*
G01*
X120252000Y-32293750D01*
G75*
G02*
X120495750Y-32050000I243750J0D01*
G01*
X121058250Y-32050000D01*
G75*
G02*
X121302000Y-32293750I0J-243750D01*
G01*
X121302000Y-32781250D01*
G75*
G02*
X121058250Y-33025000I-243750J0D01*
G01*
G37*
%TD*%
%TO.C,AE2*%
G36*
G01*
X34026168Y-68158000D02*
X32267832Y-68158000D01*
G75*
G02*
X31997000Y-67887168I0J270832D01*
G01*
X31997000Y-67128832D01*
G75*
G02*
X32267832Y-66858000I270832J0D01*
G01*
X34026168Y-66858000D01*
G75*
G02*
X34297000Y-67128832I0J-270832D01*
G01*
X34297000Y-67887168D01*
G75*
G02*
X34026168Y-68158000I-270832J0D01*
G01*
G37*
G36*
G01*
X34026168Y-73858000D02*
X32267832Y-73858000D01*
G75*
G02*
X31997000Y-73587168I0J270832D01*
G01*
X31997000Y-72828832D01*
G75*
G02*
X32267832Y-72558000I270832J0D01*
G01*
X34026168Y-72558000D01*
G75*
G02*
X34297000Y-72828832I0J-270832D01*
G01*
X34297000Y-73587168D01*
G75*
G02*
X34026168Y-73858000I-270832J0D01*
G01*
G37*
%TD*%
D33*
%TO.C,D6*%
X52544000Y-53213000D03*
X54644000Y-53213000D03*
%TD*%
D32*
%TO.C,D5*%
X70104000Y-67530000D03*
X70104000Y-69630000D03*
%TD*%
D34*
%TO.C,U7*%
X81310000Y-43156000D03*
D17*
X80560000Y-42406000D03*
X80560000Y-43906000D03*
X82060000Y-42406000D03*
X82060000Y-43906000D03*
D35*
X83510000Y-46256000D03*
X83110000Y-46256000D03*
X82710000Y-46256000D03*
X82310000Y-46256000D03*
X81910000Y-46256000D03*
X81510000Y-46256000D03*
X81110000Y-46256000D03*
X80710000Y-46256000D03*
X80310000Y-46256000D03*
X79910000Y-46256000D03*
X79510000Y-46256000D03*
X79110000Y-46256000D03*
D36*
X78210000Y-45356000D03*
X78210000Y-44956000D03*
X78210000Y-44556000D03*
X78210000Y-44156000D03*
X78210000Y-43756000D03*
X78210000Y-43356000D03*
X78210000Y-42956000D03*
X78210000Y-42556000D03*
X78210000Y-42156000D03*
X78210000Y-41756000D03*
X78210000Y-41356000D03*
X78210000Y-40956000D03*
D35*
X79110000Y-40056000D03*
X79510000Y-40056000D03*
X79910000Y-40056000D03*
X80310000Y-40056000D03*
X80710000Y-40056000D03*
X81110000Y-40056000D03*
X81510000Y-40056000D03*
X81910000Y-40056000D03*
X82310000Y-40056000D03*
X82710000Y-40056000D03*
X83110000Y-40056000D03*
X83510000Y-40056000D03*
D36*
X84410000Y-40956000D03*
X84410000Y-41356000D03*
X84410000Y-41756000D03*
X84410000Y-42156000D03*
X84410000Y-42556000D03*
X84410000Y-42956000D03*
X84410000Y-43356000D03*
X84410000Y-43756000D03*
X84410000Y-44156000D03*
X84410000Y-44556000D03*
X84410000Y-44956000D03*
X84410000Y-45356000D03*
%TD*%
%TO.C,TH1*%
G36*
G01*
X77262000Y-49811250D02*
X77262000Y-49248750D01*
G75*
G02*
X77505750Y-49005000I243750J0D01*
G01*
X77993250Y-49005000D01*
G75*
G02*
X78237000Y-49248750I0J-243750D01*
G01*
X78237000Y-49811250D01*
G75*
G02*
X77993250Y-50055000I-243750J0D01*
G01*
X77505750Y-50055000D01*
G75*
G02*
X77262000Y-49811250I0J243750D01*
G01*
G37*
G36*
G01*
X75687000Y-49811250D02*
X75687000Y-49248750D01*
G75*
G02*
X75930750Y-49005000I243750J0D01*
G01*
X76418250Y-49005000D01*
G75*
G02*
X76662000Y-49248750I0J-243750D01*
G01*
X76662000Y-49811250D01*
G75*
G02*
X76418250Y-50055000I-243750J0D01*
G01*
X75930750Y-50055000D01*
G75*
G02*
X75687000Y-49811250I0J243750D01*
G01*
G37*
%TD*%
%TO.C,R58*%
G36*
G01*
X78966750Y-52370000D02*
X79529250Y-52370000D01*
G75*
G02*
X79773000Y-52613750I0J-243750D01*
G01*
X79773000Y-53101250D01*
G75*
G02*
X79529250Y-53345000I-243750J0D01*
G01*
X78966750Y-53345000D01*
G75*
G02*
X78723000Y-53101250I0J243750D01*
G01*
X78723000Y-52613750D01*
G75*
G02*
X78966750Y-52370000I243750J0D01*
G01*
G37*
G36*
G01*
X78966750Y-50795000D02*
X79529250Y-50795000D01*
G75*
G02*
X79773000Y-51038750I0J-243750D01*
G01*
X79773000Y-51526250D01*
G75*
G02*
X79529250Y-51770000I-243750J0D01*
G01*
X78966750Y-51770000D01*
G75*
G02*
X78723000Y-51526250I0J243750D01*
G01*
X78723000Y-51038750D01*
G75*
G02*
X78966750Y-50795000I243750J0D01*
G01*
G37*
%TD*%
%TO.C,L4*%
G36*
G01*
X81642000Y-32648000D02*
X81642000Y-34408000D01*
G75*
G02*
X81372000Y-34678000I-270000J0D01*
G01*
X80562000Y-34678000D01*
G75*
G02*
X80292000Y-34408000I0J270000D01*
G01*
X80292000Y-32648000D01*
G75*
G02*
X80562000Y-32378000I270000J0D01*
G01*
X81372000Y-32378000D01*
G75*
G02*
X81642000Y-32648000I0J-270000D01*
G01*
G37*
G36*
G01*
X83792000Y-32648000D02*
X83792000Y-34408000D01*
G75*
G02*
X83522000Y-34678000I-270000J0D01*
G01*
X82712000Y-34678000D01*
G75*
G02*
X82442000Y-34408000I0J270000D01*
G01*
X82442000Y-32648000D01*
G75*
G02*
X82712000Y-32378000I270000J0D01*
G01*
X83522000Y-32378000D01*
G75*
G02*
X83792000Y-32648000I0J-270000D01*
G01*
G37*
%TD*%
%TO.C,L3*%
G36*
G01*
X89780000Y-41764000D02*
X88020000Y-41764000D01*
G75*
G02*
X87750000Y-41494000I0J270000D01*
G01*
X87750000Y-40684000D01*
G75*
G02*
X88020000Y-40414000I270000J0D01*
G01*
X89780000Y-40414000D01*
G75*
G02*
X90050000Y-40684000I0J-270000D01*
G01*
X90050000Y-41494000D01*
G75*
G02*
X89780000Y-41764000I-270000J0D01*
G01*
G37*
G36*
G01*
X89780000Y-43914000D02*
X88020000Y-43914000D01*
G75*
G02*
X87750000Y-43644000I0J270000D01*
G01*
X87750000Y-42834000D01*
G75*
G02*
X88020000Y-42564000I270000J0D01*
G01*
X89780000Y-42564000D01*
G75*
G02*
X90050000Y-42834000I0J-270000D01*
G01*
X90050000Y-43644000D01*
G75*
G02*
X89780000Y-43914000I-270000J0D01*
G01*
G37*
%TD*%
%TO.C,L2*%
G36*
G01*
X81642000Y-51190000D02*
X81642000Y-52950000D01*
G75*
G02*
X81372000Y-53220000I-270000J0D01*
G01*
X80562000Y-53220000D01*
G75*
G02*
X80292000Y-52950000I0J270000D01*
G01*
X80292000Y-51190000D01*
G75*
G02*
X80562000Y-50920000I270000J0D01*
G01*
X81372000Y-50920000D01*
G75*
G02*
X81642000Y-51190000I0J-270000D01*
G01*
G37*
G36*
G01*
X83792000Y-51190000D02*
X83792000Y-52950000D01*
G75*
G02*
X83522000Y-53220000I-270000J0D01*
G01*
X82712000Y-53220000D01*
G75*
G02*
X82442000Y-52950000I0J270000D01*
G01*
X82442000Y-51190000D01*
G75*
G02*
X82712000Y-50920000I270000J0D01*
G01*
X83522000Y-50920000D01*
G75*
G02*
X83792000Y-51190000I0J-270000D01*
G01*
G37*
%TD*%
D32*
%TO.C,D9*%
X113157000Y-32478000D03*
X113157000Y-34578000D03*
%TD*%
D33*
%TO.C,D2*%
X69562000Y-37973000D03*
X71662000Y-37973000D03*
%TD*%
%TO.C,C67*%
G36*
G01*
X78186000Y-47724750D02*
X78186000Y-48287250D01*
G75*
G02*
X77942250Y-48531000I-243750J0D01*
G01*
X77454750Y-48531000D01*
G75*
G02*
X77211000Y-48287250I0J243750D01*
G01*
X77211000Y-47724750D01*
G75*
G02*
X77454750Y-47481000I243750J0D01*
G01*
X77942250Y-47481000D01*
G75*
G02*
X78186000Y-47724750I0J-243750D01*
G01*
G37*
G36*
G01*
X79761000Y-47724750D02*
X79761000Y-48287250D01*
G75*
G02*
X79517250Y-48531000I-243750J0D01*
G01*
X79029750Y-48531000D01*
G75*
G02*
X78786000Y-48287250I0J243750D01*
G01*
X78786000Y-47724750D01*
G75*
G02*
X79029750Y-47481000I243750J0D01*
G01*
X79517250Y-47481000D01*
G75*
G02*
X79761000Y-47724750I0J-243750D01*
G01*
G37*
%TD*%
%TO.C,C66*%
G36*
G01*
X82342000Y-31523250D02*
X82342000Y-30960750D01*
G75*
G02*
X82585750Y-30717000I243750J0D01*
G01*
X83073250Y-30717000D01*
G75*
G02*
X83317000Y-30960750I0J-243750D01*
G01*
X83317000Y-31523250D01*
G75*
G02*
X83073250Y-31767000I-243750J0D01*
G01*
X82585750Y-31767000D01*
G75*
G02*
X82342000Y-31523250I0J243750D01*
G01*
G37*
G36*
G01*
X80767000Y-31523250D02*
X80767000Y-30960750D01*
G75*
G02*
X81010750Y-30717000I243750J0D01*
G01*
X81498250Y-30717000D01*
G75*
G02*
X81742000Y-30960750I0J-243750D01*
G01*
X81742000Y-31523250D01*
G75*
G02*
X81498250Y-31767000I-243750J0D01*
G01*
X81010750Y-31767000D01*
G75*
G02*
X80767000Y-31523250I0J243750D01*
G01*
G37*
%TD*%
%TO.C,C65*%
G36*
G01*
X91467250Y-39832000D02*
X90904750Y-39832000D01*
G75*
G02*
X90661000Y-39588250I0J243750D01*
G01*
X90661000Y-39100750D01*
G75*
G02*
X90904750Y-38857000I243750J0D01*
G01*
X91467250Y-38857000D01*
G75*
G02*
X91711000Y-39100750I0J-243750D01*
G01*
X91711000Y-39588250D01*
G75*
G02*
X91467250Y-39832000I-243750J0D01*
G01*
G37*
G36*
G01*
X91467250Y-41407000D02*
X90904750Y-41407000D01*
G75*
G02*
X90661000Y-41163250I0J243750D01*
G01*
X90661000Y-40675750D01*
G75*
G02*
X90904750Y-40432000I243750J0D01*
G01*
X91467250Y-40432000D01*
G75*
G02*
X91711000Y-40675750I0J-243750D01*
G01*
X91711000Y-41163250D01*
G75*
G02*
X91467250Y-41407000I-243750J0D01*
G01*
G37*
%TD*%
%TO.C,C64*%
G36*
G01*
X78005250Y-51770000D02*
X77442750Y-51770000D01*
G75*
G02*
X77199000Y-51526250I0J243750D01*
G01*
X77199000Y-51038750D01*
G75*
G02*
X77442750Y-50795000I243750J0D01*
G01*
X78005250Y-50795000D01*
G75*
G02*
X78249000Y-51038750I0J-243750D01*
G01*
X78249000Y-51526250D01*
G75*
G02*
X78005250Y-51770000I-243750J0D01*
G01*
G37*
G36*
G01*
X78005250Y-53345000D02*
X77442750Y-53345000D01*
G75*
G02*
X77199000Y-53101250I0J243750D01*
G01*
X77199000Y-52613750D01*
G75*
G02*
X77442750Y-52370000I243750J0D01*
G01*
X78005250Y-52370000D01*
G75*
G02*
X78249000Y-52613750I0J-243750D01*
G01*
X78249000Y-53101250D01*
G75*
G02*
X78005250Y-53345000I-243750J0D01*
G01*
G37*
%TD*%
%TO.C,C63*%
G36*
G01*
X74214000Y-38381250D02*
X74214000Y-37818750D01*
G75*
G02*
X74457750Y-37575000I243750J0D01*
G01*
X74945250Y-37575000D01*
G75*
G02*
X75189000Y-37818750I0J-243750D01*
G01*
X75189000Y-38381250D01*
G75*
G02*
X74945250Y-38625000I-243750J0D01*
G01*
X74457750Y-38625000D01*
G75*
G02*
X74214000Y-38381250I0J243750D01*
G01*
G37*
G36*
G01*
X72639000Y-38381250D02*
X72639000Y-37818750D01*
G75*
G02*
X72882750Y-37575000I243750J0D01*
G01*
X73370250Y-37575000D01*
G75*
G02*
X73614000Y-37818750I0J-243750D01*
G01*
X73614000Y-38381250D01*
G75*
G02*
X73370250Y-38625000I-243750J0D01*
G01*
X72882750Y-38625000D01*
G75*
G02*
X72639000Y-38381250I0J243750D01*
G01*
G37*
%TD*%
%TO.C,C62*%
G36*
G01*
X88600000Y-39088750D02*
X88600000Y-39651250D01*
G75*
G02*
X88356250Y-39895000I-243750J0D01*
G01*
X87868750Y-39895000D01*
G75*
G02*
X87625000Y-39651250I0J243750D01*
G01*
X87625000Y-39088750D01*
G75*
G02*
X87868750Y-38845000I243750J0D01*
G01*
X88356250Y-38845000D01*
G75*
G02*
X88600000Y-39088750I0J-243750D01*
G01*
G37*
G36*
G01*
X90175000Y-39088750D02*
X90175000Y-39651250D01*
G75*
G02*
X89931250Y-39895000I-243750J0D01*
G01*
X89443750Y-39895000D01*
G75*
G02*
X89200000Y-39651250I0J243750D01*
G01*
X89200000Y-39088750D01*
G75*
G02*
X89443750Y-38845000I243750J0D01*
G01*
X89931250Y-38845000D01*
G75*
G02*
X90175000Y-39088750I0J-243750D01*
G01*
G37*
%TD*%
%TO.C,C61*%
G36*
G01*
X73706000Y-45112250D02*
X73706000Y-44549750D01*
G75*
G02*
X73949750Y-44306000I243750J0D01*
G01*
X74437250Y-44306000D01*
G75*
G02*
X74681000Y-44549750I0J-243750D01*
G01*
X74681000Y-45112250D01*
G75*
G02*
X74437250Y-45356000I-243750J0D01*
G01*
X73949750Y-45356000D01*
G75*
G02*
X73706000Y-45112250I0J243750D01*
G01*
G37*
G36*
G01*
X72131000Y-45112250D02*
X72131000Y-44549750D01*
G75*
G02*
X72374750Y-44306000I243750J0D01*
G01*
X72862250Y-44306000D01*
G75*
G02*
X73106000Y-44549750I0J-243750D01*
G01*
X73106000Y-45112250D01*
G75*
G02*
X72862250Y-45356000I-243750J0D01*
G01*
X72374750Y-45356000D01*
G75*
G02*
X72131000Y-45112250I0J243750D01*
G01*
G37*
%TD*%
%TO.C,C60*%
G36*
G01*
X80310000Y-49811250D02*
X80310000Y-49248750D01*
G75*
G02*
X80553750Y-49005000I243750J0D01*
G01*
X81041250Y-49005000D01*
G75*
G02*
X81285000Y-49248750I0J-243750D01*
G01*
X81285000Y-49811250D01*
G75*
G02*
X81041250Y-50055000I-243750J0D01*
G01*
X80553750Y-50055000D01*
G75*
G02*
X80310000Y-49811250I0J243750D01*
G01*
G37*
G36*
G01*
X78735000Y-49811250D02*
X78735000Y-49248750D01*
G75*
G02*
X78978750Y-49005000I243750J0D01*
G01*
X79466250Y-49005000D01*
G75*
G02*
X79710000Y-49248750I0J-243750D01*
G01*
X79710000Y-49811250D01*
G75*
G02*
X79466250Y-50055000I-243750J0D01*
G01*
X78978750Y-50055000D01*
G75*
G02*
X78735000Y-49811250I0J243750D01*
G01*
G37*
%TD*%
%TO.C,C59*%
G36*
G01*
X88600000Y-37564750D02*
X88600000Y-38127250D01*
G75*
G02*
X88356250Y-38371000I-243750J0D01*
G01*
X87868750Y-38371000D01*
G75*
G02*
X87625000Y-38127250I0J243750D01*
G01*
X87625000Y-37564750D01*
G75*
G02*
X87868750Y-37321000I243750J0D01*
G01*
X88356250Y-37321000D01*
G75*
G02*
X88600000Y-37564750I0J-243750D01*
G01*
G37*
G36*
G01*
X90175000Y-37564750D02*
X90175000Y-38127250D01*
G75*
G02*
X89931250Y-38371000I-243750J0D01*
G01*
X89443750Y-38371000D01*
G75*
G02*
X89200000Y-38127250I0J243750D01*
G01*
X89200000Y-37564750D01*
G75*
G02*
X89443750Y-37321000I243750J0D01*
G01*
X89931250Y-37321000D01*
G75*
G02*
X90175000Y-37564750I0J-243750D01*
G01*
G37*
%TD*%
%TO.C,C58*%
G36*
G01*
X71346750Y-40813000D02*
X71909250Y-40813000D01*
G75*
G02*
X72153000Y-41056750I0J-243750D01*
G01*
X72153000Y-41544250D01*
G75*
G02*
X71909250Y-41788000I-243750J0D01*
G01*
X71346750Y-41788000D01*
G75*
G02*
X71103000Y-41544250I0J243750D01*
G01*
X71103000Y-41056750D01*
G75*
G02*
X71346750Y-40813000I243750J0D01*
G01*
G37*
G36*
G01*
X71346750Y-39238000D02*
X71909250Y-39238000D01*
G75*
G02*
X72153000Y-39481750I0J-243750D01*
G01*
X72153000Y-39969250D01*
G75*
G02*
X71909250Y-40213000I-243750J0D01*
G01*
X71346750Y-40213000D01*
G75*
G02*
X71103000Y-39969250I0J243750D01*
G01*
X71103000Y-39481750D01*
G75*
G02*
X71346750Y-39238000I243750J0D01*
G01*
G37*
%TD*%
%TO.C,C57*%
G36*
G01*
X85570750Y-33828000D02*
X86133250Y-33828000D01*
G75*
G02*
X86377000Y-34071750I0J-243750D01*
G01*
X86377000Y-34559250D01*
G75*
G02*
X86133250Y-34803000I-243750J0D01*
G01*
X85570750Y-34803000D01*
G75*
G02*
X85327000Y-34559250I0J243750D01*
G01*
X85327000Y-34071750D01*
G75*
G02*
X85570750Y-33828000I243750J0D01*
G01*
G37*
G36*
G01*
X85570750Y-32253000D02*
X86133250Y-32253000D01*
G75*
G02*
X86377000Y-32496750I0J-243750D01*
G01*
X86377000Y-32984250D01*
G75*
G02*
X86133250Y-33228000I-243750J0D01*
G01*
X85570750Y-33228000D01*
G75*
G02*
X85327000Y-32984250I0J243750D01*
G01*
X85327000Y-32496750D01*
G75*
G02*
X85570750Y-32253000I243750J0D01*
G01*
G37*
%TD*%
%TO.C,C56*%
G36*
G01*
X84790000Y-35532750D02*
X84790000Y-36095250D01*
G75*
G02*
X84546250Y-36339000I-243750J0D01*
G01*
X84058750Y-36339000D01*
G75*
G02*
X83815000Y-36095250I0J243750D01*
G01*
X83815000Y-35532750D01*
G75*
G02*
X84058750Y-35289000I243750J0D01*
G01*
X84546250Y-35289000D01*
G75*
G02*
X84790000Y-35532750I0J-243750D01*
G01*
G37*
G36*
G01*
X86365000Y-35532750D02*
X86365000Y-36095250D01*
G75*
G02*
X86121250Y-36339000I-243750J0D01*
G01*
X85633750Y-36339000D01*
G75*
G02*
X85390000Y-36095250I0J243750D01*
G01*
X85390000Y-35532750D01*
G75*
G02*
X85633750Y-35289000I243750J0D01*
G01*
X86121250Y-35289000D01*
G75*
G02*
X86365000Y-35532750I0J-243750D01*
G01*
G37*
%TD*%
%TO.C,C55*%
G36*
G01*
X91648000Y-47153250D02*
X91648000Y-47715750D01*
G75*
G02*
X91404250Y-47959500I-243750J0D01*
G01*
X90916750Y-47959500D01*
G75*
G02*
X90673000Y-47715750I0J243750D01*
G01*
X90673000Y-47153250D01*
G75*
G02*
X90916750Y-46909500I243750J0D01*
G01*
X91404250Y-46909500D01*
G75*
G02*
X91648000Y-47153250I0J-243750D01*
G01*
G37*
G36*
G01*
X93223000Y-47153250D02*
X93223000Y-47715750D01*
G75*
G02*
X92979250Y-47959500I-243750J0D01*
G01*
X92491750Y-47959500D01*
G75*
G02*
X92248000Y-47715750I0J243750D01*
G01*
X92248000Y-47153250D01*
G75*
G02*
X92491750Y-46909500I243750J0D01*
G01*
X92979250Y-46909500D01*
G75*
G02*
X93223000Y-47153250I0J-243750D01*
G01*
G37*
%TD*%
%TO.C,C54*%
G36*
G01*
X84554750Y-52370000D02*
X85117250Y-52370000D01*
G75*
G02*
X85361000Y-52613750I0J-243750D01*
G01*
X85361000Y-53101250D01*
G75*
G02*
X85117250Y-53345000I-243750J0D01*
G01*
X84554750Y-53345000D01*
G75*
G02*
X84311000Y-53101250I0J243750D01*
G01*
X84311000Y-52613750D01*
G75*
G02*
X84554750Y-52370000I243750J0D01*
G01*
G37*
G36*
G01*
X84554750Y-50795000D02*
X85117250Y-50795000D01*
G75*
G02*
X85361000Y-51038750I0J-243750D01*
G01*
X85361000Y-51526250D01*
G75*
G02*
X85117250Y-51770000I-243750J0D01*
G01*
X84554750Y-51770000D01*
G75*
G02*
X84311000Y-51526250I0J243750D01*
G01*
X84311000Y-51038750D01*
G75*
G02*
X84554750Y-50795000I243750J0D01*
G01*
G37*
%TD*%
%TO.C,C41*%
G36*
G01*
X82088000Y-36095250D02*
X82088000Y-35532750D01*
G75*
G02*
X82331750Y-35289000I243750J0D01*
G01*
X82819250Y-35289000D01*
G75*
G02*
X83063000Y-35532750I0J-243750D01*
G01*
X83063000Y-36095250D01*
G75*
G02*
X82819250Y-36339000I-243750J0D01*
G01*
X82331750Y-36339000D01*
G75*
G02*
X82088000Y-36095250I0J243750D01*
G01*
G37*
G36*
G01*
X80513000Y-36095250D02*
X80513000Y-35532750D01*
G75*
G02*
X80756750Y-35289000I243750J0D01*
G01*
X81244250Y-35289000D01*
G75*
G02*
X81488000Y-35532750I0J-243750D01*
G01*
X81488000Y-36095250D01*
G75*
G02*
X81244250Y-36339000I-243750J0D01*
G01*
X80756750Y-36339000D01*
G75*
G02*
X80513000Y-36095250I0J243750D01*
G01*
G37*
%TD*%
%TO.C,C36*%
G36*
G01*
X68724500Y-42835250D02*
X68724500Y-43397750D01*
G75*
G02*
X68480750Y-43641500I-243750J0D01*
G01*
X67993250Y-43641500D01*
G75*
G02*
X67749500Y-43397750I0J243750D01*
G01*
X67749500Y-42835250D01*
G75*
G02*
X67993250Y-42591500I243750J0D01*
G01*
X68480750Y-42591500D01*
G75*
G02*
X68724500Y-42835250I0J-243750D01*
G01*
G37*
G36*
G01*
X70299500Y-42835250D02*
X70299500Y-43397750D01*
G75*
G02*
X70055750Y-43641500I-243750J0D01*
G01*
X69568250Y-43641500D01*
G75*
G02*
X69324500Y-43397750I0J243750D01*
G01*
X69324500Y-42835250D01*
G75*
G02*
X69568250Y-42591500I243750J0D01*
G01*
X70055750Y-42591500D01*
G75*
G02*
X70299500Y-42835250I0J-243750D01*
G01*
G37*
%TD*%
%TO.C,C35*%
G36*
G01*
X89200000Y-45239250D02*
X89200000Y-44676750D01*
G75*
G02*
X89443750Y-44433000I243750J0D01*
G01*
X89931250Y-44433000D01*
G75*
G02*
X90175000Y-44676750I0J-243750D01*
G01*
X90175000Y-45239250D01*
G75*
G02*
X89931250Y-45483000I-243750J0D01*
G01*
X89443750Y-45483000D01*
G75*
G02*
X89200000Y-45239250I0J243750D01*
G01*
G37*
G36*
G01*
X87625000Y-45239250D02*
X87625000Y-44676750D01*
G75*
G02*
X87868750Y-44433000I243750J0D01*
G01*
X88356250Y-44433000D01*
G75*
G02*
X88600000Y-44676750I0J-243750D01*
G01*
X88600000Y-45239250D01*
G75*
G02*
X88356250Y-45483000I-243750J0D01*
G01*
X87868750Y-45483000D01*
G75*
G02*
X87625000Y-45239250I0J243750D01*
G01*
G37*
%TD*%
D37*
%TO.C,J5*%
X71120000Y-34036000D03*
G36*
G01*
X70095000Y-26486000D02*
X72145000Y-26486000D01*
G75*
G02*
X72920000Y-27261000I0J-775000D01*
G01*
X72920000Y-28811000D01*
G75*
G02*
X72145000Y-29586000I-775000J0D01*
G01*
X70095000Y-29586000D01*
G75*
G02*
X69320000Y-28811000I0J775000D01*
G01*
X69320000Y-27261000D01*
G75*
G02*
X70095000Y-26486000I775000J0D01*
G01*
G37*
G36*
G01*
X65520000Y-29236000D02*
X67320000Y-29236000D01*
G75*
G02*
X68220000Y-30136000I0J-900000D01*
G01*
X68220000Y-31936000D01*
G75*
G02*
X67320000Y-32836000I-900000J0D01*
G01*
X65520000Y-32836000D01*
G75*
G02*
X64620000Y-31936000I0J900000D01*
G01*
X64620000Y-30136000D01*
G75*
G02*
X65520000Y-29236000I900000J0D01*
G01*
G37*
%TD*%
D21*
%TO.C,H3*%
X122855056Y-92282944D03*
X121158000Y-91580000D03*
X119460944Y-92282944D03*
X118758000Y-93980000D03*
X119460944Y-95677056D03*
X121158000Y-96380000D03*
X122855056Y-95677056D03*
X123558000Y-93980000D03*
D38*
X121158000Y-93980000D03*
%TD*%
D21*
%TO.C,H2*%
X30907056Y-22432944D03*
X29210000Y-21730000D03*
X27512944Y-22432944D03*
X26810000Y-24130000D03*
X27512944Y-25827056D03*
X29210000Y-26530000D03*
X30907056Y-25827056D03*
X31610000Y-24130000D03*
D38*
X29210000Y-24130000D03*
%TD*%
%TO.C,D11*%
G36*
G01*
X78694000Y-30960750D02*
X78694000Y-31523250D01*
G75*
G02*
X78450250Y-31767000I-243750J0D01*
G01*
X77962750Y-31767000D01*
G75*
G02*
X77719000Y-31523250I0J243750D01*
G01*
X77719000Y-30960750D01*
G75*
G02*
X77962750Y-30717000I243750J0D01*
G01*
X78450250Y-30717000D01*
G75*
G02*
X78694000Y-30960750I0J-243750D01*
G01*
G37*
G36*
G01*
X80269000Y-30960750D02*
X80269000Y-31523250D01*
G75*
G02*
X80025250Y-31767000I-243750J0D01*
G01*
X79537750Y-31767000D01*
G75*
G02*
X79294000Y-31523250I0J243750D01*
G01*
X79294000Y-30960750D01*
G75*
G02*
X79537750Y-30717000I243750J0D01*
G01*
X80025250Y-30717000D01*
G75*
G02*
X80269000Y-30960750I0J-243750D01*
G01*
G37*
%TD*%
D39*
%TO.C,Y1*%
X106335000Y-69596000D03*
X104485000Y-69596000D03*
%TD*%
%TO.C,C76*%
G36*
G01*
X112494750Y-83866000D02*
X113057250Y-83866000D01*
G75*
G02*
X113301000Y-84109750I0J-243750D01*
G01*
X113301000Y-84597250D01*
G75*
G02*
X113057250Y-84841000I-243750J0D01*
G01*
X112494750Y-84841000D01*
G75*
G02*
X112251000Y-84597250I0J243750D01*
G01*
X112251000Y-84109750D01*
G75*
G02*
X112494750Y-83866000I243750J0D01*
G01*
G37*
G36*
G01*
X112494750Y-82291000D02*
X113057250Y-82291000D01*
G75*
G02*
X113301000Y-82534750I0J-243750D01*
G01*
X113301000Y-83022250D01*
G75*
G02*
X113057250Y-83266000I-243750J0D01*
G01*
X112494750Y-83266000D01*
G75*
G02*
X112251000Y-83022250I0J243750D01*
G01*
X112251000Y-82534750D01*
G75*
G02*
X112494750Y-82291000I243750J0D01*
G01*
G37*
%TD*%
%TO.C,C75*%
G36*
G01*
X113057250Y-80218000D02*
X112494750Y-80218000D01*
G75*
G02*
X112251000Y-79974250I0J243750D01*
G01*
X112251000Y-79486750D01*
G75*
G02*
X112494750Y-79243000I243750J0D01*
G01*
X113057250Y-79243000D01*
G75*
G02*
X113301000Y-79486750I0J-243750D01*
G01*
X113301000Y-79974250D01*
G75*
G02*
X113057250Y-80218000I-243750J0D01*
G01*
G37*
G36*
G01*
X113057250Y-81793000D02*
X112494750Y-81793000D01*
G75*
G02*
X112251000Y-81549250I0J243750D01*
G01*
X112251000Y-81061750D01*
G75*
G02*
X112494750Y-80818000I243750J0D01*
G01*
X113057250Y-80818000D01*
G75*
G02*
X113301000Y-81061750I0J-243750D01*
G01*
X113301000Y-81549250D01*
G75*
G02*
X113057250Y-81793000I-243750J0D01*
G01*
G37*
%TD*%
%TO.C,C74*%
G36*
G01*
X107234000Y-68099250D02*
X107234000Y-67536750D01*
G75*
G02*
X107477750Y-67293000I243750J0D01*
G01*
X107965250Y-67293000D01*
G75*
G02*
X108209000Y-67536750I0J-243750D01*
G01*
X108209000Y-68099250D01*
G75*
G02*
X107965250Y-68343000I-243750J0D01*
G01*
X107477750Y-68343000D01*
G75*
G02*
X107234000Y-68099250I0J243750D01*
G01*
G37*
G36*
G01*
X105659000Y-68099250D02*
X105659000Y-67536750D01*
G75*
G02*
X105902750Y-67293000I243750J0D01*
G01*
X106390250Y-67293000D01*
G75*
G02*
X106634000Y-67536750I0J-243750D01*
G01*
X106634000Y-68099250D01*
G75*
G02*
X106390250Y-68343000I-243750J0D01*
G01*
X105902750Y-68343000D01*
G75*
G02*
X105659000Y-68099250I0J243750D01*
G01*
G37*
%TD*%
%TO.C,C73*%
G36*
G01*
X103586000Y-67536750D02*
X103586000Y-68099250D01*
G75*
G02*
X103342250Y-68343000I-243750J0D01*
G01*
X102854750Y-68343000D01*
G75*
G02*
X102611000Y-68099250I0J243750D01*
G01*
X102611000Y-67536750D01*
G75*
G02*
X102854750Y-67293000I243750J0D01*
G01*
X103342250Y-67293000D01*
G75*
G02*
X103586000Y-67536750I0J-243750D01*
G01*
G37*
G36*
G01*
X105161000Y-67536750D02*
X105161000Y-68099250D01*
G75*
G02*
X104917250Y-68343000I-243750J0D01*
G01*
X104429750Y-68343000D01*
G75*
G02*
X104186000Y-68099250I0J243750D01*
G01*
X104186000Y-67536750D01*
G75*
G02*
X104429750Y-67293000I243750J0D01*
G01*
X104917250Y-67293000D01*
G75*
G02*
X105161000Y-67536750I0J-243750D01*
G01*
G37*
%TD*%
%TO.C,C71*%
G36*
G01*
X101782500Y-69314750D02*
X101782500Y-69877250D01*
G75*
G02*
X101538750Y-70121000I-243750J0D01*
G01*
X101051250Y-70121000D01*
G75*
G02*
X100807500Y-69877250I0J243750D01*
G01*
X100807500Y-69314750D01*
G75*
G02*
X101051250Y-69071000I243750J0D01*
G01*
X101538750Y-69071000D01*
G75*
G02*
X101782500Y-69314750I0J-243750D01*
G01*
G37*
G36*
G01*
X103357500Y-69314750D02*
X103357500Y-69877250D01*
G75*
G02*
X103113750Y-70121000I-243750J0D01*
G01*
X102626250Y-70121000D01*
G75*
G02*
X102382500Y-69877250I0J243750D01*
G01*
X102382500Y-69314750D01*
G75*
G02*
X102626250Y-69071000I243750J0D01*
G01*
X103113750Y-69071000D01*
G75*
G02*
X103357500Y-69314750I0J-243750D01*
G01*
G37*
%TD*%
D40*
%TO.C,U12*%
X53597000Y-47801000D03*
X55097000Y-47801000D03*
X54597000Y-47801000D03*
X54097000Y-47801000D03*
D41*
X55722000Y-47176000D03*
X55722000Y-46676000D03*
X55722000Y-46176000D03*
X55722000Y-45676000D03*
D40*
X53597000Y-45051000D03*
X54597000Y-45051000D03*
X54097000Y-45051000D03*
X55097000Y-45051000D03*
D41*
X52972000Y-45676000D03*
X52972000Y-47176000D03*
X52972000Y-46676000D03*
X52972000Y-46176000D03*
%TD*%
%TO.C,C83*%
G36*
G01*
X50772750Y-46655000D02*
X51335250Y-46655000D01*
G75*
G02*
X51579000Y-46898750I0J-243750D01*
G01*
X51579000Y-47386250D01*
G75*
G02*
X51335250Y-47630000I-243750J0D01*
G01*
X50772750Y-47630000D01*
G75*
G02*
X50529000Y-47386250I0J243750D01*
G01*
X50529000Y-46898750D01*
G75*
G02*
X50772750Y-46655000I243750J0D01*
G01*
G37*
G36*
G01*
X50772750Y-45080000D02*
X51335250Y-45080000D01*
G75*
G02*
X51579000Y-45323750I0J-243750D01*
G01*
X51579000Y-45811250D01*
G75*
G02*
X51335250Y-46055000I-243750J0D01*
G01*
X50772750Y-46055000D01*
G75*
G02*
X50529000Y-45811250I0J243750D01*
G01*
X50529000Y-45323750D01*
G75*
G02*
X50772750Y-45080000I243750J0D01*
G01*
G37*
%TD*%
D42*
%TO.C,MK1*%
X107150000Y-22814000D03*
X108750000Y-22814000D03*
%TD*%
D43*
%TO.C,U14*%
X61306000Y-46517000D03*
X60906000Y-46517000D03*
X60506000Y-46517000D03*
X60106000Y-46517000D03*
X60906000Y-46917000D03*
X60506000Y-46917000D03*
X60106000Y-46917000D03*
X61306000Y-47317000D03*
X60906000Y-47317000D03*
X60106000Y-47317000D03*
X61306000Y-47717000D03*
X60906000Y-47717000D03*
X60506000Y-47717000D03*
X60106000Y-47717000D03*
%TD*%
D44*
%TO.C,U13*%
X60178000Y-49031000D03*
X59678000Y-49031000D03*
X59178000Y-49031000D03*
X58678000Y-49031000D03*
X58178000Y-49031000D03*
X57678000Y-49031000D03*
D45*
X56778000Y-49931000D03*
X56778000Y-50431000D03*
X56778000Y-50931000D03*
X56778000Y-51431000D03*
X56778000Y-51931000D03*
X56778000Y-52431000D03*
D44*
X57678000Y-53331000D03*
X58178000Y-53331000D03*
X58678000Y-53331000D03*
X59178000Y-53331000D03*
X59678000Y-53331000D03*
X60178000Y-53331000D03*
D45*
X61078000Y-52431000D03*
X61078000Y-51931000D03*
X61078000Y-51431000D03*
X61078000Y-50931000D03*
X61078000Y-50431000D03*
X61078000Y-49931000D03*
%TD*%
D46*
%TO.C,U10*%
X66564000Y-73492000D03*
X67064000Y-73492000D03*
X67564000Y-73492000D03*
X68064000Y-73492000D03*
X68564000Y-73492000D03*
X68564000Y-77892000D03*
X68064000Y-77892000D03*
X67564000Y-77892000D03*
X67064000Y-77892000D03*
X66564000Y-77892000D03*
%TD*%
D47*
%TO.C,U9*%
X41068000Y-74422000D03*
X41068000Y-75372000D03*
X41068000Y-73472000D03*
X43768000Y-73472000D03*
X43768000Y-74422000D03*
X43768000Y-75372000D03*
%TD*%
D48*
%TO.C,U1*%
X93152000Y-44788000D03*
X91252000Y-44788000D03*
X91252000Y-42588000D03*
X92202000Y-42588000D03*
X93152000Y-42588000D03*
%TD*%
%TO.C,U3*%
G36*
G01*
X56730000Y-28682000D02*
X56980000Y-28682000D01*
G75*
G02*
X57105000Y-28807000I0J-125000D01*
G01*
X57105000Y-30282000D01*
G75*
G02*
X56980000Y-30407000I-125000J0D01*
G01*
X56730000Y-30407000D01*
G75*
G02*
X56605000Y-30282000I0J125000D01*
G01*
X56605000Y-28807000D01*
G75*
G02*
X56730000Y-28682000I125000J0D01*
G01*
G37*
G36*
G01*
X56080000Y-28682000D02*
X56330000Y-28682000D01*
G75*
G02*
X56455000Y-28807000I0J-125000D01*
G01*
X56455000Y-30282000D01*
G75*
G02*
X56330000Y-30407000I-125000J0D01*
G01*
X56080000Y-30407000D01*
G75*
G02*
X55955000Y-30282000I0J125000D01*
G01*
X55955000Y-28807000D01*
G75*
G02*
X56080000Y-28682000I125000J0D01*
G01*
G37*
G36*
G01*
X55430000Y-28682000D02*
X55680000Y-28682000D01*
G75*
G02*
X55805000Y-28807000I0J-125000D01*
G01*
X55805000Y-30282000D01*
G75*
G02*
X55680000Y-30407000I-125000J0D01*
G01*
X55430000Y-30407000D01*
G75*
G02*
X55305000Y-30282000I0J125000D01*
G01*
X55305000Y-28807000D01*
G75*
G02*
X55430000Y-28682000I125000J0D01*
G01*
G37*
G36*
G01*
X54780000Y-28682000D02*
X55030000Y-28682000D01*
G75*
G02*
X55155000Y-28807000I0J-125000D01*
G01*
X55155000Y-30282000D01*
G75*
G02*
X55030000Y-30407000I-125000J0D01*
G01*
X54780000Y-30407000D01*
G75*
G02*
X54655000Y-30282000I0J125000D01*
G01*
X54655000Y-28807000D01*
G75*
G02*
X54780000Y-28682000I125000J0D01*
G01*
G37*
G36*
G01*
X54780000Y-24457000D02*
X55030000Y-24457000D01*
G75*
G02*
X55155000Y-24582000I0J-125000D01*
G01*
X55155000Y-26057000D01*
G75*
G02*
X55030000Y-26182000I-125000J0D01*
G01*
X54780000Y-26182000D01*
G75*
G02*
X54655000Y-26057000I0J125000D01*
G01*
X54655000Y-24582000D01*
G75*
G02*
X54780000Y-24457000I125000J0D01*
G01*
G37*
G36*
G01*
X55430000Y-24457000D02*
X55680000Y-24457000D01*
G75*
G02*
X55805000Y-24582000I0J-125000D01*
G01*
X55805000Y-26057000D01*
G75*
G02*
X55680000Y-26182000I-125000J0D01*
G01*
X55430000Y-26182000D01*
G75*
G02*
X55305000Y-26057000I0J125000D01*
G01*
X55305000Y-24582000D01*
G75*
G02*
X55430000Y-24457000I125000J0D01*
G01*
G37*
G36*
G01*
X56080000Y-24457000D02*
X56330000Y-24457000D01*
G75*
G02*
X56455000Y-24582000I0J-125000D01*
G01*
X56455000Y-26057000D01*
G75*
G02*
X56330000Y-26182000I-125000J0D01*
G01*
X56080000Y-26182000D01*
G75*
G02*
X55955000Y-26057000I0J125000D01*
G01*
X55955000Y-24582000D01*
G75*
G02*
X56080000Y-24457000I125000J0D01*
G01*
G37*
G36*
G01*
X56730000Y-24457000D02*
X56980000Y-24457000D01*
G75*
G02*
X57105000Y-24582000I0J-125000D01*
G01*
X57105000Y-26057000D01*
G75*
G02*
X56980000Y-26182000I-125000J0D01*
G01*
X56730000Y-26182000D01*
G75*
G02*
X56605000Y-26057000I0J125000D01*
G01*
X56605000Y-24582000D01*
G75*
G02*
X56730000Y-24457000I125000J0D01*
G01*
G37*
%TD*%
D49*
%TO.C,U2*%
X119258000Y-81126000D03*
X119258000Y-83026000D03*
X117058000Y-83026000D03*
X117058000Y-82076000D03*
X117058000Y-81126000D03*
%TD*%
D42*
%TO.C,TP2*%
X41656000Y-71374000D03*
%TD*%
%TO.C,TP1*%
X46736000Y-72644000D03*
%TD*%
D50*
%TO.C,SW2*%
X99060000Y-26670000D03*
X96520000Y-26670000D03*
X101600000Y-26670000D03*
D51*
X104460000Y-21960000D03*
X93660000Y-21960000D03*
D52*
X96560000Y-22860000D03*
X101560000Y-22860000D03*
%TD*%
D53*
%TO.C,SW1*%
X122390000Y-54896000D03*
X122390000Y-58896000D03*
X123990000Y-54896000D03*
X123990000Y-58896000D03*
D21*
X124090000Y-56896000D03*
X122290000Y-56896000D03*
%TD*%
%TO.C,R61*%
G36*
G01*
X44930750Y-78024000D02*
X45493250Y-78024000D01*
G75*
G02*
X45737000Y-78267750I0J-243750D01*
G01*
X45737000Y-78755250D01*
G75*
G02*
X45493250Y-78999000I-243750J0D01*
G01*
X44930750Y-78999000D01*
G75*
G02*
X44687000Y-78755250I0J243750D01*
G01*
X44687000Y-78267750D01*
G75*
G02*
X44930750Y-78024000I243750J0D01*
G01*
G37*
G36*
G01*
X44930750Y-76449000D02*
X45493250Y-76449000D01*
G75*
G02*
X45737000Y-76692750I0J-243750D01*
G01*
X45737000Y-77180250D01*
G75*
G02*
X45493250Y-77424000I-243750J0D01*
G01*
X44930750Y-77424000D01*
G75*
G02*
X44687000Y-77180250I0J243750D01*
G01*
X44687000Y-76692750D01*
G75*
G02*
X44930750Y-76449000I243750J0D01*
G01*
G37*
%TD*%
%TO.C,L5*%
G36*
G01*
X42018000Y-76844000D02*
X42018000Y-78604000D01*
G75*
G02*
X41748000Y-78874000I-270000J0D01*
G01*
X40938000Y-78874000D01*
G75*
G02*
X40668000Y-78604000I0J270000D01*
G01*
X40668000Y-76844000D01*
G75*
G02*
X40938000Y-76574000I270000J0D01*
G01*
X41748000Y-76574000D01*
G75*
G02*
X42018000Y-76844000I0J-270000D01*
G01*
G37*
G36*
G01*
X44168000Y-76844000D02*
X44168000Y-78604000D01*
G75*
G02*
X43898000Y-78874000I-270000J0D01*
G01*
X43088000Y-78874000D01*
G75*
G02*
X42818000Y-78604000I0J270000D01*
G01*
X42818000Y-76844000D01*
G75*
G02*
X43088000Y-76574000I270000J0D01*
G01*
X43898000Y-76574000D01*
G75*
G02*
X44168000Y-76844000I0J-270000D01*
G01*
G37*
%TD*%
%TO.C,L1*%
G36*
G01*
X117758000Y-84498000D02*
X117758000Y-86258000D01*
G75*
G02*
X117488000Y-86528000I-270000J0D01*
G01*
X116678000Y-86528000D01*
G75*
G02*
X116408000Y-86258000I0J270000D01*
G01*
X116408000Y-84498000D01*
G75*
G02*
X116678000Y-84228000I270000J0D01*
G01*
X117488000Y-84228000D01*
G75*
G02*
X117758000Y-84498000I0J-270000D01*
G01*
G37*
G36*
G01*
X119908000Y-84498000D02*
X119908000Y-86258000D01*
G75*
G02*
X119638000Y-86528000I-270000J0D01*
G01*
X118828000Y-86528000D01*
G75*
G02*
X118558000Y-86258000I0J270000D01*
G01*
X118558000Y-84498000D01*
G75*
G02*
X118828000Y-84228000I270000J0D01*
G01*
X119638000Y-84228000D01*
G75*
G02*
X119908000Y-84498000I0J-270000D01*
G01*
G37*
%TD*%
D54*
%TO.C,J3*%
X51054000Y-86408000D03*
X51054000Y-92408000D03*
D55*
X54654000Y-85208000D03*
X54654000Y-92208000D03*
X47454000Y-90208000D03*
%TD*%
D33*
%TO.C,D13*%
X41876000Y-80264000D03*
X43976000Y-80264000D03*
%TD*%
%TO.C,D10*%
G36*
G01*
X89200000Y-47715750D02*
X89200000Y-47153250D01*
G75*
G02*
X89443750Y-46909500I243750J0D01*
G01*
X89931250Y-46909500D01*
G75*
G02*
X90175000Y-47153250I0J-243750D01*
G01*
X90175000Y-47715750D01*
G75*
G02*
X89931250Y-47959500I-243750J0D01*
G01*
X89443750Y-47959500D01*
G75*
G02*
X89200000Y-47715750I0J243750D01*
G01*
G37*
G36*
G01*
X87625000Y-47715750D02*
X87625000Y-47153250D01*
G75*
G02*
X87868750Y-46909500I243750J0D01*
G01*
X88356250Y-46909500D01*
G75*
G02*
X88600000Y-47153250I0J-243750D01*
G01*
X88600000Y-47715750D01*
G75*
G02*
X88356250Y-47959500I-243750J0D01*
G01*
X87868750Y-47959500D01*
G75*
G02*
X87625000Y-47715750I0J243750D01*
G01*
G37*
%TD*%
%TO.C,C72*%
G36*
G01*
X39905250Y-77424000D02*
X39342750Y-77424000D01*
G75*
G02*
X39099000Y-77180250I0J243750D01*
G01*
X39099000Y-76692750D01*
G75*
G02*
X39342750Y-76449000I243750J0D01*
G01*
X39905250Y-76449000D01*
G75*
G02*
X40149000Y-76692750I0J-243750D01*
G01*
X40149000Y-77180250D01*
G75*
G02*
X39905250Y-77424000I-243750J0D01*
G01*
G37*
G36*
G01*
X39905250Y-78999000D02*
X39342750Y-78999000D01*
G75*
G02*
X39099000Y-78755250I0J243750D01*
G01*
X39099000Y-78267750D01*
G75*
G02*
X39342750Y-78024000I243750J0D01*
G01*
X39905250Y-78024000D01*
G75*
G02*
X40149000Y-78267750I0J-243750D01*
G01*
X40149000Y-78755250D01*
G75*
G02*
X39905250Y-78999000I-243750J0D01*
G01*
G37*
%TD*%
%TO.C,C70*%
G36*
G01*
X44930750Y-81072000D02*
X45493250Y-81072000D01*
G75*
G02*
X45737000Y-81315750I0J-243750D01*
G01*
X45737000Y-81803250D01*
G75*
G02*
X45493250Y-82047000I-243750J0D01*
G01*
X44930750Y-82047000D01*
G75*
G02*
X44687000Y-81803250I0J243750D01*
G01*
X44687000Y-81315750D01*
G75*
G02*
X44930750Y-81072000I243750J0D01*
G01*
G37*
G36*
G01*
X44930750Y-79497000D02*
X45493250Y-79497000D01*
G75*
G02*
X45737000Y-79740750I0J-243750D01*
G01*
X45737000Y-80228250D01*
G75*
G02*
X45493250Y-80472000I-243750J0D01*
G01*
X44930750Y-80472000D01*
G75*
G02*
X44687000Y-80228250I0J243750D01*
G01*
X44687000Y-79740750D01*
G75*
G02*
X44930750Y-79497000I243750J0D01*
G01*
G37*
%TD*%
%TO.C,C14*%
G36*
G01*
X115034750Y-82342000D02*
X115597250Y-82342000D01*
G75*
G02*
X115841000Y-82585750I0J-243750D01*
G01*
X115841000Y-83073250D01*
G75*
G02*
X115597250Y-83317000I-243750J0D01*
G01*
X115034750Y-83317000D01*
G75*
G02*
X114791000Y-83073250I0J243750D01*
G01*
X114791000Y-82585750D01*
G75*
G02*
X115034750Y-82342000I243750J0D01*
G01*
G37*
G36*
G01*
X115034750Y-80767000D02*
X115597250Y-80767000D01*
G75*
G02*
X115841000Y-81010750I0J-243750D01*
G01*
X115841000Y-81498250D01*
G75*
G02*
X115597250Y-81742000I-243750J0D01*
G01*
X115034750Y-81742000D01*
G75*
G02*
X114791000Y-81498250I0J243750D01*
G01*
X114791000Y-81010750D01*
G75*
G02*
X115034750Y-80767000I243750J0D01*
G01*
G37*
%TD*%
%TO.C,C1*%
G36*
G01*
X115597250Y-84790000D02*
X115034750Y-84790000D01*
G75*
G02*
X114791000Y-84546250I0J243750D01*
G01*
X114791000Y-84058750D01*
G75*
G02*
X115034750Y-83815000I243750J0D01*
G01*
X115597250Y-83815000D01*
G75*
G02*
X115841000Y-84058750I0J-243750D01*
G01*
X115841000Y-84546250D01*
G75*
G02*
X115597250Y-84790000I-243750J0D01*
G01*
G37*
G36*
G01*
X115597250Y-86365000D02*
X115034750Y-86365000D01*
G75*
G02*
X114791000Y-86121250I0J243750D01*
G01*
X114791000Y-85633750D01*
G75*
G02*
X115034750Y-85390000I243750J0D01*
G01*
X115597250Y-85390000D01*
G75*
G02*
X115841000Y-85633750I0J-243750D01*
G01*
X115841000Y-86121250D01*
G75*
G02*
X115597250Y-86365000I-243750J0D01*
G01*
G37*
%TD*%
D56*
%TO.C,U5*%
X75920000Y-92923000D03*
X75920000Y-92273000D03*
D57*
X75720000Y-91623000D03*
X75720000Y-90973000D03*
X79220000Y-90973000D03*
D56*
X79020000Y-91623000D03*
D57*
X79220000Y-92273000D03*
X79220000Y-92923000D03*
D58*
X77470000Y-91948000D03*
D59*
X77020000Y-91323000D03*
X77920000Y-91323000D03*
X77020000Y-92573000D03*
X77920000Y-92573000D03*
D57*
X75720000Y-92923000D03*
X75720000Y-92273000D03*
D56*
X75920000Y-91623000D03*
X75920000Y-90973000D03*
X79020000Y-90973000D03*
D57*
X79220000Y-91623000D03*
D56*
X79020000Y-92273000D03*
X79020000Y-92923000D03*
%TD*%
%TO.C,M1*%
G36*
G01*
X69422000Y-91098000D02*
X70722000Y-91098000D01*
G75*
G02*
X70897000Y-91273000I0J-175000D01*
G01*
X70897000Y-91623000D01*
G75*
G02*
X70722000Y-91798000I-175000J0D01*
G01*
X69422000Y-91798000D01*
G75*
G02*
X69247000Y-91623000I0J175000D01*
G01*
X69247000Y-91273000D01*
G75*
G02*
X69422000Y-91098000I175000J0D01*
G01*
G37*
G36*
G01*
X69422000Y-92098000D02*
X70722000Y-92098000D01*
G75*
G02*
X70897000Y-92273000I0J-175000D01*
G01*
X70897000Y-92623000D01*
G75*
G02*
X70722000Y-92798000I-175000J0D01*
G01*
X69422000Y-92798000D01*
G75*
G02*
X69247000Y-92623000I0J175000D01*
G01*
X69247000Y-92273000D01*
G75*
G02*
X69422000Y-92098000I175000J0D01*
G01*
G37*
G36*
G01*
X65517832Y-89498000D02*
X66876168Y-89498000D01*
G75*
G02*
X67147000Y-89768832I0J-270832D01*
G01*
X67147000Y-90527168D01*
G75*
G02*
X66876168Y-90798000I-270832J0D01*
G01*
X65517832Y-90798000D01*
G75*
G02*
X65247000Y-90527168I0J270832D01*
G01*
X65247000Y-89768832D01*
G75*
G02*
X65517832Y-89498000I270832J0D01*
G01*
G37*
G36*
G01*
X65517832Y-93098000D02*
X66876168Y-93098000D01*
G75*
G02*
X67147000Y-93368832I0J-270832D01*
G01*
X67147000Y-94127168D01*
G75*
G02*
X66876168Y-94398000I-270832J0D01*
G01*
X65517832Y-94398000D01*
G75*
G02*
X65247000Y-94127168I0J270832D01*
G01*
X65247000Y-93368832D01*
G75*
G02*
X65517832Y-93098000I270832J0D01*
G01*
G37*
%TD*%
D54*
%TO.C,J1*%
X43180000Y-31702000D03*
X43180000Y-25702000D03*
D55*
X39580000Y-32902000D03*
X39580000Y-25902000D03*
X46780000Y-27902000D03*
%TD*%
D60*
%TO.C,D1*%
X116078000Y-30496000D03*
X117028000Y-32496000D03*
X115128000Y-32496000D03*
%TD*%
%TO.C,C29*%
G36*
G01*
X73886750Y-92248000D02*
X74449250Y-92248000D01*
G75*
G02*
X74693000Y-92491750I0J-243750D01*
G01*
X74693000Y-92979250D01*
G75*
G02*
X74449250Y-93223000I-243750J0D01*
G01*
X73886750Y-93223000D01*
G75*
G02*
X73643000Y-92979250I0J243750D01*
G01*
X73643000Y-92491750D01*
G75*
G02*
X73886750Y-92248000I243750J0D01*
G01*
G37*
G36*
G01*
X73886750Y-90673000D02*
X74449250Y-90673000D01*
G75*
G02*
X74693000Y-90916750I0J-243750D01*
G01*
X74693000Y-91404250D01*
G75*
G02*
X74449250Y-91648000I-243750J0D01*
G01*
X73886750Y-91648000D01*
G75*
G02*
X73643000Y-91404250I0J243750D01*
G01*
X73643000Y-90916750D01*
G75*
G02*
X73886750Y-90673000I243750J0D01*
G01*
G37*
%TD*%
%TO.C,C21*%
G36*
G01*
X55580000Y-31341750D02*
X55580000Y-31904250D01*
G75*
G02*
X55336250Y-32148000I-243750J0D01*
G01*
X54848750Y-32148000D01*
G75*
G02*
X54605000Y-31904250I0J243750D01*
G01*
X54605000Y-31341750D01*
G75*
G02*
X54848750Y-31098000I243750J0D01*
G01*
X55336250Y-31098000D01*
G75*
G02*
X55580000Y-31341750I0J-243750D01*
G01*
G37*
G36*
G01*
X57155000Y-31341750D02*
X57155000Y-31904250D01*
G75*
G02*
X56911250Y-32148000I-243750J0D01*
G01*
X56423750Y-32148000D01*
G75*
G02*
X56180000Y-31904250I0J243750D01*
G01*
X56180000Y-31341750D01*
G75*
G02*
X56423750Y-31098000I243750J0D01*
G01*
X56911250Y-31098000D01*
G75*
G02*
X57155000Y-31341750I0J-243750D01*
G01*
G37*
%TD*%
%TO.C,F1*%
G36*
G01*
X118544738Y-32054000D02*
X119501262Y-32054000D01*
G75*
G02*
X119773000Y-32325738I0J-271738D01*
G01*
X119773000Y-33032262D01*
G75*
G02*
X119501262Y-33304000I-271738J0D01*
G01*
X118544738Y-33304000D01*
G75*
G02*
X118273000Y-33032262I0J271738D01*
G01*
X118273000Y-32325738D01*
G75*
G02*
X118544738Y-32054000I271738J0D01*
G01*
G37*
G36*
G01*
X118544738Y-30004000D02*
X119501262Y-30004000D01*
G75*
G02*
X119773000Y-30275738I0J-271738D01*
G01*
X119773000Y-30982262D01*
G75*
G02*
X119501262Y-31254000I-271738J0D01*
G01*
X118544738Y-31254000D01*
G75*
G02*
X118273000Y-30982262I0J271738D01*
G01*
X118273000Y-30275738D01*
G75*
G02*
X118544738Y-30004000I271738J0D01*
G01*
G37*
%TD*%
D61*
%TO.C,J2*%
X120398000Y-27489000D03*
X111758000Y-27489000D03*
D62*
X120398000Y-23309000D03*
X111758000Y-23309000D03*
D63*
X113188000Y-26989000D03*
X118968000Y-26989000D03*
D64*
X113028000Y-28054000D03*
X113828000Y-28054000D03*
X114328000Y-28054000D03*
X114828000Y-28054000D03*
X115328000Y-28054000D03*
X115828000Y-28054000D03*
X116328000Y-28054000D03*
X116828000Y-28054000D03*
X117328000Y-28054000D03*
X117828000Y-28054000D03*
X118628000Y-28054000D03*
X119428000Y-28054000D03*
X119128000Y-28054000D03*
X118328000Y-28054000D03*
X113528000Y-28054000D03*
X112728000Y-28054000D03*
%TD*%
M02*
