M48
; DRILL file {KiCad (5.1.6)-1} date 07/01/20 23:58:00
; FORMAT={-:-/ absolute / metric / decimal}
; #@! TF.CreationDate,2020-07-01T23:58:00+08:00
; #@! TF.GenerationSoftware,Kicad,Pcbnew,(5.1.6)-1
; #@! TF.FileFunction,Plated,1,2,PTH
FMAT,2
METRIC
T1C0.250
T2C0.300
T3C0.500
T4C0.600
T5C0.890
T6C1.000
T7C1.500
T8C1.570
T9C1.800
T10C3.200
%
G90
G05
T1
X76.97Y-91.198
X76.97Y-92.698
X77.47Y-91.948
X77.97Y-91.198
X77.97Y-92.698
T2
X26.67Y-53.975
X26.67Y-83.185
X27.305Y-40.005
X27.305Y-50.8
X27.94Y-83.185
X27.94Y-87.63
X28.575Y-62.865
X29.21Y-31.115
X29.21Y-83.185
X29.441Y-48.387
X29.972Y-65.024
X30.48Y-83.185
X30.48Y-85.09
X30.988Y-61.214
X31.115Y-48.26
X31.75Y-38.1
X31.75Y-83.185
X31.877Y-69.596
X32.385Y-74.93
X32.385Y-76.2
X32.385Y-77.47
X32.385Y-78.74
X32.385Y-80.01
X32.385Y-81.28
X32.385Y-82.55
X33.02Y-61.468
X33.02Y-87.63
X33.591Y-61.023
X33.655Y-74.93
X33.655Y-92.71
X34.925Y-27.305
X34.925Y-69.215
X34.925Y-70.485
X34.925Y-71.755
X34.925Y-73.025
X34.925Y-74.295
X34.925Y-85.09
X34.925Y-95.25
X35.56Y-78.105
X35.56Y-90.17
X35.571Y-62.892
X36.195Y-33.02
X36.195Y-43.815
X36.449Y-67.12
X36.83Y-81.915
X37.338Y-74.907
X37.465Y-72.39
X37.465Y-87.63
X38.1Y-92.71
X38.354Y-76.581
X38.481Y-67.12
X38.735Y-55.88
X38.735Y-60.325
X38.989Y-47.371
X39.37Y-85.09
X39.37Y-95.25
X39.624Y-76.936
X40.005Y-70.866
X40.005Y-90.17
X40.64Y-81.915
X40.894Y-60.198
X40.921Y-54.842
X40.921Y-55.742
X40.921Y-56.642
X40.921Y-57.542
X40.921Y-59.342
X41.67Y-71.374
X41.91Y-87.63
X42.164Y-66.548
X42.545Y-49.53
X42.545Y-53.34
X42.545Y-92.71
X42.822Y-58.42
X43.18Y-34.417
X43.752Y-74.422
X43.758Y-73.462
X43.792Y-59.459
X43.815Y-85.09
X43.815Y-95.25
X44.005Y-81.597
X44.45Y-90.17
X44.831Y-63.881
X45.085Y-34.925
X45.085Y-45.085
X45.085Y-53.34
X45.212Y-60.579
X45.466Y-75.692
X45.72Y-27.94
X46.609Y-61.849
X46.736Y-67.437
X46.99Y-92.71
X47.053Y-53.023
X47.625Y-54.038
X47.625Y-70.675
X47.942Y-75.692
X47.942Y-81.597
X48.26Y-37.465
X48.26Y-85.09
X48.26Y-95.25
X48.641Y-67.437
X51.054Y-45.567
X51.054Y-50.8
X51.435Y-80.01
X51.816Y-58.42
X52.07Y-60.96
X52.451Y-67.564
X52.544Y-53.213
X52.705Y-33.02
X52.705Y-90.17
X53.012Y-52.604
X53.34Y-43.18
X53.34Y-95.25
X53.594Y-48.768
X53.617Y-50.736
X53.848Y-29.464
X54.587Y-49.68
X54.737Y-47.053
X55.092Y-31.623
X55.245Y-59.69
X55.499Y-51.181
X56.388Y-67.564
X57.15Y-37.465
X57.404Y-44.704
X57.404Y-47.625
X57.785Y-90.17
X57.785Y-95.25
X58.293Y-23.241
X58.293Y-46.736
X58.911Y-46.988
X59.055Y-29.845
X59.182Y-67.437
X59.278Y-48.102
X60.178Y-54.376
X60.96Y-65.405
X61.15Y-67.882
X61.341Y-48.768
X61.595Y-23.495
X61.595Y-33.02
X61.633Y-76.744
X61.849Y-43.942
X61.912Y-50.609
X61.976Y-55.944
X62.291Y-76.788
X62.802Y-76.264
X62.865Y-95.25
X62.992Y-52.261
X63.436Y-77.47
X63.5Y-27.305
X63.627Y-67.691
X63.881Y-79.502
X64.135Y-52.197
X64.516Y-59.69
X64.643Y-48.133
X65.024Y-50.673
X65.024Y-76.2
X65.532Y-42.418
X66.04Y-37.465
X66.04Y-79.502
X66.58Y-51.8
X67.056Y-61.976
X67.31Y-44.196
X67.31Y-45.593
X67.437Y-52.959
X67.437Y-72.263
X67.818Y-48.641
X67.818Y-95.25
X68.453Y-75.44
X68.517Y-45.72
X68.58Y-72.263
X69.088Y-67.818
X69.469Y-46.355
X69.812Y-43.117
X70.104Y-45.339
X70.104Y-67.501
X70.739Y-46.355
X70.866Y-37.211
X70.866Y-37.973
X71.12Y-24.13
X71.12Y-63.754
X71.12Y-73.787
X71.628Y-41.3
X71.755Y-76.073
X72.009Y-80.391
X72.136Y-68.961
X72.39Y-59.69
X72.464Y-74.346
X72.517Y-52.959
X72.898Y-41.783
X72.921Y-40.386
X73.025Y-95.25
X73.152Y-74.168
X73.279Y-77.089
X73.839Y-73.839
X73.914Y-39.37
X74.168Y-91.16
X74.168Y-92.736
X74.549Y-35.306
X74.676Y-49.149
X74.74Y-73.7
X74.93Y-70.889
X74.93Y-71.859
X75.438Y-52.959
X75.565Y-24.13
X75.946Y-70.889
X76.327Y-51.308
X76.454Y-36.553
X76.454Y-39.497
X77.216Y-43.942
X77.216Y-77.787
X77.47Y-27.94
X77.47Y-59.69
X77.978Y-66.294
X77.978Y-69.215
X78.486Y-22.86
X78.486Y-33.591
X78.509Y-77.216
X78.97Y-69.16
X78.994Y-42.545
X78.994Y-54.483
X79.248Y-41.402
X79.273Y-48.006
X79.311Y-44.767
X79.49Y-33.539
X79.756Y-29.845
X80.137Y-41.91
X80.518Y-47.371
X80.518Y-81.534
X80.518Y-83.629
X80.518Y-85.217
X80.541Y-77.216
X80.785Y-49.517
X81.28Y-62.23
X81.511Y-85.217
X81.545Y-29.983
X81.915Y-45.212
X82.28Y-41.926
X82.55Y-36.83
X82.677Y-91.948
X82.929Y-50.419
X82.931Y-92.964
X83.11Y-41.073
X83.312Y-42.926
X83.376Y-45.339
X83.462Y-49.53
X84.201Y-70.167
X84.412Y-91.039
X84.432Y-49.53
X84.582Y-34.544
X84.582Y-40.005
X84.836Y-47.371
X84.836Y-66.04
X85.09Y-51.308
X85.217Y-87.249
X85.344Y-27.686
X85.401Y-45.745
X85.407Y-45.018
X85.725Y-31.115
X85.725Y-49.657
X86.106Y-52.07
X86.233Y-87.503
X86.36Y-57.658
X86.55Y-82.55
X86.614Y-89.914
X86.805Y-49.339
X86.868Y-58.42
X87.197Y-55.129
X87.344Y-21.298
X87.376Y-90.424
X87.503Y-35.814
X87.884Y-94.234
X87.907Y-49.721
X88.456Y-46.228
X88.456Y-78.168
X88.456Y-83.376
X88.773Y-73.279
X88.837Y-22.669
X88.837Y-31.305
X88.837Y-33.337
X88.9Y-48.704
X89.154Y-65.024
X89.418Y-74.051
X89.471Y-55.753
X89.528Y-86.296
X89.688Y-44.958
X90.104Y-91.315
X90.17Y-53.721
X90.233Y-86.614
X90.678Y-90.361
X90.805Y-28.575
X90.805Y-32.766
X90.805Y-95.25
X91.059Y-24.892
X91.186Y-37.846
X91.186Y-40.919
X91.252Y-44.788
X91.313Y-90.868
X91.376Y-21.717
X91.63Y-85.598
X91.694Y-92.964
X92.075Y-48.641
X92.217Y-85.295
X92.456Y-32.004
X92.479Y-39.116
X92.71Y-92.964
X92.736Y-47.371
X93.152Y-42.588
X93.599Y-29.972
X93.708Y-87.122
X93.726Y-92.941
X93.853Y-58.443
X93.98Y-89.535
X94.361Y-60.325
X94.618Y-74.041
X95.178Y-73.279
X95.25Y-24.765
X95.25Y-96.52
X95.504Y-32.766
X95.504Y-37.846
X95.758Y-90.932
X96.497Y-85.575
X96.774Y-28.725
X96.837Y-89.535
X97.324Y-55.874
X97.969Y-29.845
X97.98Y-56.197
X98.044Y-88.138
X99.441Y-77.597
X99.441Y-80.23
X99.441Y-85.598
X99.845Y-29.845
X99.845Y-63.477
X99.949Y-69.977
X100.203Y-80.899
X100.978Y-68.276
X101.346Y-85.217
X102.235Y-30.988
X102.235Y-39.497
X102.87Y-24.765
X102.87Y-69.596
X103.251Y-71.016
X104.14Y-35.433
X104.14Y-96.52
X104.267Y-74.803
X105.41Y-66.04
X105.41Y-67.818
X105.7Y-94.361
X105.918Y-30.988
X105.918Y-39.497
X106.172Y-73.152
X106.691Y-77.227
X106.703Y-87.63
X106.87Y-41.148
X107.696Y-69.088
X107.696Y-71.374
X108.585Y-62.611
X108.839Y-76.581
X108.839Y-87.63
X109.22Y-94.107
X109.474Y-28.933
X109.474Y-30.988
X109.728Y-91.821
X109.855Y-25.4
X109.855Y-42.672
X109.878Y-66.929
X110.49Y-68.58
X110.871Y-64.897
X110.871Y-72.009
X111.76Y-96.52
X112.014Y-75.184
X112.268Y-32.639
X112.395Y-72.39
X112.522Y-49.53
X112.776Y-29.21
X112.776Y-81.305
X112.852Y-27.788
X113.03Y-21.59
X113.665Y-86.995
X113.665Y-93.98
X113.678Y-28.054
X113.792Y-35.814
X114.046Y-37.973
X114.046Y-40.259
X114.554Y-42.418
X114.554Y-43.307
X114.935Y-56.515
X114.935Y-89.535
X114.935Y-93.345
X115.062Y-78.486
X115.316Y-81.254
X115.593Y-38.862
X115.593Y-40.894
X115.824Y-76.2
X116.078Y-30.48
X116.459Y-53.848
X116.563Y-37.846
X116.563Y-42.291
X116.563Y-43.307
X117.475Y-59.055
X117.475Y-96.52
X118.11Y-25.4
X118.11Y-46.228
X118.491Y-40.09
X118.504Y-28.054
X118.999Y-35.052
X119.023Y-32.679
X119.38Y-21.59
X119.38Y-79.756
X120.015Y-38.862
X120.015Y-43.942
X121.92Y-85.725
X122.428Y-35.052
X122.428Y-46.228
X122.936Y-23.368
X122.936Y-29.718
X123.444Y-40.64
X123.444Y-51.562
X123.952Y-54.864
X31.877Y-67.496
T3
X107.15Y-22.814
X108.75Y-22.814
X26.81Y-24.13
X27.513Y-22.433
X27.513Y-25.827
X29.21Y-21.73
X29.21Y-26.53
X30.907Y-22.433
X30.907Y-25.827
X31.61Y-24.13
X118.758Y-93.98
X119.461Y-92.283
X119.461Y-95.677
X121.158Y-91.58
X121.158Y-96.38
X122.855Y-92.283
X122.855Y-95.677
X123.558Y-93.98
T5
X113.447Y-62.613
X113.447Y-64.903
X113.447Y-74.043
X113.447Y-76.333
X118.267Y-66.929
X118.267Y-68.961
X118.267Y-70.993
X118.267Y-73.025
X120.047Y-65.913
X120.047Y-67.945
X120.047Y-69.977
X120.047Y-72.009
T7
X81.31Y-43.156
T8
X119.157Y-61.343
X119.157Y-77.603
T9
X93.218Y-80.01
T10
X29.21Y-24.13
X121.158Y-93.98
T4
X111.758Y-23.609
X111.758Y-23.409
X111.758Y-23.209
X111.758Y-23.009
X111.758Y-28.039
X111.758Y-27.839
X111.758Y-27.639
X111.758Y-27.439
X111.758Y-27.239
X111.758Y-27.039
X111.758Y-26.939
X120.398Y-23.609
X120.398Y-23.409
X120.398Y-23.209
X120.398Y-23.009
X120.398Y-28.039
X120.398Y-27.839
X120.398Y-27.639
X120.398Y-27.439
X120.398Y-27.239
X120.398Y-27.039
X120.398Y-26.939
T6
X66.42Y-30.036
X66.42Y-30.436
X66.42Y-30.836
X66.42Y-31.236
X66.42Y-31.636
X66.42Y-32.036
X72.12Y-28.036
X71.72Y-28.036
X71.32Y-28.036
X70.92Y-28.036
X70.52Y-28.036
X70.12Y-28.036
X72.12Y-34.036
X71.72Y-34.036
X71.32Y-34.036
X70.92Y-34.036
X70.52Y-34.036
X70.12Y-34.036
T0
M30
